<?xml version="1.0" encoding="utf-8" standalone="no"?>
<!DOCTYPE svg PUBLIC "-//W3C//DTD SVG 1.1//EN"
  "http://www.w3.org/Graphics/SVG/1.1/DTD/svg11.dtd">
<!-- Created with matplotlib (https://matplotlib.org/) -->
<svg height="592.3275pt" version="1.1" viewBox="0 0 599.173438 592.3275" width="599.173438pt" xmlns="http://www.w3.org/2000/svg" xmlns:xlink="http://www.w3.org/1999/xlink">
 <metadata>
  <rdf:RDF xmlns:cc="http://creativecommons.org/ns#" xmlns:dc="http://purl.org/dc/elements/1.1/" xmlns:rdf="http://www.w3.org/1999/02/22-rdf-syntax-ns#">
   <cc:Work>
    <dc:type rdf:resource="http://purl.org/dc/dcmitype/StillImage"/>
    <dc:date>2021-07-07T18:31:24.935978</dc:date>
    <dc:format>image/svg+xml</dc:format>
    <dc:creator>
     <cc:Agent>
      <dc:title>Matplotlib v3.3.4, https://matplotlib.org/</dc:title>
     </cc:Agent>
    </dc:creator>
   </cc:Work>
  </rdf:RDF>
 </metadata>
 <defs>
  <style type="text/css">*{stroke-linecap:butt;stroke-linejoin:round;}</style>
 </defs>
 <g id="figure_1">
  <g id="patch_1">
   <path d="M 0 592.3275 
L 599.173438 592.3275 
L 599.173438 0 
L 0 0 
z
" style="fill:#ffffff;"/>
  </g>
  <g id="axes_1">
   <g id="patch_2">
    <path d="M 37.573438 558 
L 595.573437 558 
L 595.573437 3.6 
L 37.573438 3.6 
z
" style="fill:#ffffff;"/>
   </g>
   <g id="matplotlib.axis_1">
    <g id="xtick_1">
     <g id="line2d_1">
      <defs>
       <path d="M 0 0 
L 0 -3 
" id="m95460fcef9" style="stroke:#000000;stroke-width:0.5;"/>
      </defs>
      <g>
       <use style="stroke:#000000;stroke-width:0.5;" x="62.937074" xlink:href="#m95460fcef9" y="558"/>
      </g>
     </g>
     <g id="line2d_2">
      <defs>
       <path d="M 0 0 
L 0 3 
" id="m08013be0bb" style="stroke:#000000;stroke-width:0.5;"/>
      </defs>
      <g>
       <use style="stroke:#000000;stroke-width:0.5;" x="62.937074" xlink:href="#m08013be0bb" y="3.6"/>
      </g>
     </g>
     <g id="text_1">
      <!-- $2^{1}$ -->
      <g transform="translate(57.337074 569.098438)scale(0.1 -0.1)">
       <defs>
        <path d="M 12.796875 55.515625 
L 7.328125 55.515625 
L 7.328125 68.5 
Q 12.546875 71.296875 17.84375 72.75 
Q 23.140625 74.21875 28.21875 74.21875 
Q 39.59375 74.21875 46.1875 68.703125 
Q 52.78125 63.1875 52.78125 53.71875 
Q 52.78125 43.015625 37.84375 28.125 
Q 36.671875 27 36.078125 26.421875 
L 17.671875 8.015625 
L 48.09375 8.015625 
L 48.09375 17 
L 53.8125 17 
L 53.8125 0 
L 6.78125 0 
L 6.78125 5.328125 
L 28.90625 27.390625 
Q 36.234375 34.71875 39.359375 40.84375 
Q 42.484375 46.96875 42.484375 53.71875 
Q 42.484375 61.078125 38.640625 65.234375 
Q 34.8125 69.390625 28.078125 69.390625 
Q 21.09375 69.390625 17.28125 65.921875 
Q 13.484375 62.453125 12.796875 55.515625 
z
" id="DejaVuSerif-50"/>
        <path d="M 14.203125 0 
L 14.203125 5.171875 
L 26.90625 5.171875 
L 26.90625 65.828125 
L 12.203125 56.296875 
L 12.203125 62.703125 
L 29.984375 74.21875 
L 36.71875 74.21875 
L 36.71875 5.171875 
L 49.421875 5.171875 
L 49.421875 0 
z
" id="DejaVuSerif-49"/>
       </defs>
       <use transform="translate(0 0.7125)" xlink:href="#DejaVuSerif-50"/>
       <use transform="translate(64.531406 37.046875)scale(0.7)" xlink:href="#DejaVuSerif-49"/>
      </g>
     </g>
    </g>
    <g id="xtick_2">
     <g id="line2d_3">
      <g>
       <use style="stroke:#000000;stroke-width:0.5;" x="147.482528" xlink:href="#m95460fcef9" y="558"/>
      </g>
     </g>
     <g id="line2d_4">
      <g>
       <use style="stroke:#000000;stroke-width:0.5;" x="147.482528" xlink:href="#m08013be0bb" y="3.6"/>
      </g>
     </g>
     <g id="text_2">
      <!-- $2^{5}$ -->
      <g transform="translate(141.882528 569.098438)scale(0.1 -0.1)">
       <defs>
        <path d="M 50.296875 72.90625 
L 50.296875 64.890625 
L 16.890625 64.890625 
L 16.890625 44 
Q 19.4375 45.75 22.828125 46.625 
Q 26.21875 47.515625 30.421875 47.515625 
Q 42.234375 47.515625 49.0625 40.96875 
Q 55.90625 34.421875 55.90625 23.09375 
Q 55.90625 11.53125 49 5.046875 
Q 42.09375 -1.421875 29.59375 -1.421875 
Q 24.5625 -1.421875 19.28125 -0.1875 
Q 14.015625 1.03125 8.5 3.515625 
L 8.5 17.671875 
L 14.015625 17.671875 
Q 14.453125 10.75 18.421875 7.078125 
Q 22.40625 3.421875 29.59375 3.421875 
Q 37.3125 3.421875 41.453125 8.5 
Q 45.609375 13.578125 45.609375 23.09375 
Q 45.609375 32.5625 41.484375 37.609375 
Q 37.359375 42.671875 29.59375 42.671875 
Q 25.203125 42.671875 21.84375 41.109375 
Q 18.5 39.546875 15.921875 36.28125 
L 11.71875 36.28125 
L 11.71875 72.90625 
z
" id="DejaVuSerif-53"/>
       </defs>
       <use transform="translate(0 0.63125)" xlink:href="#DejaVuSerif-50"/>
       <use transform="translate(64.531406 36.965625)scale(0.7)" xlink:href="#DejaVuSerif-53"/>
      </g>
     </g>
    </g>
    <g id="xtick_3">
     <g id="line2d_5">
      <g>
       <use style="stroke:#000000;stroke-width:0.5;" x="232.027983" xlink:href="#m95460fcef9" y="558"/>
      </g>
     </g>
     <g id="line2d_6">
      <g>
       <use style="stroke:#000000;stroke-width:0.5;" x="232.027983" xlink:href="#m08013be0bb" y="3.6"/>
      </g>
     </g>
     <g id="text_3">
      <!-- $2^{9}$ -->
      <g transform="translate(226.427983 569.098438)scale(0.1 -0.1)">
       <defs>
        <path d="M 46.78125 32.671875 
Q 43.5 29 39.25 27.1875 
Q 35.015625 25.390625 29.6875 25.390625 
Q 18.84375 25.390625 12.5625 31.9375 
Q 6.296875 38.484375 6.296875 49.8125 
Q 6.296875 60.890625 13.109375 67.546875 
Q 19.921875 74.21875 31.296875 74.21875 
Q 43.65625 74.21875 50.265625 65.015625 
Q 56.890625 55.8125 56.890625 38.71875 
Q 56.890625 19.578125 49.015625 9.078125 
Q 41.15625 -1.421875 26.90625 -1.421875 
Q 23.046875 -1.421875 18.796875 -0.6875 
Q 14.546875 0.046875 10.109375 1.515625 
L 10.109375 13.625 
L 15.578125 13.625 
Q 16.21875 8.6875 19.390625 6.046875 
Q 22.5625 3.421875 27.875 3.421875 
Q 37.359375 3.421875 41.984375 10.5625 
Q 46.625 17.71875 46.78125 32.671875 
z
M 30.90625 69.390625 
Q 23.96875 69.390625 20.28125 64.328125 
Q 16.609375 59.28125 16.609375 49.8125 
Q 16.609375 40.328125 20.28125 35.25 
Q 23.96875 30.171875 30.90625 30.171875 
Q 37.84375 30.171875 41.53125 35.078125 
Q 45.21875 39.984375 45.21875 49.21875 
Q 45.21875 58.9375 41.5 64.15625 
Q 37.796875 69.390625 30.90625 69.390625 
z
" id="DejaVuSerif-57"/>
       </defs>
       <use transform="translate(0 0.7125)" xlink:href="#DejaVuSerif-50"/>
       <use transform="translate(64.531406 37.046875)scale(0.7)" xlink:href="#DejaVuSerif-57"/>
      </g>
     </g>
    </g>
    <g id="xtick_4">
     <g id="line2d_7">
      <g>
       <use style="stroke:#000000;stroke-width:0.5;" x="316.573438" xlink:href="#m95460fcef9" y="558"/>
      </g>
     </g>
     <g id="line2d_8">
      <g>
       <use style="stroke:#000000;stroke-width:0.5;" x="316.573438" xlink:href="#m08013be0bb" y="3.6"/>
      </g>
     </g>
     <g id="text_4">
      <!-- $2^{13}$ -->
      <g transform="translate(308.723437 569.098438)scale(0.1 -0.1)">
       <defs>
        <path d="M 9.71875 69.828125 
Q 15.4375 71.96875 20.671875 73.09375 
Q 25.921875 74.21875 30.515625 74.21875 
Q 41.21875 74.21875 47.21875 69.59375 
Q 53.21875 64.984375 53.21875 56.78125 
Q 53.21875 50.203125 49.0625 45.78125 
Q 44.921875 41.359375 37.3125 39.796875 
Q 46.296875 38.53125 51.25 33.28125 
Q 56.203125 28.03125 56.203125 19.671875 
Q 56.203125 9.46875 49.34375 4.015625 
Q 42.484375 -1.421875 29.59375 -1.421875 
Q 23.875 -1.421875 18.421875 -0.1875 
Q 12.984375 1.03125 7.625 3.515625 
L 7.625 17.671875 
L 13.09375 17.671875 
Q 13.578125 10.640625 17.828125 7.03125 
Q 22.078125 3.421875 29.78125 3.421875 
Q 37.25 3.421875 41.578125 7.734375 
Q 45.90625 12.0625 45.90625 19.578125 
Q 45.90625 28.171875 41.453125 32.59375 
Q 37.015625 37.015625 28.421875 37.015625 
L 23.78125 37.015625 
L 23.78125 42 
L 26.21875 42 
Q 34.765625 42 39.03125 45.53125 
Q 43.3125 49.078125 43.3125 56.203125 
Q 43.3125 62.59375 39.796875 65.984375 
Q 36.28125 69.390625 29.6875 69.390625 
Q 23.09375 69.390625 19.453125 66.265625 
Q 15.828125 63.140625 15.1875 56.984375 
L 9.71875 56.984375 
z
" id="DejaVuSerif-51"/>
       </defs>
       <use transform="translate(0 0.7125)" xlink:href="#DejaVuSerif-50"/>
       <use transform="translate(64.531406 37.046875)scale(0.7)" xlink:href="#DejaVuSerif-49"/>
       <use transform="translate(109.067539 37.046875)scale(0.7)" xlink:href="#DejaVuSerif-51"/>
      </g>
     </g>
    </g>
    <g id="xtick_5">
     <g id="line2d_9">
      <g>
       <use style="stroke:#000000;stroke-width:0.5;" x="401.118892" xlink:href="#m95460fcef9" y="558"/>
      </g>
     </g>
     <g id="line2d_10">
      <g>
       <use style="stroke:#000000;stroke-width:0.5;" x="401.118892" xlink:href="#m08013be0bb" y="3.6"/>
      </g>
     </g>
     <g id="text_5">
      <!-- $2^{17}$ -->
      <g transform="translate(393.268892 569.098438)scale(0.1 -0.1)">
       <defs>
        <path d="M 56.390625 67.921875 
L 27.875 0 
L 20.609375 0 
L 47.796875 64.890625 
L 14.109375 64.890625 
L 14.109375 55.90625 
L 8.40625 55.90625 
L 8.40625 72.90625 
L 56.390625 72.90625 
z
" id="DejaVuSerif-55"/>
       </defs>
       <use transform="translate(0 0.7125)" xlink:href="#DejaVuSerif-50"/>
       <use transform="translate(64.531406 37.046875)scale(0.7)" xlink:href="#DejaVuSerif-49"/>
       <use transform="translate(109.067539 37.046875)scale(0.7)" xlink:href="#DejaVuSerif-55"/>
      </g>
     </g>
    </g>
    <g id="xtick_6">
     <g id="line2d_11">
      <g>
       <use style="stroke:#000000;stroke-width:0.5;" x="485.664347" xlink:href="#m95460fcef9" y="558"/>
      </g>
     </g>
     <g id="line2d_12">
      <g>
       <use style="stroke:#000000;stroke-width:0.5;" x="485.664347" xlink:href="#m08013be0bb" y="3.6"/>
      </g>
     </g>
     <g id="text_6">
      <!-- $2^{21}$ -->
      <g transform="translate(477.814347 569.098438)scale(0.1 -0.1)">
       <use transform="translate(0 0.7125)" xlink:href="#DejaVuSerif-50"/>
       <use transform="translate(64.531406 37.046875)scale(0.7)" xlink:href="#DejaVuSerif-50"/>
       <use transform="translate(109.067539 37.046875)scale(0.7)" xlink:href="#DejaVuSerif-49"/>
      </g>
     </g>
    </g>
    <g id="xtick_7">
     <g id="line2d_13">
      <g>
       <use style="stroke:#000000;stroke-width:0.5;" x="570.209801" xlink:href="#m95460fcef9" y="558"/>
      </g>
     </g>
     <g id="line2d_14">
      <g>
       <use style="stroke:#000000;stroke-width:0.5;" x="570.209801" xlink:href="#m08013be0bb" y="3.6"/>
      </g>
     </g>
     <g id="text_7">
      <!-- $2^{25}$ -->
      <g transform="translate(562.359801 569.098438)scale(0.1 -0.1)">
       <use transform="translate(0 0.7125)" xlink:href="#DejaVuSerif-50"/>
       <use transform="translate(64.531406 37.046875)scale(0.7)" xlink:href="#DejaVuSerif-50"/>
       <use transform="translate(109.067539 37.046875)scale(0.7)" xlink:href="#DejaVuSerif-53"/>
      </g>
     </g>
    </g>
    <g id="xtick_8">
     <g id="line2d_15">
      <defs>
       <path d="M 0 0 
L 0 -1.5 
" id="mb22d81ae86" style="stroke:#000000;stroke-width:0.5;"/>
      </defs>
      <g>
       <use style="stroke:#000000;stroke-width:0.5;" x="41.80071" xlink:href="#mb22d81ae86" y="558"/>
      </g>
     </g>
     <g id="line2d_16">
      <defs>
       <path d="M 0 0 
L 0 1.5 
" id="m291805df6a" style="stroke:#000000;stroke-width:0.5;"/>
      </defs>
      <g>
       <use style="stroke:#000000;stroke-width:0.5;" x="41.80071" xlink:href="#m291805df6a" y="3.6"/>
      </g>
     </g>
    </g>
    <g id="xtick_9">
     <g id="line2d_17">
      <g>
       <use style="stroke:#000000;stroke-width:0.5;" x="84.073438" xlink:href="#mb22d81ae86" y="558"/>
      </g>
     </g>
     <g id="line2d_18">
      <g>
       <use style="stroke:#000000;stroke-width:0.5;" x="84.073438" xlink:href="#m291805df6a" y="3.6"/>
      </g>
     </g>
    </g>
    <g id="xtick_10">
     <g id="line2d_19">
      <g>
       <use style="stroke:#000000;stroke-width:0.5;" x="105.209801" xlink:href="#mb22d81ae86" y="558"/>
      </g>
     </g>
     <g id="line2d_20">
      <g>
       <use style="stroke:#000000;stroke-width:0.5;" x="105.209801" xlink:href="#m291805df6a" y="3.6"/>
      </g>
     </g>
    </g>
    <g id="xtick_11">
     <g id="line2d_21">
      <g>
       <use style="stroke:#000000;stroke-width:0.5;" x="126.346165" xlink:href="#mb22d81ae86" y="558"/>
      </g>
     </g>
     <g id="line2d_22">
      <g>
       <use style="stroke:#000000;stroke-width:0.5;" x="126.346165" xlink:href="#m291805df6a" y="3.6"/>
      </g>
     </g>
    </g>
    <g id="xtick_12">
     <g id="line2d_23">
      <g>
       <use style="stroke:#000000;stroke-width:0.5;" x="168.618892" xlink:href="#mb22d81ae86" y="558"/>
      </g>
     </g>
     <g id="line2d_24">
      <g>
       <use style="stroke:#000000;stroke-width:0.5;" x="168.618892" xlink:href="#m291805df6a" y="3.6"/>
      </g>
     </g>
    </g>
    <g id="xtick_13">
     <g id="line2d_25">
      <g>
       <use style="stroke:#000000;stroke-width:0.5;" x="189.755256" xlink:href="#mb22d81ae86" y="558"/>
      </g>
     </g>
     <g id="line2d_26">
      <g>
       <use style="stroke:#000000;stroke-width:0.5;" x="189.755256" xlink:href="#m291805df6a" y="3.6"/>
      </g>
     </g>
    </g>
    <g id="xtick_14">
     <g id="line2d_27">
      <g>
       <use style="stroke:#000000;stroke-width:0.5;" x="210.891619" xlink:href="#mb22d81ae86" y="558"/>
      </g>
     </g>
     <g id="line2d_28">
      <g>
       <use style="stroke:#000000;stroke-width:0.5;" x="210.891619" xlink:href="#m291805df6a" y="3.6"/>
      </g>
     </g>
    </g>
    <g id="xtick_15">
     <g id="line2d_29">
      <g>
       <use style="stroke:#000000;stroke-width:0.5;" x="253.164347" xlink:href="#mb22d81ae86" y="558"/>
      </g>
     </g>
     <g id="line2d_30">
      <g>
       <use style="stroke:#000000;stroke-width:0.5;" x="253.164347" xlink:href="#m291805df6a" y="3.6"/>
      </g>
     </g>
    </g>
    <g id="xtick_16">
     <g id="line2d_31">
      <g>
       <use style="stroke:#000000;stroke-width:0.5;" x="274.30071" xlink:href="#mb22d81ae86" y="558"/>
      </g>
     </g>
     <g id="line2d_32">
      <g>
       <use style="stroke:#000000;stroke-width:0.5;" x="274.30071" xlink:href="#m291805df6a" y="3.6"/>
      </g>
     </g>
    </g>
    <g id="xtick_17">
     <g id="line2d_33">
      <g>
       <use style="stroke:#000000;stroke-width:0.5;" x="295.437074" xlink:href="#mb22d81ae86" y="558"/>
      </g>
     </g>
     <g id="line2d_34">
      <g>
       <use style="stroke:#000000;stroke-width:0.5;" x="295.437074" xlink:href="#m291805df6a" y="3.6"/>
      </g>
     </g>
    </g>
    <g id="xtick_18">
     <g id="line2d_35">
      <g>
       <use style="stroke:#000000;stroke-width:0.5;" x="337.709801" xlink:href="#mb22d81ae86" y="558"/>
      </g>
     </g>
     <g id="line2d_36">
      <g>
       <use style="stroke:#000000;stroke-width:0.5;" x="337.709801" xlink:href="#m291805df6a" y="3.6"/>
      </g>
     </g>
    </g>
    <g id="xtick_19">
     <g id="line2d_37">
      <g>
       <use style="stroke:#000000;stroke-width:0.5;" x="358.846165" xlink:href="#mb22d81ae86" y="558"/>
      </g>
     </g>
     <g id="line2d_38">
      <g>
       <use style="stroke:#000000;stroke-width:0.5;" x="358.846165" xlink:href="#m291805df6a" y="3.6"/>
      </g>
     </g>
    </g>
    <g id="xtick_20">
     <g id="line2d_39">
      <g>
       <use style="stroke:#000000;stroke-width:0.5;" x="379.982528" xlink:href="#mb22d81ae86" y="558"/>
      </g>
     </g>
     <g id="line2d_40">
      <g>
       <use style="stroke:#000000;stroke-width:0.5;" x="379.982528" xlink:href="#m291805df6a" y="3.6"/>
      </g>
     </g>
    </g>
    <g id="xtick_21">
     <g id="line2d_41">
      <g>
       <use style="stroke:#000000;stroke-width:0.5;" x="422.255256" xlink:href="#mb22d81ae86" y="558"/>
      </g>
     </g>
     <g id="line2d_42">
      <g>
       <use style="stroke:#000000;stroke-width:0.5;" x="422.255256" xlink:href="#m291805df6a" y="3.6"/>
      </g>
     </g>
    </g>
    <g id="xtick_22">
     <g id="line2d_43">
      <g>
       <use style="stroke:#000000;stroke-width:0.5;" x="443.391619" xlink:href="#mb22d81ae86" y="558"/>
      </g>
     </g>
     <g id="line2d_44">
      <g>
       <use style="stroke:#000000;stroke-width:0.5;" x="443.391619" xlink:href="#m291805df6a" y="3.6"/>
      </g>
     </g>
    </g>
    <g id="xtick_23">
     <g id="line2d_45">
      <g>
       <use style="stroke:#000000;stroke-width:0.5;" x="464.527983" xlink:href="#mb22d81ae86" y="558"/>
      </g>
     </g>
     <g id="line2d_46">
      <g>
       <use style="stroke:#000000;stroke-width:0.5;" x="464.527983" xlink:href="#m291805df6a" y="3.6"/>
      </g>
     </g>
    </g>
    <g id="xtick_24">
     <g id="line2d_47">
      <g>
       <use style="stroke:#000000;stroke-width:0.5;" x="506.80071" xlink:href="#mb22d81ae86" y="558"/>
      </g>
     </g>
     <g id="line2d_48">
      <g>
       <use style="stroke:#000000;stroke-width:0.5;" x="506.80071" xlink:href="#m291805df6a" y="3.6"/>
      </g>
     </g>
    </g>
    <g id="xtick_25">
     <g id="line2d_49">
      <g>
       <use style="stroke:#000000;stroke-width:0.5;" x="527.937074" xlink:href="#mb22d81ae86" y="558"/>
      </g>
     </g>
     <g id="line2d_50">
      <g>
       <use style="stroke:#000000;stroke-width:0.5;" x="527.937074" xlink:href="#m291805df6a" y="3.6"/>
      </g>
     </g>
    </g>
    <g id="xtick_26">
     <g id="line2d_51">
      <g>
       <use style="stroke:#000000;stroke-width:0.5;" x="549.073437" xlink:href="#mb22d81ae86" y="558"/>
      </g>
     </g>
     <g id="line2d_52">
      <g>
       <use style="stroke:#000000;stroke-width:0.5;" x="549.073437" xlink:href="#m291805df6a" y="3.6"/>
      </g>
     </g>
    </g>
    <g id="xtick_27">
     <g id="line2d_53">
      <g>
       <use style="stroke:#000000;stroke-width:0.5;" x="591.346165" xlink:href="#mb22d81ae86" y="558"/>
      </g>
     </g>
     <g id="line2d_54">
      <g>
       <use style="stroke:#000000;stroke-width:0.5;" x="591.346165" xlink:href="#m291805df6a" y="3.6"/>
      </g>
     </g>
    </g>
    <g id="text_8">
     <!-- Time (s) -->
     <g transform="translate(287.605469 585.815938)scale(0.14 -0.14)">
      <defs>
       <path d="M 19.09375 0 
L 19.09375 5.171875 
L 28.421875 5.171875 
L 28.421875 67.09375 
L 6.984375 67.09375 
L 6.984375 55.71875 
L 0.984375 55.71875 
L 0.984375 72.90625 
L 65.71875 72.90625 
L 65.71875 55.71875 
L 59.71875 55.71875 
L 59.71875 67.09375 
L 38.28125 67.09375 
L 38.28125 5.171875 
L 47.609375 5.171875 
L 47.609375 0 
z
" id="DejaVuSerif-84"/>
       <path d="M 9.71875 68.015625 
Q 9.71875 70.265625 11.34375 71.921875 
Q 12.984375 73.578125 15.28125 73.578125 
Q 17.53125 73.578125 19.15625 71.921875 
Q 20.796875 70.265625 20.796875 68.015625 
Q 20.796875 65.71875 19.1875 64.109375 
Q 17.578125 62.5 15.28125 62.5 
Q 12.984375 62.5 11.34375 64.109375 
Q 9.71875 65.71875 9.71875 68.015625 
z
M 21.1875 5.171875 
L 29.6875 5.171875 
L 29.6875 0 
L 3.609375 0 
L 3.609375 5.171875 
L 12.203125 5.171875 
L 12.203125 46.6875 
L 3.609375 46.6875 
L 3.609375 51.90625 
L 21.1875 51.90625 
z
" id="DejaVuSerif-105"/>
       <path d="M 51.8125 41.796875 
Q 54.390625 47.515625 58.421875 50.421875 
Q 62.453125 53.328125 67.828125 53.328125 
Q 75.984375 53.328125 79.984375 48.265625 
Q 83.984375 43.21875 83.984375 33.015625 
L 83.984375 5.171875 
L 92.09375 5.171875 
L 92.09375 0 
L 67.1875 0 
L 67.1875 5.171875 
L 75 5.171875 
L 75 31.984375 
Q 75 39.9375 72.65625 43.3125 
Q 70.3125 46.6875 64.890625 46.6875 
Q 58.890625 46.6875 55.734375 42.140625 
Q 52.59375 37.59375 52.59375 28.90625 
L 52.59375 5.171875 
L 60.40625 5.171875 
L 60.40625 0 
L 35.796875 0 
L 35.796875 5.171875 
L 43.609375 5.171875 
L 43.609375 32.328125 
Q 43.609375 40.09375 41.265625 43.390625 
Q 38.921875 46.6875 33.5 46.6875 
Q 27.484375 46.6875 24.328125 42.140625 
Q 21.1875 37.59375 21.1875 28.90625 
L 21.1875 5.171875 
L 29 5.171875 
L 29 0 
L 4.109375 0 
L 4.109375 5.171875 
L 12.203125 5.171875 
L 12.203125 46.78125 
L 3.609375 46.78125 
L 3.609375 51.90625 
L 21.1875 51.90625 
L 21.1875 42.671875 
Q 23.6875 47.859375 27.53125 50.59375 
Q 31.390625 53.328125 36.28125 53.328125 
Q 42.328125 53.328125 46.375 50.3125 
Q 50.4375 47.3125 51.8125 41.796875 
z
" id="DejaVuSerif-109"/>
       <path d="M 54.203125 25 
L 15.484375 25 
L 15.484375 24.609375 
Q 15.484375 14.109375 19.4375 8.765625 
Q 23.390625 3.421875 31.109375 3.421875 
Q 37.015625 3.421875 40.796875 6.515625 
Q 44.578125 9.625 46.09375 15.71875 
L 53.328125 15.71875 
Q 51.171875 7.171875 45.375 2.875 
Q 39.59375 -1.421875 30.171875 -1.421875 
Q 18.796875 -1.421875 11.890625 6.078125 
Q 4.984375 13.578125 4.984375 25.984375 
Q 4.984375 38.28125 11.765625 45.796875 
Q 18.5625 53.328125 29.59375 53.328125 
Q 41.359375 53.328125 47.65625 46.0625 
Q 53.953125 38.8125 54.203125 25 
z
M 43.609375 30.171875 
Q 43.3125 39.265625 39.765625 43.875 
Q 36.234375 48.484375 29.59375 48.484375 
Q 23.390625 48.484375 19.828125 43.84375 
Q 16.265625 39.203125 15.484375 30.171875 
z
" id="DejaVuSerif-101"/>
       <path id="DejaVuSerif-32"/>
       <path d="M 31.890625 -15.578125 
Q 20.015625 -10.25 13.953125 1.296875 
Q 7.90625 12.84375 7.90625 30.171875 
Q 7.90625 47.5625 13.953125 59.109375 
Q 20.015625 70.65625 31.890625 75.984375 
L 31.890625 71.1875 
Q 24.359375 66.015625 21.09375 56.609375 
Q 17.828125 47.21875 17.828125 30.171875 
Q 17.828125 13.1875 21.09375 3.78125 
Q 24.359375 -5.609375 31.890625 -10.796875 
z
" id="DejaVuSerif-40"/>
       <path d="M 5.609375 2.875 
L 5.609375 14.984375 
L 10.796875 14.984375 
Q 10.984375 9.1875 14.421875 6.296875 
Q 17.875 3.421875 24.609375 3.421875 
Q 30.671875 3.421875 33.84375 5.6875 
Q 37.015625 7.953125 37.015625 12.3125 
Q 37.015625 15.71875 34.6875 17.8125 
Q 32.375 19.921875 24.90625 22.3125 
L 18.40625 24.515625 
Q 11.71875 26.65625 8.71875 29.875 
Q 5.71875 33.109375 5.71875 38.09375 
Q 5.71875 45.21875 10.9375 49.265625 
Q 16.15625 53.328125 25.390625 53.328125 
Q 29.5 53.328125 34.03125 52.25 
Q 38.578125 51.171875 43.40625 49.125 
L 43.40625 37.796875 
L 38.234375 37.796875 
Q 38.03125 42.828125 34.703125 45.65625 
Q 31.390625 48.484375 25.6875 48.484375 
Q 20.015625 48.484375 17.109375 46.484375 
Q 14.203125 44.484375 14.203125 40.484375 
Q 14.203125 37.203125 16.40625 35.21875 
Q 18.609375 33.25 25.203125 31.203125 
L 32.328125 29 
Q 39.703125 26.703125 42.9375 23.265625 
Q 46.1875 19.828125 46.1875 14.40625 
Q 46.1875 7.03125 40.546875 2.796875 
Q 34.90625 -1.421875 25 -1.421875 
Q 19.96875 -1.421875 15.1875 -0.34375 
Q 10.40625 0.734375 5.609375 2.875 
z
" id="DejaVuSerif-115"/>
       <path d="M 7.078125 -15.578125 
L 7.078125 -10.796875 
Q 14.59375 -5.609375 17.890625 3.78125 
Q 21.1875 13.1875 21.1875 30.171875 
Q 21.1875 47.21875 17.890625 56.609375 
Q 14.59375 66.015625 7.078125 71.1875 
L 7.078125 75.984375 
Q 19 70.65625 25.046875 59.109375 
Q 31.109375 47.5625 31.109375 30.171875 
Q 31.109375 12.84375 25.046875 1.296875 
Q 19 -10.25 7.078125 -15.578125 
z
" id="DejaVuSerif-41"/>
      </defs>
      <use xlink:href="#DejaVuSerif-84"/>
      <use x="66.699219" xlink:href="#DejaVuSerif-105"/>
      <use x="98.681641" xlink:href="#DejaVuSerif-109"/>
      <use x="193.505859" xlink:href="#DejaVuSerif-101"/>
      <use x="252.685547" xlink:href="#DejaVuSerif-32"/>
      <use x="284.472656" xlink:href="#DejaVuSerif-40"/>
      <use x="323.486328" xlink:href="#DejaVuSerif-115"/>
      <use x="374.804688" xlink:href="#DejaVuSerif-41"/>
     </g>
    </g>
   </g>
   <g id="matplotlib.axis_2">
    <g id="ytick_1">
     <g id="line2d_55">
      <defs>
       <path d="M 0 0 
L 3 0 
" id="ma10451693d" style="stroke:#000000;stroke-width:0.5;"/>
      </defs>
      <g>
       <use style="stroke:#000000;stroke-width:0.5;" x="37.573438" xlink:href="#ma10451693d" y="470.597891"/>
      </g>
     </g>
     <g id="line2d_56">
      <defs>
       <path d="M 0 0 
L -3 0 
" id="me5a3d37af5" style="stroke:#000000;stroke-width:0.5;"/>
      </defs>
      <g>
       <use style="stroke:#000000;stroke-width:0.5;" x="595.573437" xlink:href="#me5a3d37af5" y="470.597891"/>
      </g>
     </g>
     <g id="text_9">
      <!-- 20 -->
      <g transform="translate(21.348438 474.39711)scale(0.1 -0.1)">
       <defs>
        <path d="M 31.78125 3.421875 
Q 39.265625 3.421875 42.96875 11.625 
Q 46.6875 19.828125 46.6875 36.375 
Q 46.6875 52.984375 42.96875 61.1875 
Q 39.265625 69.390625 31.78125 69.390625 
Q 24.3125 69.390625 20.59375 61.1875 
Q 16.890625 52.984375 16.890625 36.375 
Q 16.890625 19.828125 20.59375 11.625 
Q 24.3125 3.421875 31.78125 3.421875 
z
M 31.78125 -1.421875 
Q 19.921875 -1.421875 13.25 8.53125 
Q 6.59375 18.5 6.59375 36.375 
Q 6.59375 54.296875 13.25 64.25 
Q 19.921875 74.21875 31.78125 74.21875 
Q 43.703125 74.21875 50.34375 64.25 
Q 56.984375 54.296875 56.984375 36.375 
Q 56.984375 18.5 50.34375 8.53125 
Q 43.703125 -1.421875 31.78125 -1.421875 
z
" id="DejaVuSerif-48"/>
       </defs>
       <use xlink:href="#DejaVuSerif-50"/>
       <use x="63.623047" xlink:href="#DejaVuSerif-48"/>
      </g>
     </g>
    </g>
    <g id="ytick_2">
     <g id="line2d_57">
      <g>
       <use style="stroke:#000000;stroke-width:0.5;" x="37.573438" xlink:href="#ma10451693d" y="349.153279"/>
      </g>
     </g>
     <g id="line2d_58">
      <g>
       <use style="stroke:#000000;stroke-width:0.5;" x="595.573437" xlink:href="#me5a3d37af5" y="349.153279"/>
      </g>
     </g>
     <g id="text_10">
      <!-- 40 -->
      <g transform="translate(21.348438 352.952497)scale(0.1 -0.1)">
       <defs>
        <path d="M 34.90625 24.703125 
L 34.90625 63.484375 
L 10.015625 24.703125 
z
M 56.390625 0 
L 23.1875 0 
L 23.1875 5.171875 
L 34.90625 5.171875 
L 34.90625 19.484375 
L 3.078125 19.484375 
L 3.078125 24.8125 
L 35.015625 74.21875 
L 44.671875 74.21875 
L 44.671875 24.703125 
L 58.59375 24.703125 
L 58.59375 19.484375 
L 44.671875 19.484375 
L 44.671875 5.171875 
L 56.390625 5.171875 
z
" id="DejaVuSerif-52"/>
       </defs>
       <use xlink:href="#DejaVuSerif-52"/>
       <use x="63.623047" xlink:href="#DejaVuSerif-48"/>
      </g>
     </g>
    </g>
    <g id="ytick_3">
     <g id="line2d_59">
      <g>
       <use style="stroke:#000000;stroke-width:0.5;" x="37.573438" xlink:href="#ma10451693d" y="227.708666"/>
      </g>
     </g>
     <g id="line2d_60">
      <g>
       <use style="stroke:#000000;stroke-width:0.5;" x="595.573437" xlink:href="#me5a3d37af5" y="227.708666"/>
      </g>
     </g>
     <g id="text_11">
      <!-- 60 -->
      <g transform="translate(21.348438 231.507885)scale(0.1 -0.1)">
       <defs>
        <path d="M 32.71875 3.421875 
Q 39.59375 3.421875 43.296875 8.46875 
Q 47.015625 13.53125 47.015625 23 
Q 47.015625 32.46875 43.296875 37.515625 
Q 39.59375 42.578125 32.71875 42.578125 
Q 25.734375 42.578125 22.0625 37.6875 
Q 18.40625 32.8125 18.40625 23.578125 
Q 18.40625 13.875 22.109375 8.640625 
Q 25.828125 3.421875 32.71875 3.421875 
z
M 16.796875 40.140625 
Q 20.125 43.796875 24.3125 45.59375 
Q 28.515625 47.40625 33.796875 47.40625 
Q 44.671875 47.40625 51 40.859375 
Q 57.328125 34.328125 57.328125 23 
Q 57.328125 11.921875 50.515625 5.25 
Q 43.703125 -1.421875 32.328125 -1.421875 
Q 19.96875 -1.421875 13.328125 7.78125 
Q 6.6875 17 6.6875 34.078125 
Q 6.6875 53.21875 14.546875 63.71875 
Q 22.40625 74.21875 36.71875 74.21875 
Q 40.578125 74.21875 44.828125 73.484375 
Q 49.078125 72.75 53.515625 71.296875 
L 53.515625 59.28125 
L 48 59.28125 
Q 47.40625 64.203125 44.234375 66.796875 
Q 41.0625 69.390625 35.6875 69.390625 
Q 26.21875 69.390625 21.578125 62.203125 
Q 16.9375 55.03125 16.796875 40.140625 
z
" id="DejaVuSerif-54"/>
       </defs>
       <use xlink:href="#DejaVuSerif-54"/>
       <use x="63.623047" xlink:href="#DejaVuSerif-48"/>
      </g>
     </g>
    </g>
    <g id="ytick_4">
     <g id="line2d_61">
      <g>
       <use style="stroke:#000000;stroke-width:0.5;" x="37.573438" xlink:href="#ma10451693d" y="106.264053"/>
      </g>
     </g>
     <g id="line2d_62">
      <g>
       <use style="stroke:#000000;stroke-width:0.5;" x="595.573437" xlink:href="#me5a3d37af5" y="106.264053"/>
      </g>
     </g>
     <g id="text_12">
      <!-- 80 -->
      <g transform="translate(21.348438 110.063272)scale(0.1 -0.1)">
       <defs>
        <path d="M 46.578125 19.921875 
Q 46.578125 27.734375 42.6875 32.046875 
Q 38.8125 36.375 31.78125 36.375 
Q 24.75 36.375 20.875 32.046875 
Q 17 27.734375 17 19.921875 
Q 17 12.0625 20.875 7.734375 
Q 24.75 3.421875 31.78125 3.421875 
Q 38.8125 3.421875 42.6875 7.734375 
Q 46.578125 12.0625 46.578125 19.921875 
z
M 44.578125 55.328125 
Q 44.578125 61.96875 41.203125 65.671875 
Q 37.84375 69.390625 31.78125 69.390625 
Q 25.78125 69.390625 22.390625 65.671875 
Q 19 61.96875 19 55.328125 
Q 19 48.640625 22.390625 44.921875 
Q 25.78125 41.21875 31.78125 41.21875 
Q 37.84375 41.21875 41.203125 44.921875 
Q 44.578125 48.640625 44.578125 55.328125 
z
M 39.3125 38.8125 
Q 47.609375 37.703125 52.25 32.6875 
Q 56.890625 27.6875 56.890625 19.921875 
Q 56.890625 9.671875 50.390625 4.125 
Q 43.890625 -1.421875 31.78125 -1.421875 
Q 19.734375 -1.421875 13.203125 4.125 
Q 6.6875 9.671875 6.6875 19.921875 
Q 6.6875 27.6875 11.328125 32.6875 
Q 15.96875 37.703125 24.3125 38.8125 
Q 16.9375 40.140625 13 44.40625 
Q 9.078125 48.6875 9.078125 55.328125 
Q 9.078125 64.109375 15.125 69.15625 
Q 21.1875 74.21875 31.78125 74.21875 
Q 42.390625 74.21875 48.4375 69.15625 
Q 54.5 64.109375 54.5 55.328125 
Q 54.5 48.6875 50.5625 44.40625 
Q 46.625 40.140625 39.3125 38.8125 
z
" id="DejaVuSerif-56"/>
       </defs>
       <use xlink:href="#DejaVuSerif-56"/>
       <use x="63.623047" xlink:href="#DejaVuSerif-48"/>
      </g>
     </g>
    </g>
    <g id="ytick_5">
     <g id="line2d_63">
      <defs>
       <path d="M 0 0 
L 1.5 0 
" id="m73cb9ce905" style="stroke:#000000;stroke-width:0.5;"/>
      </defs>
      <g>
       <use style="stroke:#000000;stroke-width:0.5;" x="37.573438" xlink:href="#m73cb9ce905" y="531.320197"/>
      </g>
     </g>
     <g id="line2d_64">
      <defs>
       <path d="M 0 0 
L -1.5 0 
" id="m38b913e50b" style="stroke:#000000;stroke-width:0.5;"/>
      </defs>
      <g>
       <use style="stroke:#000000;stroke-width:0.5;" x="595.573437" xlink:href="#m38b913e50b" y="531.320197"/>
      </g>
     </g>
    </g>
    <g id="ytick_6">
     <g id="line2d_65">
      <g>
       <use style="stroke:#000000;stroke-width:0.5;" x="37.573438" xlink:href="#m73cb9ce905" y="500.959044"/>
      </g>
     </g>
     <g id="line2d_66">
      <g>
       <use style="stroke:#000000;stroke-width:0.5;" x="595.573437" xlink:href="#m38b913e50b" y="500.959044"/>
      </g>
     </g>
    </g>
    <g id="ytick_7">
     <g id="line2d_67">
      <g>
       <use style="stroke:#000000;stroke-width:0.5;" x="37.573438" xlink:href="#m73cb9ce905" y="440.236738"/>
      </g>
     </g>
     <g id="line2d_68">
      <g>
       <use style="stroke:#000000;stroke-width:0.5;" x="595.573437" xlink:href="#m38b913e50b" y="440.236738"/>
      </g>
     </g>
    </g>
    <g id="ytick_8">
     <g id="line2d_69">
      <g>
       <use style="stroke:#000000;stroke-width:0.5;" x="37.573438" xlink:href="#m73cb9ce905" y="409.875585"/>
      </g>
     </g>
     <g id="line2d_70">
      <g>
       <use style="stroke:#000000;stroke-width:0.5;" x="595.573437" xlink:href="#m38b913e50b" y="409.875585"/>
      </g>
     </g>
    </g>
    <g id="ytick_9">
     <g id="line2d_71">
      <g>
       <use style="stroke:#000000;stroke-width:0.5;" x="37.573438" xlink:href="#m73cb9ce905" y="379.514432"/>
      </g>
     </g>
     <g id="line2d_72">
      <g>
       <use style="stroke:#000000;stroke-width:0.5;" x="595.573437" xlink:href="#m38b913e50b" y="379.514432"/>
      </g>
     </g>
    </g>
    <g id="ytick_10">
     <g id="line2d_73">
      <g>
       <use style="stroke:#000000;stroke-width:0.5;" x="37.573438" xlink:href="#m73cb9ce905" y="318.792125"/>
      </g>
     </g>
     <g id="line2d_74">
      <g>
       <use style="stroke:#000000;stroke-width:0.5;" x="595.573437" xlink:href="#m38b913e50b" y="318.792125"/>
      </g>
     </g>
    </g>
    <g id="ytick_11">
     <g id="line2d_75">
      <g>
       <use style="stroke:#000000;stroke-width:0.5;" x="37.573438" xlink:href="#m73cb9ce905" y="288.430972"/>
      </g>
     </g>
     <g id="line2d_76">
      <g>
       <use style="stroke:#000000;stroke-width:0.5;" x="595.573437" xlink:href="#m38b913e50b" y="288.430972"/>
      </g>
     </g>
    </g>
    <g id="ytick_12">
     <g id="line2d_77">
      <g>
       <use style="stroke:#000000;stroke-width:0.5;" x="37.573438" xlink:href="#m73cb9ce905" y="258.069819"/>
      </g>
     </g>
     <g id="line2d_78">
      <g>
       <use style="stroke:#000000;stroke-width:0.5;" x="595.573437" xlink:href="#m38b913e50b" y="258.069819"/>
      </g>
     </g>
    </g>
    <g id="ytick_13">
     <g id="line2d_79">
      <g>
       <use style="stroke:#000000;stroke-width:0.5;" x="37.573438" xlink:href="#m73cb9ce905" y="197.347513"/>
      </g>
     </g>
     <g id="line2d_80">
      <g>
       <use style="stroke:#000000;stroke-width:0.5;" x="595.573437" xlink:href="#m38b913e50b" y="197.347513"/>
      </g>
     </g>
    </g>
    <g id="ytick_14">
     <g id="line2d_81">
      <g>
       <use style="stroke:#000000;stroke-width:0.5;" x="37.573438" xlink:href="#m73cb9ce905" y="166.98636"/>
      </g>
     </g>
     <g id="line2d_82">
      <g>
       <use style="stroke:#000000;stroke-width:0.5;" x="595.573437" xlink:href="#m38b913e50b" y="166.98636"/>
      </g>
     </g>
    </g>
    <g id="ytick_15">
     <g id="line2d_83">
      <g>
       <use style="stroke:#000000;stroke-width:0.5;" x="37.573438" xlink:href="#m73cb9ce905" y="136.625207"/>
      </g>
     </g>
     <g id="line2d_84">
      <g>
       <use style="stroke:#000000;stroke-width:0.5;" x="595.573437" xlink:href="#m38b913e50b" y="136.625207"/>
      </g>
     </g>
    </g>
    <g id="ytick_16">
     <g id="line2d_85">
      <g>
       <use style="stroke:#000000;stroke-width:0.5;" x="37.573438" xlink:href="#m73cb9ce905" y="75.9029"/>
      </g>
     </g>
     <g id="line2d_86">
      <g>
       <use style="stroke:#000000;stroke-width:0.5;" x="595.573437" xlink:href="#m38b913e50b" y="75.9029"/>
      </g>
     </g>
    </g>
    <g id="ytick_17">
     <g id="line2d_87">
      <g>
       <use style="stroke:#000000;stroke-width:0.5;" x="37.573438" xlink:href="#m73cb9ce905" y="45.541747"/>
      </g>
     </g>
     <g id="line2d_88">
      <g>
       <use style="stroke:#000000;stroke-width:0.5;" x="595.573437" xlink:href="#m38b913e50b" y="45.541747"/>
      </g>
     </g>
    </g>
    <g id="ytick_18">
     <g id="line2d_89">
      <g>
       <use style="stroke:#000000;stroke-width:0.5;" x="37.573438" xlink:href="#m73cb9ce905" y="15.180594"/>
      </g>
     </g>
     <g id="line2d_90">
      <g>
       <use style="stroke:#000000;stroke-width:0.5;" x="595.573437" xlink:href="#m38b913e50b" y="15.180594"/>
      </g>
     </g>
    </g>
    <g id="text_13">
     <!-- Cifa10 Test Accuracy (%) -->
     <g transform="translate(14.237813 370.327813)rotate(-90)scale(0.14 -0.14)">
      <defs>
       <path d="M 70.515625 19.28125 
Q 67.28125 9.078125 59.6875 3.828125 
Q 52.09375 -1.421875 40.484375 -1.421875 
Q 33.34375 -1.421875 27.234375 1.015625 
Q 21.140625 3.46875 16.40625 8.203125 
Q 10.9375 13.671875 8.265625 20.625 
Q 5.609375 27.59375 5.609375 36.375 
Q 5.609375 53.375 15.421875 63.796875 
Q 25.25 74.21875 41.3125 74.21875 
Q 47.265625 74.21875 54 72.65625 
Q 60.75 71.09375 68.5 67.921875 
L 68.5 51.125 
L 62.984375 51.125 
Q 61.1875 60.296875 55.734375 64.640625 
Q 50.296875 69 40.484375 69 
Q 28.8125 69 22.796875 60.71875 
Q 16.796875 52.4375 16.796875 36.375 
Q 16.796875 20.359375 22.796875 12.078125 
Q 28.8125 3.8125 40.484375 3.8125 
Q 48.640625 3.8125 53.90625 7.6875 
Q 59.1875 11.578125 61.53125 19.28125 
z
" id="DejaVuSerif-67"/>
       <path d="M 43.015625 63.71875 
L 38.28125 63.71875 
Q 38.234375 67.390625 36.203125 69.28125 
Q 34.1875 71.1875 30.328125 71.1875 
Q 25.296875 71.1875 23.234375 68.421875 
Q 21.1875 65.671875 21.1875 58.59375 
L 21.1875 51.90625 
L 35.6875 51.90625 
L 35.6875 46.6875 
L 21.1875 46.6875 
L 21.1875 5.171875 
L 32.71875 5.171875 
L 32.71875 0 
L 3.609375 0 
L 3.609375 5.171875 
L 12.203125 5.171875 
L 12.203125 46.6875 
L 3.609375 46.6875 
L 3.609375 51.90625 
L 12.203125 51.90625 
L 12.203125 58.40625 
Q 12.203125 67.09375 16.71875 71.53125 
Q 21.234375 75.984375 29.984375 75.984375 
Q 33.25 75.984375 36.515625 75.390625 
Q 39.796875 74.8125 43.015625 73.578125 
z
" id="DejaVuSerif-102"/>
       <path d="M 39.796875 16.3125 
L 39.796875 27.296875 
L 28.21875 27.296875 
Q 21.53125 27.296875 18.25 24.40625 
Q 14.984375 21.53125 14.984375 15.578125 
Q 14.984375 10.15625 18.296875 6.984375 
Q 21.625 3.8125 27.296875 3.8125 
Q 32.90625 3.8125 36.34375 7.28125 
Q 39.796875 10.75 39.796875 16.3125 
z
M 48.78125 32.421875 
L 48.78125 5.171875 
L 56.78125 5.171875 
L 56.78125 0 
L 39.796875 0 
L 39.796875 5.609375 
Q 36.8125 2 32.90625 0.28125 
Q 29 -1.421875 23.78125 -1.421875 
Q 15.140625 -1.421875 10.0625 3.171875 
Q 4.984375 7.765625 4.984375 15.578125 
Q 4.984375 23.640625 10.796875 28.078125 
Q 16.609375 32.515625 27.203125 32.515625 
L 39.796875 32.515625 
L 39.796875 36.078125 
Q 39.796875 42 36.203125 45.234375 
Q 32.625 48.484375 26.125 48.484375 
Q 20.75 48.484375 17.578125 46.046875 
Q 14.40625 43.609375 13.625 38.8125 
L 8.984375 38.8125 
L 8.984375 49.3125 
Q 13.671875 51.3125 18.09375 52.3125 
Q 22.515625 53.328125 26.703125 53.328125 
Q 37.5 53.328125 43.140625 47.96875 
Q 48.78125 42.625 48.78125 32.421875 
z
" id="DejaVuSerif-97"/>
       <path d="M 10.796875 46.6875 
L 2.875 46.6875 
L 2.875 51.90625 
L 10.796875 51.90625 
L 10.796875 68.015625 
L 19.828125 68.015625 
L 19.828125 51.90625 
L 36.71875 51.90625 
L 36.71875 46.6875 
L 19.828125 46.6875 
L 19.828125 13.71875 
Q 19.828125 7.125 21.09375 5.265625 
Q 22.359375 3.421875 25.78125 3.421875 
Q 29.296875 3.421875 30.90625 5.484375 
Q 32.515625 7.5625 32.625 12.203125 
L 39.40625 12.203125 
Q 39.015625 5.125 35.546875 1.84375 
Q 32.078125 -1.421875 25 -1.421875 
Q 17.234375 -1.421875 14.015625 2.015625 
Q 10.796875 5.46875 10.796875 13.71875 
z
" id="DejaVuSerif-116"/>
       <path d="M 20.015625 26.421875 
L 46.78125 26.421875 
L 33.40625 61.078125 
z
M -0.59375 0 
L -0.59375 5.171875 
L 5.8125 5.171875 
L 31.78125 72.90625 
L 39.984375 72.90625 
L 66.015625 5.171875 
L 73.1875 5.171875 
L 73.1875 0 
L 46.6875 0 
L 46.6875 5.171875 
L 54.78125 5.171875 
L 48.6875 21.1875 
L 18.015625 21.1875 
L 11.921875 5.171875 
L 19.921875 5.171875 
L 19.921875 0 
z
" id="DejaVuSerif-65"/>
       <path d="M 51.421875 15.578125 
Q 49.515625 7.28125 44.09375 2.921875 
Q 38.671875 -1.421875 30.078125 -1.421875 
Q 18.75 -1.421875 11.859375 6.078125 
Q 4.984375 13.578125 4.984375 25.984375 
Q 4.984375 38.421875 11.859375 45.875 
Q 18.75 53.328125 30.078125 53.328125 
Q 35.015625 53.328125 39.890625 52.171875 
Q 44.78125 51.03125 49.703125 48.6875 
L 49.703125 35.40625 
L 44.484375 35.40625 
Q 43.453125 42.234375 40.015625 45.359375 
Q 36.578125 48.484375 30.171875 48.484375 
Q 22.90625 48.484375 19.1875 42.84375 
Q 15.484375 37.203125 15.484375 25.984375 
Q 15.484375 14.75 19.171875 9.078125 
Q 22.859375 3.421875 30.171875 3.421875 
Q 35.984375 3.421875 39.453125 6.4375 
Q 42.921875 9.46875 44.1875 15.578125 
z
" id="DejaVuSerif-99"/>
       <path d="M 35.40625 51.90625 
L 52.203125 51.90625 
L 52.203125 5.171875 
L 60.6875 5.171875 
L 60.6875 0 
L 43.21875 0 
L 43.21875 9.1875 
Q 40.71875 4 36.765625 1.28125 
Q 32.8125 -1.421875 27.59375 -1.421875 
Q 18.953125 -1.421875 14.875 3.484375 
Q 10.796875 8.40625 10.796875 18.890625 
L 10.796875 46.6875 
L 2.6875 46.6875 
L 2.6875 51.90625 
L 19.828125 51.90625 
L 19.828125 21.6875 
Q 19.828125 12.203125 22.140625 8.6875 
Q 24.46875 5.171875 30.421875 5.171875 
Q 36.671875 5.171875 39.9375 9.765625 
Q 43.21875 14.359375 43.21875 23.09375 
L 43.21875 46.6875 
L 35.40625 46.6875 
z
" id="DejaVuSerif-117"/>
       <path d="M 47.796875 52 
L 47.796875 39.015625 
L 42.625 39.015625 
Q 42.390625 42.875 40.484375 44.78125 
Q 38.578125 46.6875 34.90625 46.6875 
Q 28.265625 46.6875 24.71875 42.09375 
Q 21.1875 37.5 21.1875 28.90625 
L 21.1875 5.171875 
L 31.59375 5.171875 
L 31.59375 0 
L 4.109375 0 
L 4.109375 5.171875 
L 12.203125 5.171875 
L 12.203125 46.78125 
L 3.609375 46.78125 
L 3.609375 51.90625 
L 21.1875 51.90625 
L 21.1875 42.671875 
Q 23.828125 48.09375 27.96875 50.703125 
Q 32.125 53.328125 38.09375 53.328125 
Q 40.28125 53.328125 42.703125 52.984375 
Q 45.125 52.640625 47.796875 52 
z
" id="DejaVuSerif-114"/>
       <path d="M 21.578125 -9.515625 
L 25 -0.875 
L 5.609375 46.6875 
L -0.296875 46.6875 
L -0.296875 51.90625 
L 23.578125 51.90625 
L 23.578125 46.6875 
L 15.28125 46.6875 
L 29.890625 10.984375 
L 44.484375 46.6875 
L 36.71875 46.6875 
L 36.71875 51.90625 
L 56.203125 51.90625 
L 56.203125 46.6875 
L 50.390625 46.6875 
L 26.609375 -11.71875 
Q 24.171875 -17.78125 21.1875 -20 
Q 18.21875 -22.21875 12.796875 -22.21875 
Q 10.5 -22.21875 8.078125 -21.828125 
Q 5.671875 -21.4375 3.21875 -20.703125 
L 3.21875 -10.796875 
L 7.8125 -10.796875 
Q 8.109375 -14.109375 9.5 -15.546875 
Q 10.890625 -17 13.8125 -17 
Q 16.5 -17 18.140625 -15.5 
Q 19.78125 -14.015625 21.578125 -9.515625 
z
" id="DejaVuSerif-121"/>
       <path d="M 22.40625 69.671875 
Q 18.109375 69.671875 15.6875 65.625 
Q 13.28125 61.578125 13.28125 54.296875 
Q 13.28125 47.125 15.75 43.015625 
Q 18.21875 38.921875 22.40625 38.921875 
Q 26.5625 38.921875 28.96875 43 
Q 31.390625 47.078125 31.390625 54.296875 
Q 31.390625 61.53125 28.96875 65.59375 
Q 26.5625 69.671875 22.40625 69.671875 
z
M 72.703125 33.890625 
Q 68.453125 33.890625 66.03125 29.78125 
Q 63.625 25.6875 63.625 18.40625 
Q 63.625 11.234375 66.0625 7.15625 
Q 68.5 3.078125 72.703125 3.078125 
Q 76.90625 3.078125 79.296875 7.15625 
Q 81.6875 11.234375 81.6875 18.40625 
Q 81.6875 25.640625 79.265625 29.765625 
Q 76.859375 33.890625 72.703125 33.890625 
z
M 72.703125 38.28125 
Q 80.421875 38.28125 84.953125 32.90625 
Q 89.5 27.546875 89.5 18.40625 
Q 89.5 9.28125 84.9375 3.921875 
Q 80.375 -1.421875 72.703125 -1.421875 
Q 64.890625 -1.421875 60.34375 3.921875 
Q 55.8125 9.28125 55.8125 18.40625 
Q 55.8125 27.59375 60.375 32.9375 
Q 64.9375 38.28125 72.703125 38.28125 
z
M 66.609375 74.21875 
L 74.03125 74.21875 
L 28.421875 -1.421875 
L 21 -1.421875 
z
M 22.3125 74.21875 
Q 30.03125 74.21875 34.609375 68.875 
Q 39.203125 63.53125 39.203125 54.390625 
Q 39.203125 45.171875 34.640625 39.84375 
Q 30.078125 34.515625 22.3125 34.515625 
Q 14.546875 34.515625 10.03125 39.859375 
Q 5.515625 45.21875 5.515625 54.390625 
Q 5.515625 63.484375 10.046875 68.84375 
Q 14.59375 74.21875 22.3125 74.21875 
z
" id="DejaVuSerif-37"/>
      </defs>
      <use xlink:href="#DejaVuSerif-67"/>
      <use x="76.513672" xlink:href="#DejaVuSerif-105"/>
      <use x="108.496094" xlink:href="#DejaVuSerif-102"/>
      <use x="145.507812" xlink:href="#DejaVuSerif-97"/>
      <use x="205.126953" xlink:href="#DejaVuSerif-49"/>
      <use x="268.75" xlink:href="#DejaVuSerif-48"/>
      <use x="332.373047" xlink:href="#DejaVuSerif-32"/>
      <use x="364.160156" xlink:href="#DejaVuSerif-84"/>
      <use x="423.109375" xlink:href="#DejaVuSerif-101"/>
      <use x="482.289062" xlink:href="#DejaVuSerif-115"/>
      <use x="533.607422" xlink:href="#DejaVuSerif-116"/>
      <use x="573.792969" xlink:href="#DejaVuSerif-32"/>
      <use x="605.580078" xlink:href="#DejaVuSerif-65"/>
      <use x="677.796875" xlink:href="#DejaVuSerif-99"/>
      <use x="733.802734" xlink:href="#DejaVuSerif-99"/>
      <use x="789.808594" xlink:href="#DejaVuSerif-117"/>
      <use x="854.212891" xlink:href="#DejaVuSerif-114"/>
      <use x="902.015625" xlink:href="#DejaVuSerif-97"/>
      <use x="961.634766" xlink:href="#DejaVuSerif-99"/>
      <use x="1017.640625" xlink:href="#DejaVuSerif-121"/>
      <use x="1074.134766" xlink:href="#DejaVuSerif-32"/>
      <use x="1105.921875" xlink:href="#DejaVuSerif-40"/>
      <use x="1144.935547" xlink:href="#DejaVuSerif-37"/>
      <use x="1239.955078" xlink:href="#DejaVuSerif-41"/>
     </g>
    </g>
   </g>
   <g id="line2d_91">
    <path clip-path="url(#pf3ccd61378)" d="M 62.937074 28.964557 
L 84.073438 28.892905 
L 105.209801 28.91598 
L 126.346165 29.079323 
L 147.482528 29.58939 
L 168.618892 30.14257 
L 189.755256 31.310867 
L 210.891619 32.67044 
L 232.027983 35.019179 
L 253.164347 37.724357 
L 274.30071 42.282174 
L 295.437074 45.968625 
L 316.573438 54.869301 
L 337.709801 65.210917 
L 358.846165 75.884076 
L 379.982528 87.378809 
L 401.118892 101.411734 
L 422.255256 122.626893 
L 443.391619 150.01994 
L 464.527983 181.227562 
L 485.664347 205.97008 
L 506.80071 240.715991 
L 527.937074 272.695394 
L 549.073437 297.593968 
L 570.209801 328.842274 
" style="fill:none;stroke:#0c5da5;stroke-linecap:square;stroke-width:2;"/>
   </g>
   <g id="line2d_92">
    <path clip-path="url(#pf3ccd61378)" d="M 62.937074 28.964557 
L 84.073438 62.718266 
L 105.209801 210.337229 
L 126.346165 389.169278 
L 147.482528 472.421382 
L 168.618892 516.627828 
L 189.755256 528.325373 
L 210.891619 532.053723 
L 232.027983 531.878235 
L 253.164347 532.027005 
L 274.30071 531.617737 
L 295.437074 531.255832 
L 316.573438 531.812048 
L 337.709801 530.406327 
L 358.846165 532.280217 
L 379.982528 532.206136 
L 401.118892 532.166666 
L 422.255256 531.365132 
L 443.391619 530.821667 
L 464.527983 531.084595 
L 485.664347 530.581814 
L 506.80071 530.796164 
L 527.937074 531.872163 
L 549.073437 531.80719 
L 570.209801 531.065164 
" style="fill:none;stroke:#00b945;stroke-linecap:square;stroke-width:2;"/>
   </g>
   <g id="line2d_93">
    <path clip-path="url(#pf3ccd61378)" d="M 62.937074 28.964557 
L 84.073438 28.833397 
L 105.209801 31.217355 
L 126.346165 34.810901 
L 147.482528 40.731933 
L 168.618892 50.216757 
L 189.755256 70.738468 
L 210.891619 97.778718 
L 232.027983 143.818371 
L 253.164347 213.065482 
L 274.30071 316.42517 
L 295.437074 422.3188 
L 316.573438 492.275754 
L 337.709801 523.692261 
L 358.846165 525.66938 
L 379.982528 529.315147 
L 401.118892 530.934004 
L 422.255256 530.624927 
L 443.391619 531.241258 
L 464.527983 531.320197 
L 485.664347 531.320197 
L 506.80071 531.320197 
L 527.937074 531.320197 
L 549.073437 531.320197 
L 570.209801 531.320197 
" style="fill:none;stroke:#ff9500;stroke-linecap:square;stroke-width:2;"/>
   </g>
   <g id="line2d_94">
    <path clip-path="url(#pf3ccd61378)" d="M 62.937074 28.964557 
L 84.073438 531.79626 
L 105.209801 531.437999 
L 126.346165 529.726844 
L 147.482528 530.728155 
L 168.618892 528.401276 
L 189.755256 529.684946 
L 210.891619 530.348033 
L 232.027983 531.345094 
L 253.164347 530.966794 
L 274.30071 531.320197 
L 295.437074 531.320197 
L 316.573438 531.320197 
L 337.709801 531.320197 
L 358.846165 531.320197 
L 379.982528 531.320197 
L 401.118892 531.320197 
L 422.255256 531.320197 
L 443.391619 531.320197 
L 464.527983 531.320197 
L 485.664347 531.320197 
L 506.80071 531.320197 
L 527.937074 531.320197 
L 549.073437 531.320197 
L 570.209801 531.320197 
" style="fill:none;stroke:#ff2c00;stroke-linecap:square;stroke-width:2;"/>
   </g>
   <g id="line2d_95">
    <path clip-path="url(#pf3ccd61378)" d="M 62.937074 28.964557 
L 84.073438 29.621573 
L 105.209801 33.484119 
L 126.346165 42.939189 
L 147.482528 63.114175 
L 168.618892 65.02875 
L 189.755256 96.759798 
L 210.891619 123.776366 
L 232.027983 176.166358 
L 253.164347 221.975266 
L 274.30071 307.733379 
L 295.437074 360.929155 
L 316.573438 401.409681 
L 337.709801 436.106407 
L 358.846165 469.744135 
L 379.982528 494.940249 
L 401.118892 495.515897 
L 422.255256 513.260776 
L 443.391619 516.703124 
L 464.527983 521.707249 
L 485.664347 523.145761 
L 506.80071 523.868963 
L 527.937074 525.551578 
L 549.073437 527.300988 
L 570.209801 526.745379 
" style="fill:none;stroke:#845b97;stroke-linecap:square;stroke-width:2;"/>
   </g>
   <g id="line2d_96">
    <path clip-path="url(#pf3ccd61378)" d="M 62.937074 28.964557 
L 84.073438 28.8 
L 105.209801 30.291947 
L 126.346165 33.927999 
L 147.482528 39.662006 
L 168.618892 50.850698 
L 189.755256 67.724213 
L 210.891619 96.857561 
L 232.027983 155.148546 
L 253.164347 244.287677 
L 274.30071 352.58591 
L 295.437074 433.777099 
L 316.573438 494.754439 
L 337.709801 522.93809 
L 358.846165 526.838891 
L 379.982528 529.927228 
L 401.118892 530.844135 
L 422.255256 531.140459 
L 443.391619 531.215148 
L 464.527983 531.320197 
L 485.664347 531.329913 
L 506.80071 531.331735 
L 527.937074 531.309267 
L 549.073437 531.280121 
L 570.209801 531.372419 
" style="fill:none;stroke:#474747;stroke-linecap:square;stroke-width:2;"/>
   </g>
   <g id="line2d_97">
    <path clip-path="url(#pf3ccd61378)" d="M 62.937074 28.964557 
L 84.073438 28.854043 
L 105.209801 30.956856 
L 126.346165 34.303263 
L 147.482528 41.214676 
L 168.618892 51.112411 
L 189.755256 65.359686 
L 210.891619 94.478461 
L 232.027983 136.725398 
L 253.164347 208.326713 
L 274.30071 288.038099 
L 295.437074 412.384631 
L 316.573438 485.530113 
L 337.709801 514.934283 
L 358.846165 525.688203 
L 379.982528 530.208372 
L 401.118892 529.732309 
L 422.255256 531.205432 
L 443.391619 531.229721 
L 464.527983 531.320197 
L 485.664347 531.099775 
L 506.80071 531.320197 
L 527.937074 531.320197 
L 549.073437 531.320197 
L 570.209801 531.320197 
" style="fill:none;stroke:#9e9e9e;stroke-linecap:square;stroke-width:2;"/>
   </g>
   <g id="line2d_98">
    <path clip-path="url(#pf3ccd61378)" d="M 62.937074 28.964557 
L 84.073438 532.655481 
L 105.209801 531.52301 
L 126.346165 531.320197 
L 147.482528 531.320197 
L 168.618892 531.320197 
L 189.755256 531.320197 
L 210.891619 531.320197 
L 232.027983 531.320197 
L 253.164347 531.320197 
L 274.30071 531.320197 
L 295.437074 531.320197 
L 316.573438 531.320197 
L 337.709801 531.320197 
L 358.846165 531.320197 
L 379.982528 531.320197 
L 401.118892 531.320197 
L 422.255256 531.320197 
L 443.391619 531.31959 
L 464.527983 531.320197 
L 485.664347 531.316554 
L 506.80071 531.317161 
L 527.937074 531.308053 
L 549.073437 531.309875 
L 570.209801 531.306838 
" style="fill:none;stroke:#0c5da5;stroke-dasharray:7.4,3.2;stroke-dashoffset:0;stroke-width:2;"/>
   </g>
   <g id="line2d_99">
    <path clip-path="url(#pf3ccd61378)" d="M 62.937074 28.964557 
L 84.073438 532.8 
L 105.209801 532.449025 
L 126.346165 531.320197 
L 147.482528 531.320197 
L 168.618892 531.320197 
L 189.755256 531.320197 
L 210.891619 531.320197 
L 232.027983 531.320197 
L 253.164347 531.320197 
L 274.30071 531.320197 
L 295.437074 531.320197 
L 316.573438 531.320197 
L 337.709801 531.320197 
L 358.846165 531.320197 
L 379.982528 531.320197 
L 401.118892 531.320197 
L 422.255256 531.320197 
L 443.391619 531.320197 
L 464.527983 531.320805 
L 485.664347 531.323234 
L 506.80071 531.314125 
L 527.937074 531.323841 
L 549.073437 531.317161 
L 570.209801 531.329913 
" style="fill:none;stroke:#00b945;stroke-dasharray:7.4,3.2;stroke-dashoffset:0;stroke-width:2;"/>
   </g>
   <g id="line2d_100">
    <path clip-path="url(#pf3ccd61378)" d="M 62.937074 28.964557 
L 84.073438 28.932982 
L 105.209801 31.234357 
L 126.346165 35.396264 
L 147.482528 41.370732 
L 168.618892 54.319156 
L 189.755256 70.060807 
L 210.891619 95.385045 
L 232.027983 141.235851 
L 253.164347 217.997347 
L 274.30071 327.260458 
L 295.437074 436.923729 
L 316.573438 499.560002 
L 337.709801 518.297692 
L 358.846165 528.457748 
L 379.982528 529.821571 
L 401.118892 530.948577 
L 422.255256 531.030552 
L 443.391619 531.215755 
L 464.527983 531.162319 
L 485.664347 531.320197 
L 506.80071 531.320197 
L 527.937074 531.320197 
L 549.073437 531.320197 
L 570.209801 531.320197 
" style="fill:none;stroke:#ff9500;stroke-dasharray:7.4,3.2;stroke-dashoffset:0;stroke-width:2;"/>
   </g>
   <g id="line2d_101">
    <path clip-path="url(#pf3ccd61378)" d="M 62.937074 28.964557 
L 84.073438 531.357845 
L 105.209801 531.716714 
L 126.346165 530.899999 
L 147.482528 530.859315 
L 168.618892 531.270405 
L 189.755256 531.320197 
L 210.891619 531.320197 
L 232.027983 531.320197 
L 253.164347 531.320197 
L 274.30071 531.320197 
L 295.437074 531.320197 
L 316.573438 531.320197 
L 337.709801 531.320197 
L 358.846165 531.320197 
L 379.982528 531.320197 
L 401.118892 531.320197 
L 422.255256 531.320197 
L 443.391619 531.320197 
L 464.527983 531.320197 
L 485.664347 531.320197 
L 506.80071 531.320197 
L 527.937074 531.320197 
L 549.073437 531.320197 
L 570.209801 531.320197 
" style="fill:none;stroke:#ff2c00;stroke-dasharray:7.4,3.2;stroke-dashoffset:0;stroke-width:2;"/>
   </g>
   <g id="line2d_102">
    <path clip-path="url(#pf3ccd61378)" d="M 62.937074 28.964557 
L 84.073438 59.228555 
L 105.209801 171.147659 
L 126.346165 352.961782 
L 147.482528 439.454635 
L 168.618892 488.530403 
L 189.755256 515.724887 
L 210.891619 529.051005 
L 232.027983 530.320708 
L 253.164347 530.269094 
L 274.30071 531.09431 
L 295.437074 531.223649 
L 316.573438 531.246116 
L 337.709801 531.665707 
L 358.846165 530.467049 
L 379.982528 531.768328 
L 401.118892 531.179929 
L 422.255256 531.261297 
L 443.391619 531.997251 
L 464.527983 532.371908 
L 485.664347 531.096739 
L 506.80071 531.619558 
L 527.937074 531.156247 
L 549.073437 531.158069 
L 570.209801 531.936529 
" style="fill:none;stroke:#845b97;stroke-dasharray:7.4,3.2;stroke-dashoffset:0;stroke-width:2;"/>
   </g>
   <g id="patch_3">
    <path d="M 37.573438 558 
L 37.573438 3.6 
" style="fill:none;stroke:#000000;stroke-linecap:square;stroke-linejoin:miter;stroke-width:0.5;"/>
   </g>
   <g id="patch_4">
    <path d="M 595.573437 558 
L 595.573437 3.6 
" style="fill:none;stroke:#000000;stroke-linecap:square;stroke-linejoin:miter;stroke-width:0.5;"/>
   </g>
   <g id="patch_5">
    <path d="M 37.573438 558 
L 595.573437 558 
" style="fill:none;stroke:#000000;stroke-linecap:square;stroke-linejoin:miter;stroke-width:0.5;"/>
   </g>
   <g id="patch_6">
    <path d="M 37.573438 3.6 
L 595.573437 3.6 
" style="fill:none;stroke:#000000;stroke-linecap:square;stroke-linejoin:miter;stroke-width:0.5;"/>
   </g>
   <g id="legend_1">
    <g id="line2d_103">
     <path d="M 450.950938 14.07875 
L 466.950938 14.07875 
" style="fill:none;stroke:#0c5da5;stroke-linecap:square;stroke-width:2;"/>
    </g>
    <g id="line2d_104"/>
    <g id="text_14">
     <!-- ./LeNet-Pattern-01-to-00.csv -->
     <g transform="translate(473.350937 16.87875)scale(0.08 -0.08)">
      <defs>
       <path d="M 9.421875 5.078125 
Q 9.421875 7.8125 11.28125 9.71875 
Q 13.140625 11.625 15.921875 11.625 
Q 18.609375 11.625 20.5 9.71875 
Q 22.40625 7.8125 22.40625 5.078125 
Q 22.40625 2.390625 20.5 0.484375 
Q 18.609375 -1.421875 15.921875 -1.421875 
Q 13.140625 -1.421875 11.28125 0.453125 
Q 9.421875 2.34375 9.421875 5.078125 
z
" id="DejaVuSerif-46"/>
       <path d="M 25.875 72.90625 
L 33.6875 72.90625 
L 7.8125 -9.28125 
L 0 -9.28125 
z
" id="DejaVuSerif-47"/>
       <path d="M 5.515625 0 
L 5.515625 5.171875 
L 14.796875 5.171875 
L 14.796875 67.671875 
L 5.515625 67.671875 
L 5.515625 72.90625 
L 33.984375 72.90625 
L 33.984375 67.671875 
L 24.703125 67.671875 
L 24.703125 6 
L 58.015625 6 
L 58.015625 18.21875 
L 64.015625 18.21875 
L 64.015625 0 
z
" id="DejaVuSerif-76"/>
       <path d="M 4.890625 0 
L 4.890625 5.171875 
L 14.703125 5.171875 
L 14.703125 67.671875 
L 4.890625 67.671875 
L 4.890625 72.90625 
L 23.578125 72.90625 
L 67.28125 15.375 
L 67.28125 67.671875 
L 57.515625 67.671875 
L 57.515625 72.90625 
L 83.109375 72.90625 
L 83.109375 67.671875 
L 73.296875 67.671875 
L 73.296875 -1.421875 
L 67.390625 -1.421875 
L 20.703125 60.015625 
L 20.703125 5.171875 
L 30.515625 5.171875 
L 30.515625 0 
z
" id="DejaVuSerif-78"/>
       <path d="M 4.390625 30.609375 
L 29.390625 30.609375 
L 29.390625 23 
L 4.390625 23 
z
" id="DejaVuSerif-45"/>
       <path d="M 24.703125 37.109375 
L 37.59375 37.109375 
Q 44.875 37.109375 48.671875 41.03125 
Q 52.484375 44.96875 52.484375 52.390625 
Q 52.484375 59.859375 48.671875 63.765625 
Q 44.875 67.671875 37.59375 67.671875 
L 24.703125 67.671875 
z
M 5.515625 0 
L 5.515625 5.171875 
L 14.796875 5.171875 
L 14.796875 67.671875 
L 5.515625 67.671875 
L 5.515625 72.90625 
L 39.984375 72.90625 
Q 50.921875 72.90625 57.3125 67.359375 
Q 63.71875 61.8125 63.71875 52.390625 
Q 63.71875 43.015625 57.3125 37.453125 
Q 50.921875 31.890625 39.984375 31.890625 
L 24.703125 31.890625 
L 24.703125 5.171875 
L 35.984375 5.171875 
L 35.984375 0 
z
" id="DejaVuSerif-80"/>
       <path d="M 4.109375 0 
L 4.109375 5.171875 
L 12.203125 5.171875 
L 12.203125 46.6875 
L 3.609375 46.6875 
L 3.609375 51.90625 
L 21.1875 51.90625 
L 21.1875 42.671875 
Q 23.6875 47.953125 27.65625 50.640625 
Q 31.640625 53.328125 36.921875 53.328125 
Q 45.515625 53.328125 49.5625 48.390625 
Q 53.609375 43.453125 53.609375 33.015625 
L 53.609375 5.171875 
L 61.625 5.171875 
L 61.625 0 
L 36.8125 0 
L 36.8125 5.171875 
L 44.578125 5.171875 
L 44.578125 30.171875 
Q 44.578125 39.703125 42.234375 43.234375 
Q 39.890625 46.78125 33.984375 46.78125 
Q 27.734375 46.78125 24.453125 42.203125 
Q 21.1875 37.640625 21.1875 28.90625 
L 21.1875 5.171875 
L 29 5.171875 
L 29 0 
z
" id="DejaVuSerif-110"/>
       <path d="M 30.078125 3.421875 
Q 37.3125 3.421875 40.984375 9.125 
Q 44.671875 14.84375 44.671875 25.984375 
Q 44.671875 37.109375 40.984375 42.796875 
Q 37.3125 48.484375 30.078125 48.484375 
Q 22.859375 48.484375 19.171875 42.796875 
Q 15.484375 37.109375 15.484375 25.984375 
Q 15.484375 14.84375 19.1875 9.125 
Q 22.90625 3.421875 30.078125 3.421875 
z
M 30.078125 -1.421875 
Q 18.75 -1.421875 11.859375 6.078125 
Q 4.984375 13.578125 4.984375 25.984375 
Q 4.984375 38.375 11.84375 45.84375 
Q 18.703125 53.328125 30.078125 53.328125 
Q 41.453125 53.328125 48.3125 45.84375 
Q 55.171875 38.375 55.171875 25.984375 
Q 55.171875 13.578125 48.3125 6.078125 
Q 41.453125 -1.421875 30.078125 -1.421875 
z
" id="DejaVuSerif-111"/>
       <path d="M 24.703125 0 
L 5.609375 46.6875 
L -0.296875 46.6875 
L -0.296875 51.90625 
L 23.578125 51.90625 
L 23.578125 46.6875 
L 15.28125 46.6875 
L 29.890625 10.984375 
L 44.484375 46.6875 
L 36.71875 46.6875 
L 36.71875 51.90625 
L 56.203125 51.90625 
L 56.203125 46.6875 
L 50.390625 46.6875 
L 31.296875 0 
z
" id="DejaVuSerif-118"/>
      </defs>
      <use xlink:href="#DejaVuSerif-46"/>
      <use x="31.787109" xlink:href="#DejaVuSerif-47"/>
      <use x="65.478516" xlink:href="#DejaVuSerif-76"/>
      <use x="131.884766" xlink:href="#DejaVuSerif-101"/>
      <use x="191.064453" xlink:href="#DejaVuSerif-78"/>
      <use x="278.564453" xlink:href="#DejaVuSerif-101"/>
      <use x="337.744141" xlink:href="#DejaVuSerif-116"/>
      <use x="377.929688" xlink:href="#DejaVuSerif-45"/>
      <use x="411.71875" xlink:href="#DejaVuSerif-80"/>
      <use x="474.503906" xlink:href="#DejaVuSerif-97"/>
      <use x="534.123047" xlink:href="#DejaVuSerif-116"/>
      <use x="574.308594" xlink:href="#DejaVuSerif-116"/>
      <use x="614.494141" xlink:href="#DejaVuSerif-101"/>
      <use x="673.673828" xlink:href="#DejaVuSerif-114"/>
      <use x="721.476562" xlink:href="#DejaVuSerif-110"/>
      <use x="785.880859" xlink:href="#DejaVuSerif-45"/>
      <use x="819.669922" xlink:href="#DejaVuSerif-48"/>
      <use x="883.292969" xlink:href="#DejaVuSerif-49"/>
      <use x="946.916016" xlink:href="#DejaVuSerif-45"/>
      <use x="980.705078" xlink:href="#DejaVuSerif-116"/>
      <use x="1020.890625" xlink:href="#DejaVuSerif-111"/>
      <use x="1081.095703" xlink:href="#DejaVuSerif-45"/>
      <use x="1114.884766" xlink:href="#DejaVuSerif-48"/>
      <use x="1178.507812" xlink:href="#DejaVuSerif-48"/>
      <use x="1242.130859" xlink:href="#DejaVuSerif-46"/>
      <use x="1273.917969" xlink:href="#DejaVuSerif-99"/>
      <use x="1329.923828" xlink:href="#DejaVuSerif-115"/>
      <use x="1381.242188" xlink:href="#DejaVuSerif-118"/>
     </g>
    </g>
    <g id="line2d_105">
     <path d="M 450.950938 25.82125 
L 466.950938 25.82125 
" style="fill:none;stroke:#00b945;stroke-linecap:square;stroke-width:2;"/>
    </g>
    <g id="line2d_106"/>
    <g id="text_15">
     <!-- ./LeNet-Pattern-00-to-10.csv -->
     <g transform="translate(473.350937 28.62125)scale(0.08 -0.08)">
      <use xlink:href="#DejaVuSerif-46"/>
      <use x="31.787109" xlink:href="#DejaVuSerif-47"/>
      <use x="65.478516" xlink:href="#DejaVuSerif-76"/>
      <use x="131.884766" xlink:href="#DejaVuSerif-101"/>
      <use x="191.064453" xlink:href="#DejaVuSerif-78"/>
      <use x="278.564453" xlink:href="#DejaVuSerif-101"/>
      <use x="337.744141" xlink:href="#DejaVuSerif-116"/>
      <use x="377.929688" xlink:href="#DejaVuSerif-45"/>
      <use x="411.71875" xlink:href="#DejaVuSerif-80"/>
      <use x="474.503906" xlink:href="#DejaVuSerif-97"/>
      <use x="534.123047" xlink:href="#DejaVuSerif-116"/>
      <use x="574.308594" xlink:href="#DejaVuSerif-116"/>
      <use x="614.494141" xlink:href="#DejaVuSerif-101"/>
      <use x="673.673828" xlink:href="#DejaVuSerif-114"/>
      <use x="721.476562" xlink:href="#DejaVuSerif-110"/>
      <use x="785.880859" xlink:href="#DejaVuSerif-45"/>
      <use x="819.669922" xlink:href="#DejaVuSerif-48"/>
      <use x="883.292969" xlink:href="#DejaVuSerif-48"/>
      <use x="946.916016" xlink:href="#DejaVuSerif-45"/>
      <use x="980.705078" xlink:href="#DejaVuSerif-116"/>
      <use x="1020.890625" xlink:href="#DejaVuSerif-111"/>
      <use x="1081.095703" xlink:href="#DejaVuSerif-45"/>
      <use x="1114.884766" xlink:href="#DejaVuSerif-49"/>
      <use x="1178.507812" xlink:href="#DejaVuSerif-48"/>
      <use x="1242.130859" xlink:href="#DejaVuSerif-46"/>
      <use x="1273.917969" xlink:href="#DejaVuSerif-99"/>
      <use x="1329.923828" xlink:href="#DejaVuSerif-115"/>
      <use x="1381.242188" xlink:href="#DejaVuSerif-118"/>
     </g>
    </g>
    <g id="line2d_107">
     <path d="M 450.950938 37.56375 
L 466.950938 37.56375 
" style="fill:none;stroke:#ff9500;stroke-linecap:square;stroke-width:2;"/>
    </g>
    <g id="line2d_108"/>
    <g id="text_16">
     <!-- ./LeNet-Pattern-11-to-01.csv -->
     <g transform="translate(473.350937 40.36375)scale(0.08 -0.08)">
      <use xlink:href="#DejaVuSerif-46"/>
      <use x="31.787109" xlink:href="#DejaVuSerif-47"/>
      <use x="65.478516" xlink:href="#DejaVuSerif-76"/>
      <use x="131.884766" xlink:href="#DejaVuSerif-101"/>
      <use x="191.064453" xlink:href="#DejaVuSerif-78"/>
      <use x="278.564453" xlink:href="#DejaVuSerif-101"/>
      <use x="337.744141" xlink:href="#DejaVuSerif-116"/>
      <use x="377.929688" xlink:href="#DejaVuSerif-45"/>
      <use x="411.71875" xlink:href="#DejaVuSerif-80"/>
      <use x="474.503906" xlink:href="#DejaVuSerif-97"/>
      <use x="534.123047" xlink:href="#DejaVuSerif-116"/>
      <use x="574.308594" xlink:href="#DejaVuSerif-116"/>
      <use x="614.494141" xlink:href="#DejaVuSerif-101"/>
      <use x="673.673828" xlink:href="#DejaVuSerif-114"/>
      <use x="721.476562" xlink:href="#DejaVuSerif-110"/>
      <use x="785.880859" xlink:href="#DejaVuSerif-45"/>
      <use x="819.669922" xlink:href="#DejaVuSerif-49"/>
      <use x="883.292969" xlink:href="#DejaVuSerif-49"/>
      <use x="946.916016" xlink:href="#DejaVuSerif-45"/>
      <use x="980.705078" xlink:href="#DejaVuSerif-116"/>
      <use x="1020.890625" xlink:href="#DejaVuSerif-111"/>
      <use x="1081.095703" xlink:href="#DejaVuSerif-45"/>
      <use x="1114.884766" xlink:href="#DejaVuSerif-48"/>
      <use x="1178.507812" xlink:href="#DejaVuSerif-49"/>
      <use x="1242.130859" xlink:href="#DejaVuSerif-46"/>
      <use x="1273.917969" xlink:href="#DejaVuSerif-99"/>
      <use x="1329.923828" xlink:href="#DejaVuSerif-115"/>
      <use x="1381.242188" xlink:href="#DejaVuSerif-118"/>
     </g>
    </g>
    <g id="line2d_109">
     <path d="M 450.950938 49.30625 
L 466.950938 49.30625 
" style="fill:none;stroke:#ff2c00;stroke-linecap:square;stroke-width:2;"/>
    </g>
    <g id="line2d_110"/>
    <g id="text_17">
     <!-- ./LeNet-Pattern-00-to-11.csv -->
     <g transform="translate(473.350937 52.10625)scale(0.08 -0.08)">
      <use xlink:href="#DejaVuSerif-46"/>
      <use x="31.787109" xlink:href="#DejaVuSerif-47"/>
      <use x="65.478516" xlink:href="#DejaVuSerif-76"/>
      <use x="131.884766" xlink:href="#DejaVuSerif-101"/>
      <use x="191.064453" xlink:href="#DejaVuSerif-78"/>
      <use x="278.564453" xlink:href="#DejaVuSerif-101"/>
      <use x="337.744141" xlink:href="#DejaVuSerif-116"/>
      <use x="377.929688" xlink:href="#DejaVuSerif-45"/>
      <use x="411.71875" xlink:href="#DejaVuSerif-80"/>
      <use x="474.503906" xlink:href="#DejaVuSerif-97"/>
      <use x="534.123047" xlink:href="#DejaVuSerif-116"/>
      <use x="574.308594" xlink:href="#DejaVuSerif-116"/>
      <use x="614.494141" xlink:href="#DejaVuSerif-101"/>
      <use x="673.673828" xlink:href="#DejaVuSerif-114"/>
      <use x="721.476562" xlink:href="#DejaVuSerif-110"/>
      <use x="785.880859" xlink:href="#DejaVuSerif-45"/>
      <use x="819.669922" xlink:href="#DejaVuSerif-48"/>
      <use x="883.292969" xlink:href="#DejaVuSerif-48"/>
      <use x="946.916016" xlink:href="#DejaVuSerif-45"/>
      <use x="980.705078" xlink:href="#DejaVuSerif-116"/>
      <use x="1020.890625" xlink:href="#DejaVuSerif-111"/>
      <use x="1081.095703" xlink:href="#DejaVuSerif-45"/>
      <use x="1114.884766" xlink:href="#DejaVuSerif-49"/>
      <use x="1178.507812" xlink:href="#DejaVuSerif-49"/>
      <use x="1242.130859" xlink:href="#DejaVuSerif-46"/>
      <use x="1273.917969" xlink:href="#DejaVuSerif-99"/>
      <use x="1329.923828" xlink:href="#DejaVuSerif-115"/>
      <use x="1381.242188" xlink:href="#DejaVuSerif-118"/>
     </g>
    </g>
    <g id="line2d_111">
     <path d="M 450.950938 61.04875 
L 466.950938 61.04875 
" style="fill:none;stroke:#845b97;stroke-linecap:square;stroke-width:2;"/>
    </g>
    <g id="line2d_112"/>
    <g id="text_18">
     <!-- ./LeNet-Pattern-01-to-10.csv -->
     <g transform="translate(473.350937 63.84875)scale(0.08 -0.08)">
      <use xlink:href="#DejaVuSerif-46"/>
      <use x="31.787109" xlink:href="#DejaVuSerif-47"/>
      <use x="65.478516" xlink:href="#DejaVuSerif-76"/>
      <use x="131.884766" xlink:href="#DejaVuSerif-101"/>
      <use x="191.064453" xlink:href="#DejaVuSerif-78"/>
      <use x="278.564453" xlink:href="#DejaVuSerif-101"/>
      <use x="337.744141" xlink:href="#DejaVuSerif-116"/>
      <use x="377.929688" xlink:href="#DejaVuSerif-45"/>
      <use x="411.71875" xlink:href="#DejaVuSerif-80"/>
      <use x="474.503906" xlink:href="#DejaVuSerif-97"/>
      <use x="534.123047" xlink:href="#DejaVuSerif-116"/>
      <use x="574.308594" xlink:href="#DejaVuSerif-116"/>
      <use x="614.494141" xlink:href="#DejaVuSerif-101"/>
      <use x="673.673828" xlink:href="#DejaVuSerif-114"/>
      <use x="721.476562" xlink:href="#DejaVuSerif-110"/>
      <use x="785.880859" xlink:href="#DejaVuSerif-45"/>
      <use x="819.669922" xlink:href="#DejaVuSerif-48"/>
      <use x="883.292969" xlink:href="#DejaVuSerif-49"/>
      <use x="946.916016" xlink:href="#DejaVuSerif-45"/>
      <use x="980.705078" xlink:href="#DejaVuSerif-116"/>
      <use x="1020.890625" xlink:href="#DejaVuSerif-111"/>
      <use x="1081.095703" xlink:href="#DejaVuSerif-45"/>
      <use x="1114.884766" xlink:href="#DejaVuSerif-49"/>
      <use x="1178.507812" xlink:href="#DejaVuSerif-48"/>
      <use x="1242.130859" xlink:href="#DejaVuSerif-46"/>
      <use x="1273.917969" xlink:href="#DejaVuSerif-99"/>
      <use x="1329.923828" xlink:href="#DejaVuSerif-115"/>
      <use x="1381.242188" xlink:href="#DejaVuSerif-118"/>
     </g>
    </g>
    <g id="line2d_113">
     <path d="M 450.950938 72.79125 
L 466.950938 72.79125 
" style="fill:none;stroke:#474747;stroke-linecap:square;stroke-width:2;"/>
    </g>
    <g id="line2d_114"/>
    <g id="text_19">
     <!-- ./LeNet-Pattern-10-to-00.csv -->
     <g transform="translate(473.350937 75.59125)scale(0.08 -0.08)">
      <use xlink:href="#DejaVuSerif-46"/>
      <use x="31.787109" xlink:href="#DejaVuSerif-47"/>
      <use x="65.478516" xlink:href="#DejaVuSerif-76"/>
      <use x="131.884766" xlink:href="#DejaVuSerif-101"/>
      <use x="191.064453" xlink:href="#DejaVuSerif-78"/>
      <use x="278.564453" xlink:href="#DejaVuSerif-101"/>
      <use x="337.744141" xlink:href="#DejaVuSerif-116"/>
      <use x="377.929688" xlink:href="#DejaVuSerif-45"/>
      <use x="411.71875" xlink:href="#DejaVuSerif-80"/>
      <use x="474.503906" xlink:href="#DejaVuSerif-97"/>
      <use x="534.123047" xlink:href="#DejaVuSerif-116"/>
      <use x="574.308594" xlink:href="#DejaVuSerif-116"/>
      <use x="614.494141" xlink:href="#DejaVuSerif-101"/>
      <use x="673.673828" xlink:href="#DejaVuSerif-114"/>
      <use x="721.476562" xlink:href="#DejaVuSerif-110"/>
      <use x="785.880859" xlink:href="#DejaVuSerif-45"/>
      <use x="819.669922" xlink:href="#DejaVuSerif-49"/>
      <use x="883.292969" xlink:href="#DejaVuSerif-48"/>
      <use x="946.916016" xlink:href="#DejaVuSerif-45"/>
      <use x="980.705078" xlink:href="#DejaVuSerif-116"/>
      <use x="1020.890625" xlink:href="#DejaVuSerif-111"/>
      <use x="1081.095703" xlink:href="#DejaVuSerif-45"/>
      <use x="1114.884766" xlink:href="#DejaVuSerif-48"/>
      <use x="1178.507812" xlink:href="#DejaVuSerif-48"/>
      <use x="1242.130859" xlink:href="#DejaVuSerif-46"/>
      <use x="1273.917969" xlink:href="#DejaVuSerif-99"/>
      <use x="1329.923828" xlink:href="#DejaVuSerif-115"/>
      <use x="1381.242188" xlink:href="#DejaVuSerif-118"/>
     </g>
    </g>
    <g id="line2d_115">
     <path d="M 450.950938 84.53375 
L 466.950938 84.53375 
" style="fill:none;stroke:#9e9e9e;stroke-linecap:square;stroke-width:2;"/>
    </g>
    <g id="line2d_116"/>
    <g id="text_20">
     <!-- ./LeNet-Pattern-11-to-10.csv -->
     <g transform="translate(473.350937 87.33375)scale(0.08 -0.08)">
      <use xlink:href="#DejaVuSerif-46"/>
      <use x="31.787109" xlink:href="#DejaVuSerif-47"/>
      <use x="65.478516" xlink:href="#DejaVuSerif-76"/>
      <use x="131.884766" xlink:href="#DejaVuSerif-101"/>
      <use x="191.064453" xlink:href="#DejaVuSerif-78"/>
      <use x="278.564453" xlink:href="#DejaVuSerif-101"/>
      <use x="337.744141" xlink:href="#DejaVuSerif-116"/>
      <use x="377.929688" xlink:href="#DejaVuSerif-45"/>
      <use x="411.71875" xlink:href="#DejaVuSerif-80"/>
      <use x="474.503906" xlink:href="#DejaVuSerif-97"/>
      <use x="534.123047" xlink:href="#DejaVuSerif-116"/>
      <use x="574.308594" xlink:href="#DejaVuSerif-116"/>
      <use x="614.494141" xlink:href="#DejaVuSerif-101"/>
      <use x="673.673828" xlink:href="#DejaVuSerif-114"/>
      <use x="721.476562" xlink:href="#DejaVuSerif-110"/>
      <use x="785.880859" xlink:href="#DejaVuSerif-45"/>
      <use x="819.669922" xlink:href="#DejaVuSerif-49"/>
      <use x="883.292969" xlink:href="#DejaVuSerif-49"/>
      <use x="946.916016" xlink:href="#DejaVuSerif-45"/>
      <use x="980.705078" xlink:href="#DejaVuSerif-116"/>
      <use x="1020.890625" xlink:href="#DejaVuSerif-111"/>
      <use x="1081.095703" xlink:href="#DejaVuSerif-45"/>
      <use x="1114.884766" xlink:href="#DejaVuSerif-49"/>
      <use x="1178.507812" xlink:href="#DejaVuSerif-48"/>
      <use x="1242.130859" xlink:href="#DejaVuSerif-46"/>
      <use x="1273.917969" xlink:href="#DejaVuSerif-99"/>
      <use x="1329.923828" xlink:href="#DejaVuSerif-115"/>
      <use x="1381.242188" xlink:href="#DejaVuSerif-118"/>
     </g>
    </g>
    <g id="line2d_117">
     <path d="M 450.950938 96.27625 
L 466.950938 96.27625 
" style="fill:none;stroke:#0c5da5;stroke-dasharray:7.4,3.2;stroke-dashoffset:0;stroke-width:2;"/>
    </g>
    <g id="line2d_118"/>
    <g id="text_21">
     <!-- ./LeNet-Pattern-10-to-01.csv -->
     <g transform="translate(473.350937 99.07625)scale(0.08 -0.08)">
      <use xlink:href="#DejaVuSerif-46"/>
      <use x="31.787109" xlink:href="#DejaVuSerif-47"/>
      <use x="65.478516" xlink:href="#DejaVuSerif-76"/>
      <use x="131.884766" xlink:href="#DejaVuSerif-101"/>
      <use x="191.064453" xlink:href="#DejaVuSerif-78"/>
      <use x="278.564453" xlink:href="#DejaVuSerif-101"/>
      <use x="337.744141" xlink:href="#DejaVuSerif-116"/>
      <use x="377.929688" xlink:href="#DejaVuSerif-45"/>
      <use x="411.71875" xlink:href="#DejaVuSerif-80"/>
      <use x="474.503906" xlink:href="#DejaVuSerif-97"/>
      <use x="534.123047" xlink:href="#DejaVuSerif-116"/>
      <use x="574.308594" xlink:href="#DejaVuSerif-116"/>
      <use x="614.494141" xlink:href="#DejaVuSerif-101"/>
      <use x="673.673828" xlink:href="#DejaVuSerif-114"/>
      <use x="721.476562" xlink:href="#DejaVuSerif-110"/>
      <use x="785.880859" xlink:href="#DejaVuSerif-45"/>
      <use x="819.669922" xlink:href="#DejaVuSerif-49"/>
      <use x="883.292969" xlink:href="#DejaVuSerif-48"/>
      <use x="946.916016" xlink:href="#DejaVuSerif-45"/>
      <use x="980.705078" xlink:href="#DejaVuSerif-116"/>
      <use x="1020.890625" xlink:href="#DejaVuSerif-111"/>
      <use x="1081.095703" xlink:href="#DejaVuSerif-45"/>
      <use x="1114.884766" xlink:href="#DejaVuSerif-48"/>
      <use x="1178.507812" xlink:href="#DejaVuSerif-49"/>
      <use x="1242.130859" xlink:href="#DejaVuSerif-46"/>
      <use x="1273.917969" xlink:href="#DejaVuSerif-99"/>
      <use x="1329.923828" xlink:href="#DejaVuSerif-115"/>
      <use x="1381.242188" xlink:href="#DejaVuSerif-118"/>
     </g>
    </g>
    <g id="line2d_119">
     <path d="M 450.950938 108.01875 
L 466.950938 108.01875 
" style="fill:none;stroke:#00b945;stroke-dasharray:7.4,3.2;stroke-dashoffset:0;stroke-width:2;"/>
    </g>
    <g id="line2d_120"/>
    <g id="text_22">
     <!-- ./LeNet-Pattern-00-to-01.csv -->
     <g transform="translate(473.350937 110.81875)scale(0.08 -0.08)">
      <use xlink:href="#DejaVuSerif-46"/>
      <use x="31.787109" xlink:href="#DejaVuSerif-47"/>
      <use x="65.478516" xlink:href="#DejaVuSerif-76"/>
      <use x="131.884766" xlink:href="#DejaVuSerif-101"/>
      <use x="191.064453" xlink:href="#DejaVuSerif-78"/>
      <use x="278.564453" xlink:href="#DejaVuSerif-101"/>
      <use x="337.744141" xlink:href="#DejaVuSerif-116"/>
      <use x="377.929688" xlink:href="#DejaVuSerif-45"/>
      <use x="411.71875" xlink:href="#DejaVuSerif-80"/>
      <use x="474.503906" xlink:href="#DejaVuSerif-97"/>
      <use x="534.123047" xlink:href="#DejaVuSerif-116"/>
      <use x="574.308594" xlink:href="#DejaVuSerif-116"/>
      <use x="614.494141" xlink:href="#DejaVuSerif-101"/>
      <use x="673.673828" xlink:href="#DejaVuSerif-114"/>
      <use x="721.476562" xlink:href="#DejaVuSerif-110"/>
      <use x="785.880859" xlink:href="#DejaVuSerif-45"/>
      <use x="819.669922" xlink:href="#DejaVuSerif-48"/>
      <use x="883.292969" xlink:href="#DejaVuSerif-48"/>
      <use x="946.916016" xlink:href="#DejaVuSerif-45"/>
      <use x="980.705078" xlink:href="#DejaVuSerif-116"/>
      <use x="1020.890625" xlink:href="#DejaVuSerif-111"/>
      <use x="1081.095703" xlink:href="#DejaVuSerif-45"/>
      <use x="1114.884766" xlink:href="#DejaVuSerif-48"/>
      <use x="1178.507812" xlink:href="#DejaVuSerif-49"/>
      <use x="1242.130859" xlink:href="#DejaVuSerif-46"/>
      <use x="1273.917969" xlink:href="#DejaVuSerif-99"/>
      <use x="1329.923828" xlink:href="#DejaVuSerif-115"/>
      <use x="1381.242188" xlink:href="#DejaVuSerif-118"/>
     </g>
    </g>
    <g id="line2d_121">
     <path d="M 450.950938 119.76125 
L 466.950938 119.76125 
" style="fill:none;stroke:#ff9500;stroke-dasharray:7.4,3.2;stroke-dashoffset:0;stroke-width:2;"/>
    </g>
    <g id="line2d_122"/>
    <g id="text_23">
     <!-- ./LeNet-Pattern-11-to-00.csv -->
     <g transform="translate(473.350937 122.56125)scale(0.08 -0.08)">
      <use xlink:href="#DejaVuSerif-46"/>
      <use x="31.787109" xlink:href="#DejaVuSerif-47"/>
      <use x="65.478516" xlink:href="#DejaVuSerif-76"/>
      <use x="131.884766" xlink:href="#DejaVuSerif-101"/>
      <use x="191.064453" xlink:href="#DejaVuSerif-78"/>
      <use x="278.564453" xlink:href="#DejaVuSerif-101"/>
      <use x="337.744141" xlink:href="#DejaVuSerif-116"/>
      <use x="377.929688" xlink:href="#DejaVuSerif-45"/>
      <use x="411.71875" xlink:href="#DejaVuSerif-80"/>
      <use x="474.503906" xlink:href="#DejaVuSerif-97"/>
      <use x="534.123047" xlink:href="#DejaVuSerif-116"/>
      <use x="574.308594" xlink:href="#DejaVuSerif-116"/>
      <use x="614.494141" xlink:href="#DejaVuSerif-101"/>
      <use x="673.673828" xlink:href="#DejaVuSerif-114"/>
      <use x="721.476562" xlink:href="#DejaVuSerif-110"/>
      <use x="785.880859" xlink:href="#DejaVuSerif-45"/>
      <use x="819.669922" xlink:href="#DejaVuSerif-49"/>
      <use x="883.292969" xlink:href="#DejaVuSerif-49"/>
      <use x="946.916016" xlink:href="#DejaVuSerif-45"/>
      <use x="980.705078" xlink:href="#DejaVuSerif-116"/>
      <use x="1020.890625" xlink:href="#DejaVuSerif-111"/>
      <use x="1081.095703" xlink:href="#DejaVuSerif-45"/>
      <use x="1114.884766" xlink:href="#DejaVuSerif-48"/>
      <use x="1178.507812" xlink:href="#DejaVuSerif-48"/>
      <use x="1242.130859" xlink:href="#DejaVuSerif-46"/>
      <use x="1273.917969" xlink:href="#DejaVuSerif-99"/>
      <use x="1329.923828" xlink:href="#DejaVuSerif-115"/>
      <use x="1381.242188" xlink:href="#DejaVuSerif-118"/>
     </g>
    </g>
    <g id="line2d_123">
     <path d="M 450.950938 131.50375 
L 466.950938 131.50375 
" style="fill:none;stroke:#ff2c00;stroke-dasharray:7.4,3.2;stroke-dashoffset:0;stroke-width:2;"/>
    </g>
    <g id="line2d_124"/>
    <g id="text_24">
     <!-- ./LeNet-Pattern-10-to-11.csv -->
     <g transform="translate(473.350937 134.30375)scale(0.08 -0.08)">
      <use xlink:href="#DejaVuSerif-46"/>
      <use x="31.787109" xlink:href="#DejaVuSerif-47"/>
      <use x="65.478516" xlink:href="#DejaVuSerif-76"/>
      <use x="131.884766" xlink:href="#DejaVuSerif-101"/>
      <use x="191.064453" xlink:href="#DejaVuSerif-78"/>
      <use x="278.564453" xlink:href="#DejaVuSerif-101"/>
      <use x="337.744141" xlink:href="#DejaVuSerif-116"/>
      <use x="377.929688" xlink:href="#DejaVuSerif-45"/>
      <use x="411.71875" xlink:href="#DejaVuSerif-80"/>
      <use x="474.503906" xlink:href="#DejaVuSerif-97"/>
      <use x="534.123047" xlink:href="#DejaVuSerif-116"/>
      <use x="574.308594" xlink:href="#DejaVuSerif-116"/>
      <use x="614.494141" xlink:href="#DejaVuSerif-101"/>
      <use x="673.673828" xlink:href="#DejaVuSerif-114"/>
      <use x="721.476562" xlink:href="#DejaVuSerif-110"/>
      <use x="785.880859" xlink:href="#DejaVuSerif-45"/>
      <use x="819.669922" xlink:href="#DejaVuSerif-49"/>
      <use x="883.292969" xlink:href="#DejaVuSerif-48"/>
      <use x="946.916016" xlink:href="#DejaVuSerif-45"/>
      <use x="980.705078" xlink:href="#DejaVuSerif-116"/>
      <use x="1020.890625" xlink:href="#DejaVuSerif-111"/>
      <use x="1081.095703" xlink:href="#DejaVuSerif-45"/>
      <use x="1114.884766" xlink:href="#DejaVuSerif-49"/>
      <use x="1178.507812" xlink:href="#DejaVuSerif-49"/>
      <use x="1242.130859" xlink:href="#DejaVuSerif-46"/>
      <use x="1273.917969" xlink:href="#DejaVuSerif-99"/>
      <use x="1329.923828" xlink:href="#DejaVuSerif-115"/>
      <use x="1381.242188" xlink:href="#DejaVuSerif-118"/>
     </g>
    </g>
    <g id="line2d_125">
     <path d="M 450.950938 143.24625 
L 466.950938 143.24625 
" style="fill:none;stroke:#845b97;stroke-dasharray:7.4,3.2;stroke-dashoffset:0;stroke-width:2;"/>
    </g>
    <g id="line2d_126"/>
    <g id="text_25">
     <!-- ./LeNet-Pattern-01-to-11.csv -->
     <g transform="translate(473.350937 146.04625)scale(0.08 -0.08)">
      <use xlink:href="#DejaVuSerif-46"/>
      <use x="31.787109" xlink:href="#DejaVuSerif-47"/>
      <use x="65.478516" xlink:href="#DejaVuSerif-76"/>
      <use x="131.884766" xlink:href="#DejaVuSerif-101"/>
      <use x="191.064453" xlink:href="#DejaVuSerif-78"/>
      <use x="278.564453" xlink:href="#DejaVuSerif-101"/>
      <use x="337.744141" xlink:href="#DejaVuSerif-116"/>
      <use x="377.929688" xlink:href="#DejaVuSerif-45"/>
      <use x="411.71875" xlink:href="#DejaVuSerif-80"/>
      <use x="474.503906" xlink:href="#DejaVuSerif-97"/>
      <use x="534.123047" xlink:href="#DejaVuSerif-116"/>
      <use x="574.308594" xlink:href="#DejaVuSerif-116"/>
      <use x="614.494141" xlink:href="#DejaVuSerif-101"/>
      <use x="673.673828" xlink:href="#DejaVuSerif-114"/>
      <use x="721.476562" xlink:href="#DejaVuSerif-110"/>
      <use x="785.880859" xlink:href="#DejaVuSerif-45"/>
      <use x="819.669922" xlink:href="#DejaVuSerif-48"/>
      <use x="883.292969" xlink:href="#DejaVuSerif-49"/>
      <use x="946.916016" xlink:href="#DejaVuSerif-45"/>
      <use x="980.705078" xlink:href="#DejaVuSerif-116"/>
      <use x="1020.890625" xlink:href="#DejaVuSerif-111"/>
      <use x="1081.095703" xlink:href="#DejaVuSerif-45"/>
      <use x="1114.884766" xlink:href="#DejaVuSerif-49"/>
      <use x="1178.507812" xlink:href="#DejaVuSerif-49"/>
      <use x="1242.130859" xlink:href="#DejaVuSerif-46"/>
      <use x="1273.917969" xlink:href="#DejaVuSerif-99"/>
      <use x="1329.923828" xlink:href="#DejaVuSerif-115"/>
      <use x="1381.242188" xlink:href="#DejaVuSerif-118"/>
     </g>
    </g>
   </g>
  </g>
 </g>
 <defs>
  <clipPath id="pf3ccd61378">
   <rect height="554.4" width="558" x="37.573438" y="3.6"/>
  </clipPath>
 </defs>
</svg>
