<?xml version="1.0" encoding="utf-8" standalone="no"?>
<!DOCTYPE svg PUBLIC "-//W3C//DTD SVG 1.1//EN"
  "http://www.w3.org/Graphics/SVG/1.1/DTD/svg11.dtd">
<!-- Created with matplotlib (https://matplotlib.org/) -->
<svg height="592.3275pt" version="1.1" viewBox="0 0 599.173438 592.3275" width="599.173438pt" xmlns="http://www.w3.org/2000/svg" xmlns:xlink="http://www.w3.org/1999/xlink">
 <metadata>
  <rdf:RDF xmlns:cc="http://creativecommons.org/ns#" xmlns:dc="http://purl.org/dc/elements/1.1/" xmlns:rdf="http://www.w3.org/1999/02/22-rdf-syntax-ns#">
   <cc:Work>
    <dc:type rdf:resource="http://purl.org/dc/dcmitype/StillImage"/>
    <dc:date>2021-07-07T17:25:29.724787</dc:date>
    <dc:format>image/svg+xml</dc:format>
    <dc:creator>
     <cc:Agent>
      <dc:title>Matplotlib v3.3.4, https://matplotlib.org/</dc:title>
     </cc:Agent>
    </dc:creator>
   </cc:Work>
  </rdf:RDF>
 </metadata>
 <defs>
  <style type="text/css">*{stroke-linecap:butt;stroke-linejoin:round;}</style>
 </defs>
 <g id="figure_1">
  <g id="patch_1">
   <path d="M 0 592.3275 
L 599.173438 592.3275 
L 599.173438 0 
L 0 0 
z
" style="fill:#ffffff;"/>
  </g>
  <g id="axes_1">
   <g id="patch_2">
    <path d="M 37.573438 558 
L 595.573437 558 
L 595.573437 3.6 
L 37.573438 3.6 
z
" style="fill:#ffffff;"/>
   </g>
   <g id="matplotlib.axis_1">
    <g id="xtick_1">
     <g id="line2d_1">
      <defs>
       <path d="M 0 0 
L 0 -3 
" id="m2d02b5a426" style="stroke:#000000;stroke-width:0.5;"/>
      </defs>
      <g>
       <use style="stroke:#000000;stroke-width:0.5;" x="62.937074" xlink:href="#m2d02b5a426" y="558"/>
      </g>
     </g>
     <g id="line2d_2">
      <defs>
       <path d="M 0 0 
L 0 3 
" id="m9d5156646a" style="stroke:#000000;stroke-width:0.5;"/>
      </defs>
      <g>
       <use style="stroke:#000000;stroke-width:0.5;" x="62.937074" xlink:href="#m9d5156646a" y="3.6"/>
      </g>
     </g>
     <g id="text_1">
      <!-- $2^{1}$ -->
      <g transform="translate(57.337074 569.098438)scale(0.1 -0.1)">
       <defs>
        <path d="M 12.796875 55.515625 
L 7.328125 55.515625 
L 7.328125 68.5 
Q 12.546875 71.296875 17.84375 72.75 
Q 23.140625 74.21875 28.21875 74.21875 
Q 39.59375 74.21875 46.1875 68.703125 
Q 52.78125 63.1875 52.78125 53.71875 
Q 52.78125 43.015625 37.84375 28.125 
Q 36.671875 27 36.078125 26.421875 
L 17.671875 8.015625 
L 48.09375 8.015625 
L 48.09375 17 
L 53.8125 17 
L 53.8125 0 
L 6.78125 0 
L 6.78125 5.328125 
L 28.90625 27.390625 
Q 36.234375 34.71875 39.359375 40.84375 
Q 42.484375 46.96875 42.484375 53.71875 
Q 42.484375 61.078125 38.640625 65.234375 
Q 34.8125 69.390625 28.078125 69.390625 
Q 21.09375 69.390625 17.28125 65.921875 
Q 13.484375 62.453125 12.796875 55.515625 
z
" id="DejaVuSerif-50"/>
        <path d="M 14.203125 0 
L 14.203125 5.171875 
L 26.90625 5.171875 
L 26.90625 65.828125 
L 12.203125 56.296875 
L 12.203125 62.703125 
L 29.984375 74.21875 
L 36.71875 74.21875 
L 36.71875 5.171875 
L 49.421875 5.171875 
L 49.421875 0 
z
" id="DejaVuSerif-49"/>
       </defs>
       <use transform="translate(0 0.7125)" xlink:href="#DejaVuSerif-50"/>
       <use transform="translate(64.531406 37.046875)scale(0.7)" xlink:href="#DejaVuSerif-49"/>
      </g>
     </g>
    </g>
    <g id="xtick_2">
     <g id="line2d_3">
      <g>
       <use style="stroke:#000000;stroke-width:0.5;" x="147.482528" xlink:href="#m2d02b5a426" y="558"/>
      </g>
     </g>
     <g id="line2d_4">
      <g>
       <use style="stroke:#000000;stroke-width:0.5;" x="147.482528" xlink:href="#m9d5156646a" y="3.6"/>
      </g>
     </g>
     <g id="text_2">
      <!-- $2^{5}$ -->
      <g transform="translate(141.882528 569.098438)scale(0.1 -0.1)">
       <defs>
        <path d="M 50.296875 72.90625 
L 50.296875 64.890625 
L 16.890625 64.890625 
L 16.890625 44 
Q 19.4375 45.75 22.828125 46.625 
Q 26.21875 47.515625 30.421875 47.515625 
Q 42.234375 47.515625 49.0625 40.96875 
Q 55.90625 34.421875 55.90625 23.09375 
Q 55.90625 11.53125 49 5.046875 
Q 42.09375 -1.421875 29.59375 -1.421875 
Q 24.5625 -1.421875 19.28125 -0.1875 
Q 14.015625 1.03125 8.5 3.515625 
L 8.5 17.671875 
L 14.015625 17.671875 
Q 14.453125 10.75 18.421875 7.078125 
Q 22.40625 3.421875 29.59375 3.421875 
Q 37.3125 3.421875 41.453125 8.5 
Q 45.609375 13.578125 45.609375 23.09375 
Q 45.609375 32.5625 41.484375 37.609375 
Q 37.359375 42.671875 29.59375 42.671875 
Q 25.203125 42.671875 21.84375 41.109375 
Q 18.5 39.546875 15.921875 36.28125 
L 11.71875 36.28125 
L 11.71875 72.90625 
z
" id="DejaVuSerif-53"/>
       </defs>
       <use transform="translate(0 0.63125)" xlink:href="#DejaVuSerif-50"/>
       <use transform="translate(64.531406 36.965625)scale(0.7)" xlink:href="#DejaVuSerif-53"/>
      </g>
     </g>
    </g>
    <g id="xtick_3">
     <g id="line2d_5">
      <g>
       <use style="stroke:#000000;stroke-width:0.5;" x="232.027983" xlink:href="#m2d02b5a426" y="558"/>
      </g>
     </g>
     <g id="line2d_6">
      <g>
       <use style="stroke:#000000;stroke-width:0.5;" x="232.027983" xlink:href="#m9d5156646a" y="3.6"/>
      </g>
     </g>
     <g id="text_3">
      <!-- $2^{9}$ -->
      <g transform="translate(226.427983 569.098438)scale(0.1 -0.1)">
       <defs>
        <path d="M 46.78125 32.671875 
Q 43.5 29 39.25 27.1875 
Q 35.015625 25.390625 29.6875 25.390625 
Q 18.84375 25.390625 12.5625 31.9375 
Q 6.296875 38.484375 6.296875 49.8125 
Q 6.296875 60.890625 13.109375 67.546875 
Q 19.921875 74.21875 31.296875 74.21875 
Q 43.65625 74.21875 50.265625 65.015625 
Q 56.890625 55.8125 56.890625 38.71875 
Q 56.890625 19.578125 49.015625 9.078125 
Q 41.15625 -1.421875 26.90625 -1.421875 
Q 23.046875 -1.421875 18.796875 -0.6875 
Q 14.546875 0.046875 10.109375 1.515625 
L 10.109375 13.625 
L 15.578125 13.625 
Q 16.21875 8.6875 19.390625 6.046875 
Q 22.5625 3.421875 27.875 3.421875 
Q 37.359375 3.421875 41.984375 10.5625 
Q 46.625 17.71875 46.78125 32.671875 
z
M 30.90625 69.390625 
Q 23.96875 69.390625 20.28125 64.328125 
Q 16.609375 59.28125 16.609375 49.8125 
Q 16.609375 40.328125 20.28125 35.25 
Q 23.96875 30.171875 30.90625 30.171875 
Q 37.84375 30.171875 41.53125 35.078125 
Q 45.21875 39.984375 45.21875 49.21875 
Q 45.21875 58.9375 41.5 64.15625 
Q 37.796875 69.390625 30.90625 69.390625 
z
" id="DejaVuSerif-57"/>
       </defs>
       <use transform="translate(0 0.7125)" xlink:href="#DejaVuSerif-50"/>
       <use transform="translate(64.531406 37.046875)scale(0.7)" xlink:href="#DejaVuSerif-57"/>
      </g>
     </g>
    </g>
    <g id="xtick_4">
     <g id="line2d_7">
      <g>
       <use style="stroke:#000000;stroke-width:0.5;" x="316.573438" xlink:href="#m2d02b5a426" y="558"/>
      </g>
     </g>
     <g id="line2d_8">
      <g>
       <use style="stroke:#000000;stroke-width:0.5;" x="316.573438" xlink:href="#m9d5156646a" y="3.6"/>
      </g>
     </g>
     <g id="text_4">
      <!-- $2^{13}$ -->
      <g transform="translate(308.723437 569.098438)scale(0.1 -0.1)">
       <defs>
        <path d="M 9.71875 69.828125 
Q 15.4375 71.96875 20.671875 73.09375 
Q 25.921875 74.21875 30.515625 74.21875 
Q 41.21875 74.21875 47.21875 69.59375 
Q 53.21875 64.984375 53.21875 56.78125 
Q 53.21875 50.203125 49.0625 45.78125 
Q 44.921875 41.359375 37.3125 39.796875 
Q 46.296875 38.53125 51.25 33.28125 
Q 56.203125 28.03125 56.203125 19.671875 
Q 56.203125 9.46875 49.34375 4.015625 
Q 42.484375 -1.421875 29.59375 -1.421875 
Q 23.875 -1.421875 18.421875 -0.1875 
Q 12.984375 1.03125 7.625 3.515625 
L 7.625 17.671875 
L 13.09375 17.671875 
Q 13.578125 10.640625 17.828125 7.03125 
Q 22.078125 3.421875 29.78125 3.421875 
Q 37.25 3.421875 41.578125 7.734375 
Q 45.90625 12.0625 45.90625 19.578125 
Q 45.90625 28.171875 41.453125 32.59375 
Q 37.015625 37.015625 28.421875 37.015625 
L 23.78125 37.015625 
L 23.78125 42 
L 26.21875 42 
Q 34.765625 42 39.03125 45.53125 
Q 43.3125 49.078125 43.3125 56.203125 
Q 43.3125 62.59375 39.796875 65.984375 
Q 36.28125 69.390625 29.6875 69.390625 
Q 23.09375 69.390625 19.453125 66.265625 
Q 15.828125 63.140625 15.1875 56.984375 
L 9.71875 56.984375 
z
" id="DejaVuSerif-51"/>
       </defs>
       <use transform="translate(0 0.7125)" xlink:href="#DejaVuSerif-50"/>
       <use transform="translate(64.531406 37.046875)scale(0.7)" xlink:href="#DejaVuSerif-49"/>
       <use transform="translate(109.067539 37.046875)scale(0.7)" xlink:href="#DejaVuSerif-51"/>
      </g>
     </g>
    </g>
    <g id="xtick_5">
     <g id="line2d_9">
      <g>
       <use style="stroke:#000000;stroke-width:0.5;" x="401.118892" xlink:href="#m2d02b5a426" y="558"/>
      </g>
     </g>
     <g id="line2d_10">
      <g>
       <use style="stroke:#000000;stroke-width:0.5;" x="401.118892" xlink:href="#m9d5156646a" y="3.6"/>
      </g>
     </g>
     <g id="text_5">
      <!-- $2^{17}$ -->
      <g transform="translate(393.268892 569.098438)scale(0.1 -0.1)">
       <defs>
        <path d="M 56.390625 67.921875 
L 27.875 0 
L 20.609375 0 
L 47.796875 64.890625 
L 14.109375 64.890625 
L 14.109375 55.90625 
L 8.40625 55.90625 
L 8.40625 72.90625 
L 56.390625 72.90625 
z
" id="DejaVuSerif-55"/>
       </defs>
       <use transform="translate(0 0.7125)" xlink:href="#DejaVuSerif-50"/>
       <use transform="translate(64.531406 37.046875)scale(0.7)" xlink:href="#DejaVuSerif-49"/>
       <use transform="translate(109.067539 37.046875)scale(0.7)" xlink:href="#DejaVuSerif-55"/>
      </g>
     </g>
    </g>
    <g id="xtick_6">
     <g id="line2d_11">
      <g>
       <use style="stroke:#000000;stroke-width:0.5;" x="485.664347" xlink:href="#m2d02b5a426" y="558"/>
      </g>
     </g>
     <g id="line2d_12">
      <g>
       <use style="stroke:#000000;stroke-width:0.5;" x="485.664347" xlink:href="#m9d5156646a" y="3.6"/>
      </g>
     </g>
     <g id="text_6">
      <!-- $2^{21}$ -->
      <g transform="translate(477.814347 569.098438)scale(0.1 -0.1)">
       <use transform="translate(0 0.7125)" xlink:href="#DejaVuSerif-50"/>
       <use transform="translate(64.531406 37.046875)scale(0.7)" xlink:href="#DejaVuSerif-50"/>
       <use transform="translate(109.067539 37.046875)scale(0.7)" xlink:href="#DejaVuSerif-49"/>
      </g>
     </g>
    </g>
    <g id="xtick_7">
     <g id="line2d_13">
      <g>
       <use style="stroke:#000000;stroke-width:0.5;" x="570.209801" xlink:href="#m2d02b5a426" y="558"/>
      </g>
     </g>
     <g id="line2d_14">
      <g>
       <use style="stroke:#000000;stroke-width:0.5;" x="570.209801" xlink:href="#m9d5156646a" y="3.6"/>
      </g>
     </g>
     <g id="text_7">
      <!-- $2^{25}$ -->
      <g transform="translate(562.359801 569.098438)scale(0.1 -0.1)">
       <use transform="translate(0 0.7125)" xlink:href="#DejaVuSerif-50"/>
       <use transform="translate(64.531406 37.046875)scale(0.7)" xlink:href="#DejaVuSerif-50"/>
       <use transform="translate(109.067539 37.046875)scale(0.7)" xlink:href="#DejaVuSerif-53"/>
      </g>
     </g>
    </g>
    <g id="xtick_8">
     <g id="line2d_15">
      <defs>
       <path d="M 0 0 
L 0 -1.5 
" id="m67e1017a3c" style="stroke:#000000;stroke-width:0.5;"/>
      </defs>
      <g>
       <use style="stroke:#000000;stroke-width:0.5;" x="41.80071" xlink:href="#m67e1017a3c" y="558"/>
      </g>
     </g>
     <g id="line2d_16">
      <defs>
       <path d="M 0 0 
L 0 1.5 
" id="m9c13b4c416" style="stroke:#000000;stroke-width:0.5;"/>
      </defs>
      <g>
       <use style="stroke:#000000;stroke-width:0.5;" x="41.80071" xlink:href="#m9c13b4c416" y="3.6"/>
      </g>
     </g>
    </g>
    <g id="xtick_9">
     <g id="line2d_17">
      <g>
       <use style="stroke:#000000;stroke-width:0.5;" x="84.073438" xlink:href="#m67e1017a3c" y="558"/>
      </g>
     </g>
     <g id="line2d_18">
      <g>
       <use style="stroke:#000000;stroke-width:0.5;" x="84.073438" xlink:href="#m9c13b4c416" y="3.6"/>
      </g>
     </g>
    </g>
    <g id="xtick_10">
     <g id="line2d_19">
      <g>
       <use style="stroke:#000000;stroke-width:0.5;" x="105.209801" xlink:href="#m67e1017a3c" y="558"/>
      </g>
     </g>
     <g id="line2d_20">
      <g>
       <use style="stroke:#000000;stroke-width:0.5;" x="105.209801" xlink:href="#m9c13b4c416" y="3.6"/>
      </g>
     </g>
    </g>
    <g id="xtick_11">
     <g id="line2d_21">
      <g>
       <use style="stroke:#000000;stroke-width:0.5;" x="126.346165" xlink:href="#m67e1017a3c" y="558"/>
      </g>
     </g>
     <g id="line2d_22">
      <g>
       <use style="stroke:#000000;stroke-width:0.5;" x="126.346165" xlink:href="#m9c13b4c416" y="3.6"/>
      </g>
     </g>
    </g>
    <g id="xtick_12">
     <g id="line2d_23">
      <g>
       <use style="stroke:#000000;stroke-width:0.5;" x="168.618892" xlink:href="#m67e1017a3c" y="558"/>
      </g>
     </g>
     <g id="line2d_24">
      <g>
       <use style="stroke:#000000;stroke-width:0.5;" x="168.618892" xlink:href="#m9c13b4c416" y="3.6"/>
      </g>
     </g>
    </g>
    <g id="xtick_13">
     <g id="line2d_25">
      <g>
       <use style="stroke:#000000;stroke-width:0.5;" x="189.755256" xlink:href="#m67e1017a3c" y="558"/>
      </g>
     </g>
     <g id="line2d_26">
      <g>
       <use style="stroke:#000000;stroke-width:0.5;" x="189.755256" xlink:href="#m9c13b4c416" y="3.6"/>
      </g>
     </g>
    </g>
    <g id="xtick_14">
     <g id="line2d_27">
      <g>
       <use style="stroke:#000000;stroke-width:0.5;" x="210.891619" xlink:href="#m67e1017a3c" y="558"/>
      </g>
     </g>
     <g id="line2d_28">
      <g>
       <use style="stroke:#000000;stroke-width:0.5;" x="210.891619" xlink:href="#m9c13b4c416" y="3.6"/>
      </g>
     </g>
    </g>
    <g id="xtick_15">
     <g id="line2d_29">
      <g>
       <use style="stroke:#000000;stroke-width:0.5;" x="253.164347" xlink:href="#m67e1017a3c" y="558"/>
      </g>
     </g>
     <g id="line2d_30">
      <g>
       <use style="stroke:#000000;stroke-width:0.5;" x="253.164347" xlink:href="#m9c13b4c416" y="3.6"/>
      </g>
     </g>
    </g>
    <g id="xtick_16">
     <g id="line2d_31">
      <g>
       <use style="stroke:#000000;stroke-width:0.5;" x="274.30071" xlink:href="#m67e1017a3c" y="558"/>
      </g>
     </g>
     <g id="line2d_32">
      <g>
       <use style="stroke:#000000;stroke-width:0.5;" x="274.30071" xlink:href="#m9c13b4c416" y="3.6"/>
      </g>
     </g>
    </g>
    <g id="xtick_17">
     <g id="line2d_33">
      <g>
       <use style="stroke:#000000;stroke-width:0.5;" x="295.437074" xlink:href="#m67e1017a3c" y="558"/>
      </g>
     </g>
     <g id="line2d_34">
      <g>
       <use style="stroke:#000000;stroke-width:0.5;" x="295.437074" xlink:href="#m9c13b4c416" y="3.6"/>
      </g>
     </g>
    </g>
    <g id="xtick_18">
     <g id="line2d_35">
      <g>
       <use style="stroke:#000000;stroke-width:0.5;" x="337.709801" xlink:href="#m67e1017a3c" y="558"/>
      </g>
     </g>
     <g id="line2d_36">
      <g>
       <use style="stroke:#000000;stroke-width:0.5;" x="337.709801" xlink:href="#m9c13b4c416" y="3.6"/>
      </g>
     </g>
    </g>
    <g id="xtick_19">
     <g id="line2d_37">
      <g>
       <use style="stroke:#000000;stroke-width:0.5;" x="358.846165" xlink:href="#m67e1017a3c" y="558"/>
      </g>
     </g>
     <g id="line2d_38">
      <g>
       <use style="stroke:#000000;stroke-width:0.5;" x="358.846165" xlink:href="#m9c13b4c416" y="3.6"/>
      </g>
     </g>
    </g>
    <g id="xtick_20">
     <g id="line2d_39">
      <g>
       <use style="stroke:#000000;stroke-width:0.5;" x="379.982528" xlink:href="#m67e1017a3c" y="558"/>
      </g>
     </g>
     <g id="line2d_40">
      <g>
       <use style="stroke:#000000;stroke-width:0.5;" x="379.982528" xlink:href="#m9c13b4c416" y="3.6"/>
      </g>
     </g>
    </g>
    <g id="xtick_21">
     <g id="line2d_41">
      <g>
       <use style="stroke:#000000;stroke-width:0.5;" x="422.255256" xlink:href="#m67e1017a3c" y="558"/>
      </g>
     </g>
     <g id="line2d_42">
      <g>
       <use style="stroke:#000000;stroke-width:0.5;" x="422.255256" xlink:href="#m9c13b4c416" y="3.6"/>
      </g>
     </g>
    </g>
    <g id="xtick_22">
     <g id="line2d_43">
      <g>
       <use style="stroke:#000000;stroke-width:0.5;" x="443.391619" xlink:href="#m67e1017a3c" y="558"/>
      </g>
     </g>
     <g id="line2d_44">
      <g>
       <use style="stroke:#000000;stroke-width:0.5;" x="443.391619" xlink:href="#m9c13b4c416" y="3.6"/>
      </g>
     </g>
    </g>
    <g id="xtick_23">
     <g id="line2d_45">
      <g>
       <use style="stroke:#000000;stroke-width:0.5;" x="464.527983" xlink:href="#m67e1017a3c" y="558"/>
      </g>
     </g>
     <g id="line2d_46">
      <g>
       <use style="stroke:#000000;stroke-width:0.5;" x="464.527983" xlink:href="#m9c13b4c416" y="3.6"/>
      </g>
     </g>
    </g>
    <g id="xtick_24">
     <g id="line2d_47">
      <g>
       <use style="stroke:#000000;stroke-width:0.5;" x="506.80071" xlink:href="#m67e1017a3c" y="558"/>
      </g>
     </g>
     <g id="line2d_48">
      <g>
       <use style="stroke:#000000;stroke-width:0.5;" x="506.80071" xlink:href="#m9c13b4c416" y="3.6"/>
      </g>
     </g>
    </g>
    <g id="xtick_25">
     <g id="line2d_49">
      <g>
       <use style="stroke:#000000;stroke-width:0.5;" x="527.937074" xlink:href="#m67e1017a3c" y="558"/>
      </g>
     </g>
     <g id="line2d_50">
      <g>
       <use style="stroke:#000000;stroke-width:0.5;" x="527.937074" xlink:href="#m9c13b4c416" y="3.6"/>
      </g>
     </g>
    </g>
    <g id="xtick_26">
     <g id="line2d_51">
      <g>
       <use style="stroke:#000000;stroke-width:0.5;" x="549.073437" xlink:href="#m67e1017a3c" y="558"/>
      </g>
     </g>
     <g id="line2d_52">
      <g>
       <use style="stroke:#000000;stroke-width:0.5;" x="549.073437" xlink:href="#m9c13b4c416" y="3.6"/>
      </g>
     </g>
    </g>
    <g id="xtick_27">
     <g id="line2d_53">
      <g>
       <use style="stroke:#000000;stroke-width:0.5;" x="591.346165" xlink:href="#m67e1017a3c" y="558"/>
      </g>
     </g>
     <g id="line2d_54">
      <g>
       <use style="stroke:#000000;stroke-width:0.5;" x="591.346165" xlink:href="#m9c13b4c416" y="3.6"/>
      </g>
     </g>
    </g>
    <g id="text_8">
     <!-- Time (s) -->
     <g transform="translate(287.605469 585.815938)scale(0.14 -0.14)">
      <defs>
       <path d="M 19.09375 0 
L 19.09375 5.171875 
L 28.421875 5.171875 
L 28.421875 67.09375 
L 6.984375 67.09375 
L 6.984375 55.71875 
L 0.984375 55.71875 
L 0.984375 72.90625 
L 65.71875 72.90625 
L 65.71875 55.71875 
L 59.71875 55.71875 
L 59.71875 67.09375 
L 38.28125 67.09375 
L 38.28125 5.171875 
L 47.609375 5.171875 
L 47.609375 0 
z
" id="DejaVuSerif-84"/>
       <path d="M 9.71875 68.015625 
Q 9.71875 70.265625 11.34375 71.921875 
Q 12.984375 73.578125 15.28125 73.578125 
Q 17.53125 73.578125 19.15625 71.921875 
Q 20.796875 70.265625 20.796875 68.015625 
Q 20.796875 65.71875 19.1875 64.109375 
Q 17.578125 62.5 15.28125 62.5 
Q 12.984375 62.5 11.34375 64.109375 
Q 9.71875 65.71875 9.71875 68.015625 
z
M 21.1875 5.171875 
L 29.6875 5.171875 
L 29.6875 0 
L 3.609375 0 
L 3.609375 5.171875 
L 12.203125 5.171875 
L 12.203125 46.6875 
L 3.609375 46.6875 
L 3.609375 51.90625 
L 21.1875 51.90625 
z
" id="DejaVuSerif-105"/>
       <path d="M 51.8125 41.796875 
Q 54.390625 47.515625 58.421875 50.421875 
Q 62.453125 53.328125 67.828125 53.328125 
Q 75.984375 53.328125 79.984375 48.265625 
Q 83.984375 43.21875 83.984375 33.015625 
L 83.984375 5.171875 
L 92.09375 5.171875 
L 92.09375 0 
L 67.1875 0 
L 67.1875 5.171875 
L 75 5.171875 
L 75 31.984375 
Q 75 39.9375 72.65625 43.3125 
Q 70.3125 46.6875 64.890625 46.6875 
Q 58.890625 46.6875 55.734375 42.140625 
Q 52.59375 37.59375 52.59375 28.90625 
L 52.59375 5.171875 
L 60.40625 5.171875 
L 60.40625 0 
L 35.796875 0 
L 35.796875 5.171875 
L 43.609375 5.171875 
L 43.609375 32.328125 
Q 43.609375 40.09375 41.265625 43.390625 
Q 38.921875 46.6875 33.5 46.6875 
Q 27.484375 46.6875 24.328125 42.140625 
Q 21.1875 37.59375 21.1875 28.90625 
L 21.1875 5.171875 
L 29 5.171875 
L 29 0 
L 4.109375 0 
L 4.109375 5.171875 
L 12.203125 5.171875 
L 12.203125 46.78125 
L 3.609375 46.78125 
L 3.609375 51.90625 
L 21.1875 51.90625 
L 21.1875 42.671875 
Q 23.6875 47.859375 27.53125 50.59375 
Q 31.390625 53.328125 36.28125 53.328125 
Q 42.328125 53.328125 46.375 50.3125 
Q 50.4375 47.3125 51.8125 41.796875 
z
" id="DejaVuSerif-109"/>
       <path d="M 54.203125 25 
L 15.484375 25 
L 15.484375 24.609375 
Q 15.484375 14.109375 19.4375 8.765625 
Q 23.390625 3.421875 31.109375 3.421875 
Q 37.015625 3.421875 40.796875 6.515625 
Q 44.578125 9.625 46.09375 15.71875 
L 53.328125 15.71875 
Q 51.171875 7.171875 45.375 2.875 
Q 39.59375 -1.421875 30.171875 -1.421875 
Q 18.796875 -1.421875 11.890625 6.078125 
Q 4.984375 13.578125 4.984375 25.984375 
Q 4.984375 38.28125 11.765625 45.796875 
Q 18.5625 53.328125 29.59375 53.328125 
Q 41.359375 53.328125 47.65625 46.0625 
Q 53.953125 38.8125 54.203125 25 
z
M 43.609375 30.171875 
Q 43.3125 39.265625 39.765625 43.875 
Q 36.234375 48.484375 29.59375 48.484375 
Q 23.390625 48.484375 19.828125 43.84375 
Q 16.265625 39.203125 15.484375 30.171875 
z
" id="DejaVuSerif-101"/>
       <path id="DejaVuSerif-32"/>
       <path d="M 31.890625 -15.578125 
Q 20.015625 -10.25 13.953125 1.296875 
Q 7.90625 12.84375 7.90625 30.171875 
Q 7.90625 47.5625 13.953125 59.109375 
Q 20.015625 70.65625 31.890625 75.984375 
L 31.890625 71.1875 
Q 24.359375 66.015625 21.09375 56.609375 
Q 17.828125 47.21875 17.828125 30.171875 
Q 17.828125 13.1875 21.09375 3.78125 
Q 24.359375 -5.609375 31.890625 -10.796875 
z
" id="DejaVuSerif-40"/>
       <path d="M 5.609375 2.875 
L 5.609375 14.984375 
L 10.796875 14.984375 
Q 10.984375 9.1875 14.421875 6.296875 
Q 17.875 3.421875 24.609375 3.421875 
Q 30.671875 3.421875 33.84375 5.6875 
Q 37.015625 7.953125 37.015625 12.3125 
Q 37.015625 15.71875 34.6875 17.8125 
Q 32.375 19.921875 24.90625 22.3125 
L 18.40625 24.515625 
Q 11.71875 26.65625 8.71875 29.875 
Q 5.71875 33.109375 5.71875 38.09375 
Q 5.71875 45.21875 10.9375 49.265625 
Q 16.15625 53.328125 25.390625 53.328125 
Q 29.5 53.328125 34.03125 52.25 
Q 38.578125 51.171875 43.40625 49.125 
L 43.40625 37.796875 
L 38.234375 37.796875 
Q 38.03125 42.828125 34.703125 45.65625 
Q 31.390625 48.484375 25.6875 48.484375 
Q 20.015625 48.484375 17.109375 46.484375 
Q 14.203125 44.484375 14.203125 40.484375 
Q 14.203125 37.203125 16.40625 35.21875 
Q 18.609375 33.25 25.203125 31.203125 
L 32.328125 29 
Q 39.703125 26.703125 42.9375 23.265625 
Q 46.1875 19.828125 46.1875 14.40625 
Q 46.1875 7.03125 40.546875 2.796875 
Q 34.90625 -1.421875 25 -1.421875 
Q 19.96875 -1.421875 15.1875 -0.34375 
Q 10.40625 0.734375 5.609375 2.875 
z
" id="DejaVuSerif-115"/>
       <path d="M 7.078125 -15.578125 
L 7.078125 -10.796875 
Q 14.59375 -5.609375 17.890625 3.78125 
Q 21.1875 13.1875 21.1875 30.171875 
Q 21.1875 47.21875 17.890625 56.609375 
Q 14.59375 66.015625 7.078125 71.1875 
L 7.078125 75.984375 
Q 19 70.65625 25.046875 59.109375 
Q 31.109375 47.5625 31.109375 30.171875 
Q 31.109375 12.84375 25.046875 1.296875 
Q 19 -10.25 7.078125 -15.578125 
z
" id="DejaVuSerif-41"/>
      </defs>
      <use xlink:href="#DejaVuSerif-84"/>
      <use x="66.699219" xlink:href="#DejaVuSerif-105"/>
      <use x="98.681641" xlink:href="#DejaVuSerif-109"/>
      <use x="193.505859" xlink:href="#DejaVuSerif-101"/>
      <use x="252.685547" xlink:href="#DejaVuSerif-32"/>
      <use x="284.472656" xlink:href="#DejaVuSerif-40"/>
      <use x="323.486328" xlink:href="#DejaVuSerif-115"/>
      <use x="374.804688" xlink:href="#DejaVuSerif-41"/>
     </g>
    </g>
   </g>
   <g id="matplotlib.axis_2">
    <g id="ytick_1">
     <g id="line2d_55">
      <defs>
       <path d="M 0 0 
L 3 0 
" id="m17169e3e70" style="stroke:#000000;stroke-width:0.5;"/>
      </defs>
      <g>
       <use style="stroke:#000000;stroke-width:0.5;" x="37.573438" xlink:href="#m17169e3e70" y="532.262751"/>
      </g>
     </g>
     <g id="line2d_56">
      <defs>
       <path d="M 0 0 
L -3 0 
" id="mabe567e117" style="stroke:#000000;stroke-width:0.5;"/>
      </defs>
      <g>
       <use style="stroke:#000000;stroke-width:0.5;" x="595.573437" xlink:href="#mabe567e117" y="532.262751"/>
      </g>
     </g>
     <g id="text_9">
      <!-- 10 -->
      <g transform="translate(21.348438 536.06197)scale(0.1 -0.1)">
       <defs>
        <path d="M 31.78125 3.421875 
Q 39.265625 3.421875 42.96875 11.625 
Q 46.6875 19.828125 46.6875 36.375 
Q 46.6875 52.984375 42.96875 61.1875 
Q 39.265625 69.390625 31.78125 69.390625 
Q 24.3125 69.390625 20.59375 61.1875 
Q 16.890625 52.984375 16.890625 36.375 
Q 16.890625 19.828125 20.59375 11.625 
Q 24.3125 3.421875 31.78125 3.421875 
z
M 31.78125 -1.421875 
Q 19.921875 -1.421875 13.25 8.53125 
Q 6.59375 18.5 6.59375 36.375 
Q 6.59375 54.296875 13.25 64.25 
Q 19.921875 74.21875 31.78125 74.21875 
Q 43.703125 74.21875 50.34375 64.25 
Q 56.984375 54.296875 56.984375 36.375 
Q 56.984375 18.5 50.34375 8.53125 
Q 43.703125 -1.421875 31.78125 -1.421875 
z
" id="DejaVuSerif-48"/>
       </defs>
       <use xlink:href="#DejaVuSerif-49"/>
       <use x="63.623047" xlink:href="#DejaVuSerif-48"/>
      </g>
     </g>
    </g>
    <g id="ytick_2">
     <g id="line2d_57">
      <g>
       <use style="stroke:#000000;stroke-width:0.5;" x="37.573438" xlink:href="#m17169e3e70" y="469.936883"/>
      </g>
     </g>
     <g id="line2d_58">
      <g>
       <use style="stroke:#000000;stroke-width:0.5;" x="595.573437" xlink:href="#mabe567e117" y="469.936883"/>
      </g>
     </g>
     <g id="text_10">
      <!-- 20 -->
      <g transform="translate(21.348438 473.736102)scale(0.1 -0.1)">
       <use xlink:href="#DejaVuSerif-50"/>
       <use x="63.623047" xlink:href="#DejaVuSerif-48"/>
      </g>
     </g>
    </g>
    <g id="ytick_3">
     <g id="line2d_59">
      <g>
       <use style="stroke:#000000;stroke-width:0.5;" x="37.573438" xlink:href="#m17169e3e70" y="407.611015"/>
      </g>
     </g>
     <g id="line2d_60">
      <g>
       <use style="stroke:#000000;stroke-width:0.5;" x="595.573437" xlink:href="#mabe567e117" y="407.611015"/>
      </g>
     </g>
     <g id="text_11">
      <!-- 30 -->
      <g transform="translate(21.348438 411.410234)scale(0.1 -0.1)">
       <use xlink:href="#DejaVuSerif-51"/>
       <use x="63.623047" xlink:href="#DejaVuSerif-48"/>
      </g>
     </g>
    </g>
    <g id="ytick_4">
     <g id="line2d_61">
      <g>
       <use style="stroke:#000000;stroke-width:0.5;" x="37.573438" xlink:href="#m17169e3e70" y="345.285148"/>
      </g>
     </g>
     <g id="line2d_62">
      <g>
       <use style="stroke:#000000;stroke-width:0.5;" x="595.573437" xlink:href="#mabe567e117" y="345.285148"/>
      </g>
     </g>
     <g id="text_12">
      <!-- 40 -->
      <g transform="translate(21.348438 349.084366)scale(0.1 -0.1)">
       <defs>
        <path d="M 34.90625 24.703125 
L 34.90625 63.484375 
L 10.015625 24.703125 
z
M 56.390625 0 
L 23.1875 0 
L 23.1875 5.171875 
L 34.90625 5.171875 
L 34.90625 19.484375 
L 3.078125 19.484375 
L 3.078125 24.8125 
L 35.015625 74.21875 
L 44.671875 74.21875 
L 44.671875 24.703125 
L 58.59375 24.703125 
L 58.59375 19.484375 
L 44.671875 19.484375 
L 44.671875 5.171875 
L 56.390625 5.171875 
z
" id="DejaVuSerif-52"/>
       </defs>
       <use xlink:href="#DejaVuSerif-52"/>
       <use x="63.623047" xlink:href="#DejaVuSerif-48"/>
      </g>
     </g>
    </g>
    <g id="ytick_5">
     <g id="line2d_63">
      <g>
       <use style="stroke:#000000;stroke-width:0.5;" x="37.573438" xlink:href="#m17169e3e70" y="282.95928"/>
      </g>
     </g>
     <g id="line2d_64">
      <g>
       <use style="stroke:#000000;stroke-width:0.5;" x="595.573437" xlink:href="#mabe567e117" y="282.95928"/>
      </g>
     </g>
     <g id="text_13">
      <!-- 50 -->
      <g transform="translate(21.348438 286.758498)scale(0.1 -0.1)">
       <use xlink:href="#DejaVuSerif-53"/>
       <use x="63.623047" xlink:href="#DejaVuSerif-48"/>
      </g>
     </g>
    </g>
    <g id="ytick_6">
     <g id="line2d_65">
      <g>
       <use style="stroke:#000000;stroke-width:0.5;" x="37.573438" xlink:href="#m17169e3e70" y="220.633412"/>
      </g>
     </g>
     <g id="line2d_66">
      <g>
       <use style="stroke:#000000;stroke-width:0.5;" x="595.573437" xlink:href="#mabe567e117" y="220.633412"/>
      </g>
     </g>
     <g id="text_14">
      <!-- 60 -->
      <g transform="translate(21.348438 224.432631)scale(0.1 -0.1)">
       <defs>
        <path d="M 32.71875 3.421875 
Q 39.59375 3.421875 43.296875 8.46875 
Q 47.015625 13.53125 47.015625 23 
Q 47.015625 32.46875 43.296875 37.515625 
Q 39.59375 42.578125 32.71875 42.578125 
Q 25.734375 42.578125 22.0625 37.6875 
Q 18.40625 32.8125 18.40625 23.578125 
Q 18.40625 13.875 22.109375 8.640625 
Q 25.828125 3.421875 32.71875 3.421875 
z
M 16.796875 40.140625 
Q 20.125 43.796875 24.3125 45.59375 
Q 28.515625 47.40625 33.796875 47.40625 
Q 44.671875 47.40625 51 40.859375 
Q 57.328125 34.328125 57.328125 23 
Q 57.328125 11.921875 50.515625 5.25 
Q 43.703125 -1.421875 32.328125 -1.421875 
Q 19.96875 -1.421875 13.328125 7.78125 
Q 6.6875 17 6.6875 34.078125 
Q 6.6875 53.21875 14.546875 63.71875 
Q 22.40625 74.21875 36.71875 74.21875 
Q 40.578125 74.21875 44.828125 73.484375 
Q 49.078125 72.75 53.515625 71.296875 
L 53.515625 59.28125 
L 48 59.28125 
Q 47.40625 64.203125 44.234375 66.796875 
Q 41.0625 69.390625 35.6875 69.390625 
Q 26.21875 69.390625 21.578125 62.203125 
Q 16.9375 55.03125 16.796875 40.140625 
z
" id="DejaVuSerif-54"/>
       </defs>
       <use xlink:href="#DejaVuSerif-54"/>
       <use x="63.623047" xlink:href="#DejaVuSerif-48"/>
      </g>
     </g>
    </g>
    <g id="ytick_7">
     <g id="line2d_67">
      <g>
       <use style="stroke:#000000;stroke-width:0.5;" x="37.573438" xlink:href="#m17169e3e70" y="158.307544"/>
      </g>
     </g>
     <g id="line2d_68">
      <g>
       <use style="stroke:#000000;stroke-width:0.5;" x="595.573437" xlink:href="#mabe567e117" y="158.307544"/>
      </g>
     </g>
     <g id="text_15">
      <!-- 70 -->
      <g transform="translate(21.348438 162.106763)scale(0.1 -0.1)">
       <use xlink:href="#DejaVuSerif-55"/>
       <use x="63.623047" xlink:href="#DejaVuSerif-48"/>
      </g>
     </g>
    </g>
    <g id="ytick_8">
     <g id="line2d_69">
      <g>
       <use style="stroke:#000000;stroke-width:0.5;" x="37.573438" xlink:href="#m17169e3e70" y="95.981676"/>
      </g>
     </g>
     <g id="line2d_70">
      <g>
       <use style="stroke:#000000;stroke-width:0.5;" x="595.573437" xlink:href="#mabe567e117" y="95.981676"/>
      </g>
     </g>
     <g id="text_16">
      <!-- 80 -->
      <g transform="translate(21.348438 99.780895)scale(0.1 -0.1)">
       <defs>
        <path d="M 46.578125 19.921875 
Q 46.578125 27.734375 42.6875 32.046875 
Q 38.8125 36.375 31.78125 36.375 
Q 24.75 36.375 20.875 32.046875 
Q 17 27.734375 17 19.921875 
Q 17 12.0625 20.875 7.734375 
Q 24.75 3.421875 31.78125 3.421875 
Q 38.8125 3.421875 42.6875 7.734375 
Q 46.578125 12.0625 46.578125 19.921875 
z
M 44.578125 55.328125 
Q 44.578125 61.96875 41.203125 65.671875 
Q 37.84375 69.390625 31.78125 69.390625 
Q 25.78125 69.390625 22.390625 65.671875 
Q 19 61.96875 19 55.328125 
Q 19 48.640625 22.390625 44.921875 
Q 25.78125 41.21875 31.78125 41.21875 
Q 37.84375 41.21875 41.203125 44.921875 
Q 44.578125 48.640625 44.578125 55.328125 
z
M 39.3125 38.8125 
Q 47.609375 37.703125 52.25 32.6875 
Q 56.890625 27.6875 56.890625 19.921875 
Q 56.890625 9.671875 50.390625 4.125 
Q 43.890625 -1.421875 31.78125 -1.421875 
Q 19.734375 -1.421875 13.203125 4.125 
Q 6.6875 9.671875 6.6875 19.921875 
Q 6.6875 27.6875 11.328125 32.6875 
Q 15.96875 37.703125 24.3125 38.8125 
Q 16.9375 40.140625 13 44.40625 
Q 9.078125 48.6875 9.078125 55.328125 
Q 9.078125 64.109375 15.125 69.15625 
Q 21.1875 74.21875 31.78125 74.21875 
Q 42.390625 74.21875 48.4375 69.15625 
Q 54.5 64.109375 54.5 55.328125 
Q 54.5 48.6875 50.5625 44.40625 
Q 46.625 40.140625 39.3125 38.8125 
z
" id="DejaVuSerif-56"/>
       </defs>
       <use xlink:href="#DejaVuSerif-56"/>
       <use x="63.623047" xlink:href="#DejaVuSerif-48"/>
      </g>
     </g>
    </g>
    <g id="ytick_9">
     <g id="line2d_71">
      <g>
       <use style="stroke:#000000;stroke-width:0.5;" x="37.573438" xlink:href="#m17169e3e70" y="33.655808"/>
      </g>
     </g>
     <g id="line2d_72">
      <g>
       <use style="stroke:#000000;stroke-width:0.5;" x="595.573437" xlink:href="#mabe567e117" y="33.655808"/>
      </g>
     </g>
     <g id="text_17">
      <!-- 90 -->
      <g transform="translate(21.348438 37.455027)scale(0.1 -0.1)">
       <use xlink:href="#DejaVuSerif-57"/>
       <use x="63.623047" xlink:href="#DejaVuSerif-48"/>
      </g>
     </g>
    </g>
    <g id="ytick_10">
     <g id="line2d_73">
      <defs>
       <path d="M 0 0 
L 1.5 0 
" id="m1be9e7c7f0" style="stroke:#000000;stroke-width:0.5;"/>
      </defs>
      <g>
       <use style="stroke:#000000;stroke-width:0.5;" x="37.573438" xlink:href="#m1be9e7c7f0" y="557.193098"/>
      </g>
     </g>
     <g id="line2d_74">
      <defs>
       <path d="M 0 0 
L -1.5 0 
" id="m395c47cab6" style="stroke:#000000;stroke-width:0.5;"/>
      </defs>
      <g>
       <use style="stroke:#000000;stroke-width:0.5;" x="595.573437" xlink:href="#m395c47cab6" y="557.193098"/>
      </g>
     </g>
    </g>
    <g id="ytick_11">
     <g id="line2d_75">
      <g>
       <use style="stroke:#000000;stroke-width:0.5;" x="37.573438" xlink:href="#m1be9e7c7f0" y="544.727925"/>
      </g>
     </g>
     <g id="line2d_76">
      <g>
       <use style="stroke:#000000;stroke-width:0.5;" x="595.573437" xlink:href="#m395c47cab6" y="544.727925"/>
      </g>
     </g>
    </g>
    <g id="ytick_12">
     <g id="line2d_77">
      <g>
       <use style="stroke:#000000;stroke-width:0.5;" x="37.573438" xlink:href="#m1be9e7c7f0" y="519.797577"/>
      </g>
     </g>
     <g id="line2d_78">
      <g>
       <use style="stroke:#000000;stroke-width:0.5;" x="595.573437" xlink:href="#m395c47cab6" y="519.797577"/>
      </g>
     </g>
    </g>
    <g id="ytick_13">
     <g id="line2d_79">
      <g>
       <use style="stroke:#000000;stroke-width:0.5;" x="37.573438" xlink:href="#m1be9e7c7f0" y="507.332404"/>
      </g>
     </g>
     <g id="line2d_80">
      <g>
       <use style="stroke:#000000;stroke-width:0.5;" x="595.573437" xlink:href="#m395c47cab6" y="507.332404"/>
      </g>
     </g>
    </g>
    <g id="ytick_14">
     <g id="line2d_81">
      <g>
       <use style="stroke:#000000;stroke-width:0.5;" x="37.573438" xlink:href="#m1be9e7c7f0" y="494.86723"/>
      </g>
     </g>
     <g id="line2d_82">
      <g>
       <use style="stroke:#000000;stroke-width:0.5;" x="595.573437" xlink:href="#m395c47cab6" y="494.86723"/>
      </g>
     </g>
    </g>
    <g id="ytick_15">
     <g id="line2d_83">
      <g>
       <use style="stroke:#000000;stroke-width:0.5;" x="37.573438" xlink:href="#m1be9e7c7f0" y="482.402057"/>
      </g>
     </g>
     <g id="line2d_84">
      <g>
       <use style="stroke:#000000;stroke-width:0.5;" x="595.573437" xlink:href="#m395c47cab6" y="482.402057"/>
      </g>
     </g>
    </g>
    <g id="ytick_16">
     <g id="line2d_85">
      <g>
       <use style="stroke:#000000;stroke-width:0.5;" x="37.573438" xlink:href="#m1be9e7c7f0" y="457.47171"/>
      </g>
     </g>
     <g id="line2d_86">
      <g>
       <use style="stroke:#000000;stroke-width:0.5;" x="595.573437" xlink:href="#m395c47cab6" y="457.47171"/>
      </g>
     </g>
    </g>
    <g id="ytick_17">
     <g id="line2d_87">
      <g>
       <use style="stroke:#000000;stroke-width:0.5;" x="37.573438" xlink:href="#m1be9e7c7f0" y="445.006536"/>
      </g>
     </g>
     <g id="line2d_88">
      <g>
       <use style="stroke:#000000;stroke-width:0.5;" x="595.573437" xlink:href="#m395c47cab6" y="445.006536"/>
      </g>
     </g>
    </g>
    <g id="ytick_18">
     <g id="line2d_89">
      <g>
       <use style="stroke:#000000;stroke-width:0.5;" x="37.573438" xlink:href="#m1be9e7c7f0" y="432.541362"/>
      </g>
     </g>
     <g id="line2d_90">
      <g>
       <use style="stroke:#000000;stroke-width:0.5;" x="595.573437" xlink:href="#m395c47cab6" y="432.541362"/>
      </g>
     </g>
    </g>
    <g id="ytick_19">
     <g id="line2d_91">
      <g>
       <use style="stroke:#000000;stroke-width:0.5;" x="37.573438" xlink:href="#m1be9e7c7f0" y="420.076189"/>
      </g>
     </g>
     <g id="line2d_92">
      <g>
       <use style="stroke:#000000;stroke-width:0.5;" x="595.573437" xlink:href="#m395c47cab6" y="420.076189"/>
      </g>
     </g>
    </g>
    <g id="ytick_20">
     <g id="line2d_93">
      <g>
       <use style="stroke:#000000;stroke-width:0.5;" x="37.573438" xlink:href="#m1be9e7c7f0" y="395.145842"/>
      </g>
     </g>
     <g id="line2d_94">
      <g>
       <use style="stroke:#000000;stroke-width:0.5;" x="595.573437" xlink:href="#m395c47cab6" y="395.145842"/>
      </g>
     </g>
    </g>
    <g id="ytick_21">
     <g id="line2d_95">
      <g>
       <use style="stroke:#000000;stroke-width:0.5;" x="37.573438" xlink:href="#m1be9e7c7f0" y="382.680668"/>
      </g>
     </g>
     <g id="line2d_96">
      <g>
       <use style="stroke:#000000;stroke-width:0.5;" x="595.573437" xlink:href="#m395c47cab6" y="382.680668"/>
      </g>
     </g>
    </g>
    <g id="ytick_22">
     <g id="line2d_97">
      <g>
       <use style="stroke:#000000;stroke-width:0.5;" x="37.573438" xlink:href="#m1be9e7c7f0" y="370.215495"/>
      </g>
     </g>
     <g id="line2d_98">
      <g>
       <use style="stroke:#000000;stroke-width:0.5;" x="595.573437" xlink:href="#m395c47cab6" y="370.215495"/>
      </g>
     </g>
    </g>
    <g id="ytick_23">
     <g id="line2d_99">
      <g>
       <use style="stroke:#000000;stroke-width:0.5;" x="37.573438" xlink:href="#m1be9e7c7f0" y="357.750321"/>
      </g>
     </g>
     <g id="line2d_100">
      <g>
       <use style="stroke:#000000;stroke-width:0.5;" x="595.573437" xlink:href="#m395c47cab6" y="357.750321"/>
      </g>
     </g>
    </g>
    <g id="ytick_24">
     <g id="line2d_101">
      <g>
       <use style="stroke:#000000;stroke-width:0.5;" x="37.573438" xlink:href="#m1be9e7c7f0" y="332.819974"/>
      </g>
     </g>
     <g id="line2d_102">
      <g>
       <use style="stroke:#000000;stroke-width:0.5;" x="595.573437" xlink:href="#m395c47cab6" y="332.819974"/>
      </g>
     </g>
    </g>
    <g id="ytick_25">
     <g id="line2d_103">
      <g>
       <use style="stroke:#000000;stroke-width:0.5;" x="37.573438" xlink:href="#m1be9e7c7f0" y="320.3548"/>
      </g>
     </g>
     <g id="line2d_104">
      <g>
       <use style="stroke:#000000;stroke-width:0.5;" x="595.573437" xlink:href="#m395c47cab6" y="320.3548"/>
      </g>
     </g>
    </g>
    <g id="ytick_26">
     <g id="line2d_105">
      <g>
       <use style="stroke:#000000;stroke-width:0.5;" x="37.573438" xlink:href="#m1be9e7c7f0" y="307.889627"/>
      </g>
     </g>
     <g id="line2d_106">
      <g>
       <use style="stroke:#000000;stroke-width:0.5;" x="595.573437" xlink:href="#m395c47cab6" y="307.889627"/>
      </g>
     </g>
    </g>
    <g id="ytick_27">
     <g id="line2d_107">
      <g>
       <use style="stroke:#000000;stroke-width:0.5;" x="37.573438" xlink:href="#m1be9e7c7f0" y="295.424453"/>
      </g>
     </g>
     <g id="line2d_108">
      <g>
       <use style="stroke:#000000;stroke-width:0.5;" x="595.573437" xlink:href="#m395c47cab6" y="295.424453"/>
      </g>
     </g>
    </g>
    <g id="ytick_28">
     <g id="line2d_109">
      <g>
       <use style="stroke:#000000;stroke-width:0.5;" x="37.573438" xlink:href="#m1be9e7c7f0" y="270.494106"/>
      </g>
     </g>
     <g id="line2d_110">
      <g>
       <use style="stroke:#000000;stroke-width:0.5;" x="595.573437" xlink:href="#m395c47cab6" y="270.494106"/>
      </g>
     </g>
    </g>
    <g id="ytick_29">
     <g id="line2d_111">
      <g>
       <use style="stroke:#000000;stroke-width:0.5;" x="37.573438" xlink:href="#m1be9e7c7f0" y="258.028933"/>
      </g>
     </g>
     <g id="line2d_112">
      <g>
       <use style="stroke:#000000;stroke-width:0.5;" x="595.573437" xlink:href="#m395c47cab6" y="258.028933"/>
      </g>
     </g>
    </g>
    <g id="ytick_30">
     <g id="line2d_113">
      <g>
       <use style="stroke:#000000;stroke-width:0.5;" x="37.573438" xlink:href="#m1be9e7c7f0" y="245.563759"/>
      </g>
     </g>
     <g id="line2d_114">
      <g>
       <use style="stroke:#000000;stroke-width:0.5;" x="595.573437" xlink:href="#m395c47cab6" y="245.563759"/>
      </g>
     </g>
    </g>
    <g id="ytick_31">
     <g id="line2d_115">
      <g>
       <use style="stroke:#000000;stroke-width:0.5;" x="37.573438" xlink:href="#m1be9e7c7f0" y="233.098585"/>
      </g>
     </g>
     <g id="line2d_116">
      <g>
       <use style="stroke:#000000;stroke-width:0.5;" x="595.573437" xlink:href="#m395c47cab6" y="233.098585"/>
      </g>
     </g>
    </g>
    <g id="ytick_32">
     <g id="line2d_117">
      <g>
       <use style="stroke:#000000;stroke-width:0.5;" x="37.573438" xlink:href="#m1be9e7c7f0" y="208.168238"/>
      </g>
     </g>
     <g id="line2d_118">
      <g>
       <use style="stroke:#000000;stroke-width:0.5;" x="595.573437" xlink:href="#m395c47cab6" y="208.168238"/>
      </g>
     </g>
    </g>
    <g id="ytick_33">
     <g id="line2d_119">
      <g>
       <use style="stroke:#000000;stroke-width:0.5;" x="37.573438" xlink:href="#m1be9e7c7f0" y="195.703065"/>
      </g>
     </g>
     <g id="line2d_120">
      <g>
       <use style="stroke:#000000;stroke-width:0.5;" x="595.573437" xlink:href="#m395c47cab6" y="195.703065"/>
      </g>
     </g>
    </g>
    <g id="ytick_34">
     <g id="line2d_121">
      <g>
       <use style="stroke:#000000;stroke-width:0.5;" x="37.573438" xlink:href="#m1be9e7c7f0" y="183.237891"/>
      </g>
     </g>
     <g id="line2d_122">
      <g>
       <use style="stroke:#000000;stroke-width:0.5;" x="595.573437" xlink:href="#m395c47cab6" y="183.237891"/>
      </g>
     </g>
    </g>
    <g id="ytick_35">
     <g id="line2d_123">
      <g>
       <use style="stroke:#000000;stroke-width:0.5;" x="37.573438" xlink:href="#m1be9e7c7f0" y="170.772718"/>
      </g>
     </g>
     <g id="line2d_124">
      <g>
       <use style="stroke:#000000;stroke-width:0.5;" x="595.573437" xlink:href="#m395c47cab6" y="170.772718"/>
      </g>
     </g>
    </g>
    <g id="ytick_36">
     <g id="line2d_125">
      <g>
       <use style="stroke:#000000;stroke-width:0.5;" x="37.573438" xlink:href="#m1be9e7c7f0" y="145.84237"/>
      </g>
     </g>
     <g id="line2d_126">
      <g>
       <use style="stroke:#000000;stroke-width:0.5;" x="595.573437" xlink:href="#m395c47cab6" y="145.84237"/>
      </g>
     </g>
    </g>
    <g id="ytick_37">
     <g id="line2d_127">
      <g>
       <use style="stroke:#000000;stroke-width:0.5;" x="37.573438" xlink:href="#m1be9e7c7f0" y="133.377197"/>
      </g>
     </g>
     <g id="line2d_128">
      <g>
       <use style="stroke:#000000;stroke-width:0.5;" x="595.573437" xlink:href="#m395c47cab6" y="133.377197"/>
      </g>
     </g>
    </g>
    <g id="ytick_38">
     <g id="line2d_129">
      <g>
       <use style="stroke:#000000;stroke-width:0.5;" x="37.573438" xlink:href="#m1be9e7c7f0" y="120.912023"/>
      </g>
     </g>
     <g id="line2d_130">
      <g>
       <use style="stroke:#000000;stroke-width:0.5;" x="595.573437" xlink:href="#m395c47cab6" y="120.912023"/>
      </g>
     </g>
    </g>
    <g id="ytick_39">
     <g id="line2d_131">
      <g>
       <use style="stroke:#000000;stroke-width:0.5;" x="37.573438" xlink:href="#m1be9e7c7f0" y="108.44685"/>
      </g>
     </g>
     <g id="line2d_132">
      <g>
       <use style="stroke:#000000;stroke-width:0.5;" x="595.573437" xlink:href="#m395c47cab6" y="108.44685"/>
      </g>
     </g>
    </g>
    <g id="ytick_40">
     <g id="line2d_133">
      <g>
       <use style="stroke:#000000;stroke-width:0.5;" x="37.573438" xlink:href="#m1be9e7c7f0" y="83.516503"/>
      </g>
     </g>
     <g id="line2d_134">
      <g>
       <use style="stroke:#000000;stroke-width:0.5;" x="595.573437" xlink:href="#m395c47cab6" y="83.516503"/>
      </g>
     </g>
    </g>
    <g id="ytick_41">
     <g id="line2d_135">
      <g>
       <use style="stroke:#000000;stroke-width:0.5;" x="37.573438" xlink:href="#m1be9e7c7f0" y="71.051329"/>
      </g>
     </g>
     <g id="line2d_136">
      <g>
       <use style="stroke:#000000;stroke-width:0.5;" x="595.573437" xlink:href="#m395c47cab6" y="71.051329"/>
      </g>
     </g>
    </g>
    <g id="ytick_42">
     <g id="line2d_137">
      <g>
       <use style="stroke:#000000;stroke-width:0.5;" x="37.573438" xlink:href="#m1be9e7c7f0" y="58.586155"/>
      </g>
     </g>
     <g id="line2d_138">
      <g>
       <use style="stroke:#000000;stroke-width:0.5;" x="595.573437" xlink:href="#m395c47cab6" y="58.586155"/>
      </g>
     </g>
    </g>
    <g id="ytick_43">
     <g id="line2d_139">
      <g>
       <use style="stroke:#000000;stroke-width:0.5;" x="37.573438" xlink:href="#m1be9e7c7f0" y="46.120982"/>
      </g>
     </g>
     <g id="line2d_140">
      <g>
       <use style="stroke:#000000;stroke-width:0.5;" x="595.573437" xlink:href="#m395c47cab6" y="46.120982"/>
      </g>
     </g>
    </g>
    <g id="ytick_44">
     <g id="line2d_141">
      <g>
       <use style="stroke:#000000;stroke-width:0.5;" x="37.573438" xlink:href="#m1be9e7c7f0" y="21.190635"/>
      </g>
     </g>
     <g id="line2d_142">
      <g>
       <use style="stroke:#000000;stroke-width:0.5;" x="595.573437" xlink:href="#m395c47cab6" y="21.190635"/>
      </g>
     </g>
    </g>
    <g id="ytick_45">
     <g id="line2d_143">
      <g>
       <use style="stroke:#000000;stroke-width:0.5;" x="37.573438" xlink:href="#m1be9e7c7f0" y="8.725461"/>
      </g>
     </g>
     <g id="line2d_144">
      <g>
       <use style="stroke:#000000;stroke-width:0.5;" x="595.573437" xlink:href="#m395c47cab6" y="8.725461"/>
      </g>
     </g>
    </g>
    <g id="text_18">
     <!-- Cifa10 Test Accuracy (%) -->
     <g transform="translate(14.237813 370.327813)rotate(-90)scale(0.14 -0.14)">
      <defs>
       <path d="M 70.515625 19.28125 
Q 67.28125 9.078125 59.6875 3.828125 
Q 52.09375 -1.421875 40.484375 -1.421875 
Q 33.34375 -1.421875 27.234375 1.015625 
Q 21.140625 3.46875 16.40625 8.203125 
Q 10.9375 13.671875 8.265625 20.625 
Q 5.609375 27.59375 5.609375 36.375 
Q 5.609375 53.375 15.421875 63.796875 
Q 25.25 74.21875 41.3125 74.21875 
Q 47.265625 74.21875 54 72.65625 
Q 60.75 71.09375 68.5 67.921875 
L 68.5 51.125 
L 62.984375 51.125 
Q 61.1875 60.296875 55.734375 64.640625 
Q 50.296875 69 40.484375 69 
Q 28.8125 69 22.796875 60.71875 
Q 16.796875 52.4375 16.796875 36.375 
Q 16.796875 20.359375 22.796875 12.078125 
Q 28.8125 3.8125 40.484375 3.8125 
Q 48.640625 3.8125 53.90625 7.6875 
Q 59.1875 11.578125 61.53125 19.28125 
z
" id="DejaVuSerif-67"/>
       <path d="M 43.015625 63.71875 
L 38.28125 63.71875 
Q 38.234375 67.390625 36.203125 69.28125 
Q 34.1875 71.1875 30.328125 71.1875 
Q 25.296875 71.1875 23.234375 68.421875 
Q 21.1875 65.671875 21.1875 58.59375 
L 21.1875 51.90625 
L 35.6875 51.90625 
L 35.6875 46.6875 
L 21.1875 46.6875 
L 21.1875 5.171875 
L 32.71875 5.171875 
L 32.71875 0 
L 3.609375 0 
L 3.609375 5.171875 
L 12.203125 5.171875 
L 12.203125 46.6875 
L 3.609375 46.6875 
L 3.609375 51.90625 
L 12.203125 51.90625 
L 12.203125 58.40625 
Q 12.203125 67.09375 16.71875 71.53125 
Q 21.234375 75.984375 29.984375 75.984375 
Q 33.25 75.984375 36.515625 75.390625 
Q 39.796875 74.8125 43.015625 73.578125 
z
" id="DejaVuSerif-102"/>
       <path d="M 39.796875 16.3125 
L 39.796875 27.296875 
L 28.21875 27.296875 
Q 21.53125 27.296875 18.25 24.40625 
Q 14.984375 21.53125 14.984375 15.578125 
Q 14.984375 10.15625 18.296875 6.984375 
Q 21.625 3.8125 27.296875 3.8125 
Q 32.90625 3.8125 36.34375 7.28125 
Q 39.796875 10.75 39.796875 16.3125 
z
M 48.78125 32.421875 
L 48.78125 5.171875 
L 56.78125 5.171875 
L 56.78125 0 
L 39.796875 0 
L 39.796875 5.609375 
Q 36.8125 2 32.90625 0.28125 
Q 29 -1.421875 23.78125 -1.421875 
Q 15.140625 -1.421875 10.0625 3.171875 
Q 4.984375 7.765625 4.984375 15.578125 
Q 4.984375 23.640625 10.796875 28.078125 
Q 16.609375 32.515625 27.203125 32.515625 
L 39.796875 32.515625 
L 39.796875 36.078125 
Q 39.796875 42 36.203125 45.234375 
Q 32.625 48.484375 26.125 48.484375 
Q 20.75 48.484375 17.578125 46.046875 
Q 14.40625 43.609375 13.625 38.8125 
L 8.984375 38.8125 
L 8.984375 49.3125 
Q 13.671875 51.3125 18.09375 52.3125 
Q 22.515625 53.328125 26.703125 53.328125 
Q 37.5 53.328125 43.140625 47.96875 
Q 48.78125 42.625 48.78125 32.421875 
z
" id="DejaVuSerif-97"/>
       <path d="M 10.796875 46.6875 
L 2.875 46.6875 
L 2.875 51.90625 
L 10.796875 51.90625 
L 10.796875 68.015625 
L 19.828125 68.015625 
L 19.828125 51.90625 
L 36.71875 51.90625 
L 36.71875 46.6875 
L 19.828125 46.6875 
L 19.828125 13.71875 
Q 19.828125 7.125 21.09375 5.265625 
Q 22.359375 3.421875 25.78125 3.421875 
Q 29.296875 3.421875 30.90625 5.484375 
Q 32.515625 7.5625 32.625 12.203125 
L 39.40625 12.203125 
Q 39.015625 5.125 35.546875 1.84375 
Q 32.078125 -1.421875 25 -1.421875 
Q 17.234375 -1.421875 14.015625 2.015625 
Q 10.796875 5.46875 10.796875 13.71875 
z
" id="DejaVuSerif-116"/>
       <path d="M 20.015625 26.421875 
L 46.78125 26.421875 
L 33.40625 61.078125 
z
M -0.59375 0 
L -0.59375 5.171875 
L 5.8125 5.171875 
L 31.78125 72.90625 
L 39.984375 72.90625 
L 66.015625 5.171875 
L 73.1875 5.171875 
L 73.1875 0 
L 46.6875 0 
L 46.6875 5.171875 
L 54.78125 5.171875 
L 48.6875 21.1875 
L 18.015625 21.1875 
L 11.921875 5.171875 
L 19.921875 5.171875 
L 19.921875 0 
z
" id="DejaVuSerif-65"/>
       <path d="M 51.421875 15.578125 
Q 49.515625 7.28125 44.09375 2.921875 
Q 38.671875 -1.421875 30.078125 -1.421875 
Q 18.75 -1.421875 11.859375 6.078125 
Q 4.984375 13.578125 4.984375 25.984375 
Q 4.984375 38.421875 11.859375 45.875 
Q 18.75 53.328125 30.078125 53.328125 
Q 35.015625 53.328125 39.890625 52.171875 
Q 44.78125 51.03125 49.703125 48.6875 
L 49.703125 35.40625 
L 44.484375 35.40625 
Q 43.453125 42.234375 40.015625 45.359375 
Q 36.578125 48.484375 30.171875 48.484375 
Q 22.90625 48.484375 19.1875 42.84375 
Q 15.484375 37.203125 15.484375 25.984375 
Q 15.484375 14.75 19.171875 9.078125 
Q 22.859375 3.421875 30.171875 3.421875 
Q 35.984375 3.421875 39.453125 6.4375 
Q 42.921875 9.46875 44.1875 15.578125 
z
" id="DejaVuSerif-99"/>
       <path d="M 35.40625 51.90625 
L 52.203125 51.90625 
L 52.203125 5.171875 
L 60.6875 5.171875 
L 60.6875 0 
L 43.21875 0 
L 43.21875 9.1875 
Q 40.71875 4 36.765625 1.28125 
Q 32.8125 -1.421875 27.59375 -1.421875 
Q 18.953125 -1.421875 14.875 3.484375 
Q 10.796875 8.40625 10.796875 18.890625 
L 10.796875 46.6875 
L 2.6875 46.6875 
L 2.6875 51.90625 
L 19.828125 51.90625 
L 19.828125 21.6875 
Q 19.828125 12.203125 22.140625 8.6875 
Q 24.46875 5.171875 30.421875 5.171875 
Q 36.671875 5.171875 39.9375 9.765625 
Q 43.21875 14.359375 43.21875 23.09375 
L 43.21875 46.6875 
L 35.40625 46.6875 
z
" id="DejaVuSerif-117"/>
       <path d="M 47.796875 52 
L 47.796875 39.015625 
L 42.625 39.015625 
Q 42.390625 42.875 40.484375 44.78125 
Q 38.578125 46.6875 34.90625 46.6875 
Q 28.265625 46.6875 24.71875 42.09375 
Q 21.1875 37.5 21.1875 28.90625 
L 21.1875 5.171875 
L 31.59375 5.171875 
L 31.59375 0 
L 4.109375 0 
L 4.109375 5.171875 
L 12.203125 5.171875 
L 12.203125 46.78125 
L 3.609375 46.78125 
L 3.609375 51.90625 
L 21.1875 51.90625 
L 21.1875 42.671875 
Q 23.828125 48.09375 27.96875 50.703125 
Q 32.125 53.328125 38.09375 53.328125 
Q 40.28125 53.328125 42.703125 52.984375 
Q 45.125 52.640625 47.796875 52 
z
" id="DejaVuSerif-114"/>
       <path d="M 21.578125 -9.515625 
L 25 -0.875 
L 5.609375 46.6875 
L -0.296875 46.6875 
L -0.296875 51.90625 
L 23.578125 51.90625 
L 23.578125 46.6875 
L 15.28125 46.6875 
L 29.890625 10.984375 
L 44.484375 46.6875 
L 36.71875 46.6875 
L 36.71875 51.90625 
L 56.203125 51.90625 
L 56.203125 46.6875 
L 50.390625 46.6875 
L 26.609375 -11.71875 
Q 24.171875 -17.78125 21.1875 -20 
Q 18.21875 -22.21875 12.796875 -22.21875 
Q 10.5 -22.21875 8.078125 -21.828125 
Q 5.671875 -21.4375 3.21875 -20.703125 
L 3.21875 -10.796875 
L 7.8125 -10.796875 
Q 8.109375 -14.109375 9.5 -15.546875 
Q 10.890625 -17 13.8125 -17 
Q 16.5 -17 18.140625 -15.5 
Q 19.78125 -14.015625 21.578125 -9.515625 
z
" id="DejaVuSerif-121"/>
       <path d="M 22.40625 69.671875 
Q 18.109375 69.671875 15.6875 65.625 
Q 13.28125 61.578125 13.28125 54.296875 
Q 13.28125 47.125 15.75 43.015625 
Q 18.21875 38.921875 22.40625 38.921875 
Q 26.5625 38.921875 28.96875 43 
Q 31.390625 47.078125 31.390625 54.296875 
Q 31.390625 61.53125 28.96875 65.59375 
Q 26.5625 69.671875 22.40625 69.671875 
z
M 72.703125 33.890625 
Q 68.453125 33.890625 66.03125 29.78125 
Q 63.625 25.6875 63.625 18.40625 
Q 63.625 11.234375 66.0625 7.15625 
Q 68.5 3.078125 72.703125 3.078125 
Q 76.90625 3.078125 79.296875 7.15625 
Q 81.6875 11.234375 81.6875 18.40625 
Q 81.6875 25.640625 79.265625 29.765625 
Q 76.859375 33.890625 72.703125 33.890625 
z
M 72.703125 38.28125 
Q 80.421875 38.28125 84.953125 32.90625 
Q 89.5 27.546875 89.5 18.40625 
Q 89.5 9.28125 84.9375 3.921875 
Q 80.375 -1.421875 72.703125 -1.421875 
Q 64.890625 -1.421875 60.34375 3.921875 
Q 55.8125 9.28125 55.8125 18.40625 
Q 55.8125 27.59375 60.375 32.9375 
Q 64.9375 38.28125 72.703125 38.28125 
z
M 66.609375 74.21875 
L 74.03125 74.21875 
L 28.421875 -1.421875 
L 21 -1.421875 
z
M 22.3125 74.21875 
Q 30.03125 74.21875 34.609375 68.875 
Q 39.203125 63.53125 39.203125 54.390625 
Q 39.203125 45.171875 34.640625 39.84375 
Q 30.078125 34.515625 22.3125 34.515625 
Q 14.546875 34.515625 10.03125 39.859375 
Q 5.515625 45.21875 5.515625 54.390625 
Q 5.515625 63.484375 10.046875 68.84375 
Q 14.59375 74.21875 22.3125 74.21875 
z
" id="DejaVuSerif-37"/>
      </defs>
      <use xlink:href="#DejaVuSerif-67"/>
      <use x="76.513672" xlink:href="#DejaVuSerif-105"/>
      <use x="108.496094" xlink:href="#DejaVuSerif-102"/>
      <use x="145.507812" xlink:href="#DejaVuSerif-97"/>
      <use x="205.126953" xlink:href="#DejaVuSerif-49"/>
      <use x="268.75" xlink:href="#DejaVuSerif-48"/>
      <use x="332.373047" xlink:href="#DejaVuSerif-32"/>
      <use x="364.160156" xlink:href="#DejaVuSerif-84"/>
      <use x="423.109375" xlink:href="#DejaVuSerif-101"/>
      <use x="482.289062" xlink:href="#DejaVuSerif-115"/>
      <use x="533.607422" xlink:href="#DejaVuSerif-116"/>
      <use x="573.792969" xlink:href="#DejaVuSerif-32"/>
      <use x="605.580078" xlink:href="#DejaVuSerif-65"/>
      <use x="677.796875" xlink:href="#DejaVuSerif-99"/>
      <use x="733.802734" xlink:href="#DejaVuSerif-99"/>
      <use x="789.808594" xlink:href="#DejaVuSerif-117"/>
      <use x="854.212891" xlink:href="#DejaVuSerif-114"/>
      <use x="902.015625" xlink:href="#DejaVuSerif-97"/>
      <use x="961.634766" xlink:href="#DejaVuSerif-99"/>
      <use x="1017.640625" xlink:href="#DejaVuSerif-121"/>
      <use x="1074.134766" xlink:href="#DejaVuSerif-32"/>
      <use x="1105.921875" xlink:href="#DejaVuSerif-40"/>
      <use x="1144.935547" xlink:href="#DejaVuSerif-37"/>
      <use x="1239.955078" xlink:href="#DejaVuSerif-41"/>
     </g>
    </g>
   </g>
   <g id="line2d_145">
    <path clip-path="url(#pabd1362748)" d="M 62.937074 29.355323 
L 84.073438 532.262751 
L 105.209801 532.262751 
L 126.346165 532.262751 
L 147.482528 532.262751 
L 168.618892 532.262751 
L 189.755256 532.262751 
L 210.891619 532.262751 
L 232.027983 532.262751 
L 253.164347 532.262751 
L 274.30071 532.262751 
L 295.437074 532.262751 
L 316.573438 532.262751 
L 337.709801 532.262751 
L 358.846165 532.262751 
L 379.982528 532.262751 
L 401.118892 532.262751 
L 422.255256 532.262751 
L 443.391619 532.262751 
L 464.527983 532.262751 
L 485.664347 532.262751 
L 506.80071 532.262751 
L 527.937074 532.262751 
L 549.073437 532.262751 
L 570.209801 532.262751 
" style="fill:none;stroke:#0c5da5;stroke-linecap:square;stroke-width:2;"/>
   </g>
   <g id="line2d_146">
    <path clip-path="url(#pabd1362748)" d="M 62.937074 29.355323 
L 84.073438 29.647009 
L 105.209801 30.60558 
L 126.346165 32.332007 
L 147.482528 35.28002 
L 168.618892 38.605729 
L 189.755256 44.428835 
L 210.891619 55.273536 
L 232.027983 73.030175 
L 253.164347 105.792391 
L 274.30071 167.518684 
L 295.437074 266.821243 
L 316.573438 403.184632 
L 337.709801 499.79596 
L 358.846165 532.451598 
L 379.982528 532.517041 
L 401.118892 532.262751 
L 422.255256 532.262751 
L 443.391619 532.250909 
L 464.527983 531.751679 
L 485.664347 532.002852 
L 506.80071 532.396128 
L 527.937074 532.154927 
L 549.073437 532.148695 
L 570.209801 532.153057 
" style="fill:none;stroke:#00b945;stroke-linecap:square;stroke-width:2;"/>
   </g>
   <g id="line2d_147">
    <path clip-path="url(#pabd1362748)" d="M 62.937074 29.355323 
L 84.073438 532.389896 
L 105.209801 532.262751 
L 126.346165 532.262751 
L 147.482528 532.262751 
L 168.618892 532.262751 
L 189.755256 532.262751 
L 210.891619 532.262751 
L 232.027983 532.262751 
L 253.164347 532.262751 
L 274.30071 532.262751 
L 295.437074 532.262751 
L 316.573438 532.262751 
L 337.709801 532.262751 
L 358.846165 532.262751 
L 379.982528 532.262751 
L 401.118892 532.262751 
L 422.255256 532.262751 
L 443.391619 532.262751 
L 464.527983 532.262751 
L 485.664347 532.262751 
L 506.80071 532.262751 
L 527.937074 532.262751 
L 549.073437 532.262751 
L 570.209801 532.262751 
" style="fill:none;stroke:#ff9500;stroke-linecap:square;stroke-width:2;"/>
   </g>
   <g id="line2d_148">
    <path clip-path="url(#pabd1362748)" d="M 62.937074 29.355323 
L 84.073438 29.429491 
L 105.209801 29.724293 
L 126.346165 29.979205 
L 147.482528 30.164937 
L 168.618892 31.510552 
L 189.755256 33.657055 
L 210.891619 40.591431 
L 232.027983 53.433053 
L 253.164347 77.169236 
L 274.30071 131.448835 
L 295.437074 232.655449 
L 316.573438 363.751679 
L 337.709801 453.391858 
L 358.846165 497.459986 
L 379.982528 510.355208 
L 401.118892 520.611553 
L 422.255256 527.486097 
L 443.391619 530.149904 
L 464.527983 530.524483 
L 485.664347 531.759781 
L 506.80071 532.139346 
L 527.937074 532.266491 
L 549.073437 532.118778 
L 570.209801 532.254025 
" style="fill:none;stroke:#ff2c00;stroke-linecap:square;stroke-width:2;"/>
   </g>
   <g id="line2d_149">
    <path clip-path="url(#pabd1362748)" d="M 62.937074 29.355323 
L 84.073438 29.731148 
L 105.209801 30.882307 
L 126.346165 32.561366 
L 147.482528 35.359174 
L 168.618892 39.061331 
L 189.755256 45.169266 
L 210.891619 54.756854 
L 232.027983 73.104966 
L 253.164347 97.540446 
L 274.30071 135.54863 
L 295.437074 199.616506 
L 316.573438 274.462394 
L 337.709801 352.008862 
L 358.846165 420.866481 
L 379.982528 474.494151 
L 401.118892 500.382446 
L 422.255256 515.111919 
L 443.391619 519.542665 
L 464.527983 525.357668 
L 485.664347 527.134579 
L 506.80071 528.343077 
L 527.937074 528.240863 
L 549.073437 529.409473 
L 570.209801 530.112509 
" style="fill:none;stroke:#845b97;stroke-linecap:square;stroke-width:2;"/>
   </g>
   <g id="line2d_150">
    <path clip-path="url(#pabd1362748)" d="M 62.937074 29.355323 
L 84.073438 34.566389 
L 105.209801 60.63356 
L 126.346165 132.778869 
L 147.482528 272.01735 
L 168.618892 425.399441 
L 189.755256 506.043505 
L 210.891619 525.686125 
L 232.027983 531.35217 
L 253.164347 531.875707 
L 274.30071 532.01968 
L 295.437074 531.610199 
L 316.573438 532.8 
L 337.709801 531.914973 
L 358.846165 532.500836 
L 379.982528 532.068294 
L 401.118892 531.645102 
L 422.255256 532.398621 
L 443.391619 530.99255 
L 464.527983 532.465933 
L 485.664347 532.407347 
L 506.80071 532.24343 
L 527.937074 531.49552 
L 549.073437 532.534492 
L 570.209801 532.018434 
" style="fill:none;stroke:#474747;stroke-linecap:square;stroke-width:2;"/>
   </g>
   <g id="line2d_151">
    <path clip-path="url(#pabd1362748)" d="M 62.937074 29.355323 
L 84.073438 532.252779 
L 105.209801 532.257142 
L 126.346165 532.262751 
L 147.482528 532.262751 
L 168.618892 532.262751 
L 189.755256 532.262751 
L 210.891619 532.262751 
L 232.027983 532.262751 
L 253.164347 532.262751 
L 274.30071 532.262751 
L 295.437074 532.262751 
L 316.573438 532.262751 
L 337.709801 532.262751 
L 358.846165 532.262751 
L 379.982528 532.262751 
L 401.118892 532.262751 
L 422.255256 532.262751 
L 443.391619 532.262751 
L 464.527983 532.262751 
L 485.664347 532.262751 
L 506.80071 532.262751 
L 527.937074 532.262751 
L 549.073437 532.262751 
L 570.209801 532.262751 
" style="fill:none;stroke:#9e9e9e;stroke-linecap:square;stroke-width:2;"/>
   </g>
   <g id="line2d_152">
    <path clip-path="url(#pabd1362748)" d="M 62.937074 29.355323 
L 84.073438 29.527966 
L 105.209801 29.452552 
L 126.346165 30.006629 
L 147.482528 30.317012 
L 168.618892 31.801614 
L 189.755256 34.689171 
L 210.891619 40.565254 
L 232.027983 55.145144 
L 253.164347 85.06904 
L 274.30071 146.031841 
L 295.437074 246.244357 
L 316.573438 379.206001 
L 337.709801 465.353439 
L 358.846165 501.339772 
L 379.982528 514.570307 
L 401.118892 523.482906 
L 422.255256 528.506994 
L 443.391619 530.785628 
L 464.527983 531.689353 
L 485.664347 531.88194 
L 506.80071 532.486501 
L 527.937074 532.391142 
L 549.073437 532.323207 
L 570.209801 532.262751 
" style="fill:none;stroke:#0c5da5;stroke-dasharray:7.4,3.2;stroke-dashoffset:0;stroke-width:2;"/>
   </g>
   <g id="line2d_153">
    <path clip-path="url(#pabd1362748)" d="M 62.937074 29.355323 
L 84.073438 30.661674 
L 105.209801 36.525291 
L 126.346165 46.787869 
L 147.482528 66.017269 
L 168.618892 106.815782 
L 189.755256 177.677177 
L 210.891619 290.476403 
L 232.027983 413.899072 
L 253.164347 485.49529 
L 274.30071 515.674098 
L 295.437074 528.463366 
L 316.573438 530.63106 
L 337.709801 530.958894 
L 358.846165 530.805572 
L 379.982528 531.80154 
L 401.118892 530.616102 
L 422.255256 531.644478 
L 443.391619 531.459994 
L 464.527983 532.378677 
L 485.664347 530.599274 
L 506.80071 532.648548 
L 527.937074 531.617678 
L 549.073437 531.814628 
L 570.209801 532.305756 
" style="fill:none;stroke:#00b945;stroke-dasharray:7.4,3.2;stroke-dashoffset:0;stroke-width:2;"/>
   </g>
   <g id="line2d_154">
    <path clip-path="url(#pabd1362748)" d="M 62.937074 29.355323 
L 84.073438 29.478105 
L 105.209801 29.559752 
L 126.346165 29.902545 
L 147.482528 30.323244 
L 168.618892 31.74739 
L 189.755256 35.279397 
L 210.891619 41.081312 
L 232.027983 56.120544 
L 253.164347 88.157287 
L 274.30071 153.249177 
L 295.437074 254.096794 
L 316.573438 393.193796 
L 337.709801 473.16661 
L 358.846165 499.962993 
L 379.982528 517.99636 
L 401.118892 524.283793 
L 422.255256 528.960727 
L 443.391619 530.947052 
L 464.527983 531.572804 
L 485.664347 532.235328 
L 506.80071 532.178611 
L 527.937074 532.199179 
L 549.073437 532.256518 
L 570.209801 532.202918 
" style="fill:none;stroke:#ff9500;stroke-dasharray:7.4,3.2;stroke-dashoffset:0;stroke-width:2;"/>
   </g>
   <g id="line2d_155">
    <path clip-path="url(#pabd1362748)" d="M 62.937074 29.355323 
L 84.073438 532.262751 
L 105.209801 532.262751 
L 126.346165 532.262751 
L 147.482528 532.262751 
L 168.618892 532.262751 
L 189.755256 532.262751 
L 210.891619 532.262751 
L 232.027983 532.262751 
L 253.164347 532.262751 
L 274.30071 532.262751 
L 295.437074 532.262751 
L 316.573438 532.262751 
L 337.709801 532.262751 
L 358.846165 532.262751 
L 379.982528 532.262751 
L 401.118892 532.262751 
L 422.255256 532.262751 
L 443.391619 532.262751 
L 464.527983 532.262751 
L 485.664347 532.262751 
L 506.80071 532.262751 
L 527.937074 532.262751 
L 549.073437 532.262751 
L 570.209801 532.262751 
" style="fill:none;stroke:#ff2c00;stroke-dasharray:7.4,3.2;stroke-dashoffset:0;stroke-width:2;"/>
   </g>
   <g id="line2d_156">
    <path clip-path="url(#pabd1362748)" d="M 62.937074 29.355323 
L 84.073438 29.366542 
L 105.209801 29.398952 
L 126.346165 29.373398 
L 147.482528 29.291128 
L 168.618892 29.115992 
L 189.755256 28.841135 
L 210.891619 28.938363 
L 232.027983 28.80374 
L 253.164347 28.8 
L 274.30071 29.353454 
L 295.437074 30.893526 
L 316.573438 33.969931 
L 337.709801 39.151703 
L 358.846165 47.491528 
L 379.982528 62.02592 
L 401.118892 80.366553 
L 422.255256 115.499645 
L 443.391619 160.783751 
L 464.527983 219.967148 
L 485.664347 285.934093 
L 506.80071 347.216626 
L 527.937074 396.35808 
L 549.073437 432.1967 
L 570.209801 462.051414 
" style="fill:none;stroke:#845b97;stroke-dasharray:7.4,3.2;stroke-dashoffset:0;stroke-width:2;"/>
   </g>
   <g id="patch_3">
    <path d="M 37.573438 558 
L 37.573438 3.6 
" style="fill:none;stroke:#000000;stroke-linecap:square;stroke-linejoin:miter;stroke-width:0.5;"/>
   </g>
   <g id="patch_4">
    <path d="M 595.573437 558 
L 595.573437 3.6 
" style="fill:none;stroke:#000000;stroke-linecap:square;stroke-linejoin:miter;stroke-width:0.5;"/>
   </g>
   <g id="patch_5">
    <path d="M 37.573438 558 
L 595.573437 558 
" style="fill:none;stroke:#000000;stroke-linecap:square;stroke-linejoin:miter;stroke-width:0.5;"/>
   </g>
   <g id="patch_6">
    <path d="M 37.573438 3.6 
L 595.573437 3.6 
" style="fill:none;stroke:#000000;stroke-linecap:square;stroke-linejoin:miter;stroke-width:0.5;"/>
   </g>
   <g id="legend_1">
    <g id="line2d_157">
     <path d="M 478.652187 14.07875 
L 494.652187 14.07875 
" style="fill:none;stroke:#0c5da5;stroke-linecap:square;stroke-width:2;"/>
    </g>
    <g id="line2d_158"/>
    <g id="text_19">
     <!-- ./Pattern-00-to-01.csv -->
     <g transform="translate(501.052187 16.87875)scale(0.08 -0.08)">
      <defs>
       <path d="M 9.421875 5.078125 
Q 9.421875 7.8125 11.28125 9.71875 
Q 13.140625 11.625 15.921875 11.625 
Q 18.609375 11.625 20.5 9.71875 
Q 22.40625 7.8125 22.40625 5.078125 
Q 22.40625 2.390625 20.5 0.484375 
Q 18.609375 -1.421875 15.921875 -1.421875 
Q 13.140625 -1.421875 11.28125 0.453125 
Q 9.421875 2.34375 9.421875 5.078125 
z
" id="DejaVuSerif-46"/>
       <path d="M 25.875 72.90625 
L 33.6875 72.90625 
L 7.8125 -9.28125 
L 0 -9.28125 
z
" id="DejaVuSerif-47"/>
       <path d="M 24.703125 37.109375 
L 37.59375 37.109375 
Q 44.875 37.109375 48.671875 41.03125 
Q 52.484375 44.96875 52.484375 52.390625 
Q 52.484375 59.859375 48.671875 63.765625 
Q 44.875 67.671875 37.59375 67.671875 
L 24.703125 67.671875 
z
M 5.515625 0 
L 5.515625 5.171875 
L 14.796875 5.171875 
L 14.796875 67.671875 
L 5.515625 67.671875 
L 5.515625 72.90625 
L 39.984375 72.90625 
Q 50.921875 72.90625 57.3125 67.359375 
Q 63.71875 61.8125 63.71875 52.390625 
Q 63.71875 43.015625 57.3125 37.453125 
Q 50.921875 31.890625 39.984375 31.890625 
L 24.703125 31.890625 
L 24.703125 5.171875 
L 35.984375 5.171875 
L 35.984375 0 
z
" id="DejaVuSerif-80"/>
       <path d="M 4.109375 0 
L 4.109375 5.171875 
L 12.203125 5.171875 
L 12.203125 46.6875 
L 3.609375 46.6875 
L 3.609375 51.90625 
L 21.1875 51.90625 
L 21.1875 42.671875 
Q 23.6875 47.953125 27.65625 50.640625 
Q 31.640625 53.328125 36.921875 53.328125 
Q 45.515625 53.328125 49.5625 48.390625 
Q 53.609375 43.453125 53.609375 33.015625 
L 53.609375 5.171875 
L 61.625 5.171875 
L 61.625 0 
L 36.8125 0 
L 36.8125 5.171875 
L 44.578125 5.171875 
L 44.578125 30.171875 
Q 44.578125 39.703125 42.234375 43.234375 
Q 39.890625 46.78125 33.984375 46.78125 
Q 27.734375 46.78125 24.453125 42.203125 
Q 21.1875 37.640625 21.1875 28.90625 
L 21.1875 5.171875 
L 29 5.171875 
L 29 0 
z
" id="DejaVuSerif-110"/>
       <path d="M 4.390625 30.609375 
L 29.390625 30.609375 
L 29.390625 23 
L 4.390625 23 
z
" id="DejaVuSerif-45"/>
       <path d="M 30.078125 3.421875 
Q 37.3125 3.421875 40.984375 9.125 
Q 44.671875 14.84375 44.671875 25.984375 
Q 44.671875 37.109375 40.984375 42.796875 
Q 37.3125 48.484375 30.078125 48.484375 
Q 22.859375 48.484375 19.171875 42.796875 
Q 15.484375 37.109375 15.484375 25.984375 
Q 15.484375 14.84375 19.1875 9.125 
Q 22.90625 3.421875 30.078125 3.421875 
z
M 30.078125 -1.421875 
Q 18.75 -1.421875 11.859375 6.078125 
Q 4.984375 13.578125 4.984375 25.984375 
Q 4.984375 38.375 11.84375 45.84375 
Q 18.703125 53.328125 30.078125 53.328125 
Q 41.453125 53.328125 48.3125 45.84375 
Q 55.171875 38.375 55.171875 25.984375 
Q 55.171875 13.578125 48.3125 6.078125 
Q 41.453125 -1.421875 30.078125 -1.421875 
z
" id="DejaVuSerif-111"/>
       <path d="M 24.703125 0 
L 5.609375 46.6875 
L -0.296875 46.6875 
L -0.296875 51.90625 
L 23.578125 51.90625 
L 23.578125 46.6875 
L 15.28125 46.6875 
L 29.890625 10.984375 
L 44.484375 46.6875 
L 36.71875 46.6875 
L 36.71875 51.90625 
L 56.203125 51.90625 
L 56.203125 46.6875 
L 50.390625 46.6875 
L 31.296875 0 
z
" id="DejaVuSerif-118"/>
      </defs>
      <use xlink:href="#DejaVuSerif-46"/>
      <use x="31.787109" xlink:href="#DejaVuSerif-47"/>
      <use x="65.478516" xlink:href="#DejaVuSerif-80"/>
      <use x="128.263672" xlink:href="#DejaVuSerif-97"/>
      <use x="187.882812" xlink:href="#DejaVuSerif-116"/>
      <use x="228.068359" xlink:href="#DejaVuSerif-116"/>
      <use x="268.253906" xlink:href="#DejaVuSerif-101"/>
      <use x="327.433594" xlink:href="#DejaVuSerif-114"/>
      <use x="375.236328" xlink:href="#DejaVuSerif-110"/>
      <use x="439.640625" xlink:href="#DejaVuSerif-45"/>
      <use x="473.429688" xlink:href="#DejaVuSerif-48"/>
      <use x="537.052734" xlink:href="#DejaVuSerif-48"/>
      <use x="600.675781" xlink:href="#DejaVuSerif-45"/>
      <use x="634.464844" xlink:href="#DejaVuSerif-116"/>
      <use x="674.650391" xlink:href="#DejaVuSerif-111"/>
      <use x="734.855469" xlink:href="#DejaVuSerif-45"/>
      <use x="768.644531" xlink:href="#DejaVuSerif-48"/>
      <use x="832.267578" xlink:href="#DejaVuSerif-49"/>
      <use x="895.890625" xlink:href="#DejaVuSerif-46"/>
      <use x="927.677734" xlink:href="#DejaVuSerif-99"/>
      <use x="983.683594" xlink:href="#DejaVuSerif-115"/>
      <use x="1035.001953" xlink:href="#DejaVuSerif-118"/>
     </g>
    </g>
    <g id="line2d_159">
     <path d="M 478.652187 25.82125 
L 494.652187 25.82125 
" style="fill:none;stroke:#00b945;stroke-linecap:square;stroke-width:2;"/>
    </g>
    <g id="line2d_160"/>
    <g id="text_20">
     <!-- ./Pattern-10-to-00.csv -->
     <g transform="translate(501.052187 28.62125)scale(0.08 -0.08)">
      <use xlink:href="#DejaVuSerif-46"/>
      <use x="31.787109" xlink:href="#DejaVuSerif-47"/>
      <use x="65.478516" xlink:href="#DejaVuSerif-80"/>
      <use x="128.263672" xlink:href="#DejaVuSerif-97"/>
      <use x="187.882812" xlink:href="#DejaVuSerif-116"/>
      <use x="228.068359" xlink:href="#DejaVuSerif-116"/>
      <use x="268.253906" xlink:href="#DejaVuSerif-101"/>
      <use x="327.433594" xlink:href="#DejaVuSerif-114"/>
      <use x="375.236328" xlink:href="#DejaVuSerif-110"/>
      <use x="439.640625" xlink:href="#DejaVuSerif-45"/>
      <use x="473.429688" xlink:href="#DejaVuSerif-49"/>
      <use x="537.052734" xlink:href="#DejaVuSerif-48"/>
      <use x="600.675781" xlink:href="#DejaVuSerif-45"/>
      <use x="634.464844" xlink:href="#DejaVuSerif-116"/>
      <use x="674.650391" xlink:href="#DejaVuSerif-111"/>
      <use x="734.855469" xlink:href="#DejaVuSerif-45"/>
      <use x="768.644531" xlink:href="#DejaVuSerif-48"/>
      <use x="832.267578" xlink:href="#DejaVuSerif-48"/>
      <use x="895.890625" xlink:href="#DejaVuSerif-46"/>
      <use x="927.677734" xlink:href="#DejaVuSerif-99"/>
      <use x="983.683594" xlink:href="#DejaVuSerif-115"/>
      <use x="1035.001953" xlink:href="#DejaVuSerif-118"/>
     </g>
    </g>
    <g id="line2d_161">
     <path d="M 478.652187 37.56375 
L 494.652187 37.56375 
" style="fill:none;stroke:#ff9500;stroke-linecap:square;stroke-width:2;"/>
    </g>
    <g id="line2d_162"/>
    <g id="text_21">
     <!-- ./Pattern-00-to-11.csv -->
     <g transform="translate(501.052187 40.36375)scale(0.08 -0.08)">
      <use xlink:href="#DejaVuSerif-46"/>
      <use x="31.787109" xlink:href="#DejaVuSerif-47"/>
      <use x="65.478516" xlink:href="#DejaVuSerif-80"/>
      <use x="128.263672" xlink:href="#DejaVuSerif-97"/>
      <use x="187.882812" xlink:href="#DejaVuSerif-116"/>
      <use x="228.068359" xlink:href="#DejaVuSerif-116"/>
      <use x="268.253906" xlink:href="#DejaVuSerif-101"/>
      <use x="327.433594" xlink:href="#DejaVuSerif-114"/>
      <use x="375.236328" xlink:href="#DejaVuSerif-110"/>
      <use x="439.640625" xlink:href="#DejaVuSerif-45"/>
      <use x="473.429688" xlink:href="#DejaVuSerif-48"/>
      <use x="537.052734" xlink:href="#DejaVuSerif-48"/>
      <use x="600.675781" xlink:href="#DejaVuSerif-45"/>
      <use x="634.464844" xlink:href="#DejaVuSerif-116"/>
      <use x="674.650391" xlink:href="#DejaVuSerif-111"/>
      <use x="734.855469" xlink:href="#DejaVuSerif-45"/>
      <use x="768.644531" xlink:href="#DejaVuSerif-49"/>
      <use x="832.267578" xlink:href="#DejaVuSerif-49"/>
      <use x="895.890625" xlink:href="#DejaVuSerif-46"/>
      <use x="927.677734" xlink:href="#DejaVuSerif-99"/>
      <use x="983.683594" xlink:href="#DejaVuSerif-115"/>
      <use x="1035.001953" xlink:href="#DejaVuSerif-118"/>
     </g>
    </g>
    <g id="line2d_163">
     <path d="M 478.652187 49.30625 
L 494.652187 49.30625 
" style="fill:none;stroke:#ff2c00;stroke-linecap:square;stroke-width:2;"/>
    </g>
    <g id="line2d_164"/>
    <g id="text_22">
     <!-- ./Pattern-11-to-10.csv -->
     <g transform="translate(501.052187 52.10625)scale(0.08 -0.08)">
      <use xlink:href="#DejaVuSerif-46"/>
      <use x="31.787109" xlink:href="#DejaVuSerif-47"/>
      <use x="65.478516" xlink:href="#DejaVuSerif-80"/>
      <use x="128.263672" xlink:href="#DejaVuSerif-97"/>
      <use x="187.882812" xlink:href="#DejaVuSerif-116"/>
      <use x="228.068359" xlink:href="#DejaVuSerif-116"/>
      <use x="268.253906" xlink:href="#DejaVuSerif-101"/>
      <use x="327.433594" xlink:href="#DejaVuSerif-114"/>
      <use x="375.236328" xlink:href="#DejaVuSerif-110"/>
      <use x="439.640625" xlink:href="#DejaVuSerif-45"/>
      <use x="473.429688" xlink:href="#DejaVuSerif-49"/>
      <use x="537.052734" xlink:href="#DejaVuSerif-49"/>
      <use x="600.675781" xlink:href="#DejaVuSerif-45"/>
      <use x="634.464844" xlink:href="#DejaVuSerif-116"/>
      <use x="674.650391" xlink:href="#DejaVuSerif-111"/>
      <use x="734.855469" xlink:href="#DejaVuSerif-45"/>
      <use x="768.644531" xlink:href="#DejaVuSerif-49"/>
      <use x="832.267578" xlink:href="#DejaVuSerif-48"/>
      <use x="895.890625" xlink:href="#DejaVuSerif-46"/>
      <use x="927.677734" xlink:href="#DejaVuSerif-99"/>
      <use x="983.683594" xlink:href="#DejaVuSerif-115"/>
      <use x="1035.001953" xlink:href="#DejaVuSerif-118"/>
     </g>
    </g>
    <g id="line2d_165">
     <path d="M 478.652187 61.04875 
L 494.652187 61.04875 
" style="fill:none;stroke:#845b97;stroke-linecap:square;stroke-width:2;"/>
    </g>
    <g id="line2d_166"/>
    <g id="text_23">
     <!-- ./Pattern-01-to-10.csv -->
     <g transform="translate(501.052187 63.84875)scale(0.08 -0.08)">
      <use xlink:href="#DejaVuSerif-46"/>
      <use x="31.787109" xlink:href="#DejaVuSerif-47"/>
      <use x="65.478516" xlink:href="#DejaVuSerif-80"/>
      <use x="128.263672" xlink:href="#DejaVuSerif-97"/>
      <use x="187.882812" xlink:href="#DejaVuSerif-116"/>
      <use x="228.068359" xlink:href="#DejaVuSerif-116"/>
      <use x="268.253906" xlink:href="#DejaVuSerif-101"/>
      <use x="327.433594" xlink:href="#DejaVuSerif-114"/>
      <use x="375.236328" xlink:href="#DejaVuSerif-110"/>
      <use x="439.640625" xlink:href="#DejaVuSerif-45"/>
      <use x="473.429688" xlink:href="#DejaVuSerif-48"/>
      <use x="537.052734" xlink:href="#DejaVuSerif-49"/>
      <use x="600.675781" xlink:href="#DejaVuSerif-45"/>
      <use x="634.464844" xlink:href="#DejaVuSerif-116"/>
      <use x="674.650391" xlink:href="#DejaVuSerif-111"/>
      <use x="734.855469" xlink:href="#DejaVuSerif-45"/>
      <use x="768.644531" xlink:href="#DejaVuSerif-49"/>
      <use x="832.267578" xlink:href="#DejaVuSerif-48"/>
      <use x="895.890625" xlink:href="#DejaVuSerif-46"/>
      <use x="927.677734" xlink:href="#DejaVuSerif-99"/>
      <use x="983.683594" xlink:href="#DejaVuSerif-115"/>
      <use x="1035.001953" xlink:href="#DejaVuSerif-118"/>
     </g>
    </g>
    <g id="line2d_167">
     <path d="M 478.652187 72.79125 
L 494.652187 72.79125 
" style="fill:none;stroke:#474747;stroke-linecap:square;stroke-width:2;"/>
    </g>
    <g id="line2d_168"/>
    <g id="text_24">
     <!-- ./Pattern-01-to-11.csv -->
     <g transform="translate(501.052187 75.59125)scale(0.08 -0.08)">
      <use xlink:href="#DejaVuSerif-46"/>
      <use x="31.787109" xlink:href="#DejaVuSerif-47"/>
      <use x="65.478516" xlink:href="#DejaVuSerif-80"/>
      <use x="128.263672" xlink:href="#DejaVuSerif-97"/>
      <use x="187.882812" xlink:href="#DejaVuSerif-116"/>
      <use x="228.068359" xlink:href="#DejaVuSerif-116"/>
      <use x="268.253906" xlink:href="#DejaVuSerif-101"/>
      <use x="327.433594" xlink:href="#DejaVuSerif-114"/>
      <use x="375.236328" xlink:href="#DejaVuSerif-110"/>
      <use x="439.640625" xlink:href="#DejaVuSerif-45"/>
      <use x="473.429688" xlink:href="#DejaVuSerif-48"/>
      <use x="537.052734" xlink:href="#DejaVuSerif-49"/>
      <use x="600.675781" xlink:href="#DejaVuSerif-45"/>
      <use x="634.464844" xlink:href="#DejaVuSerif-116"/>
      <use x="674.650391" xlink:href="#DejaVuSerif-111"/>
      <use x="734.855469" xlink:href="#DejaVuSerif-45"/>
      <use x="768.644531" xlink:href="#DejaVuSerif-49"/>
      <use x="832.267578" xlink:href="#DejaVuSerif-49"/>
      <use x="895.890625" xlink:href="#DejaVuSerif-46"/>
      <use x="927.677734" xlink:href="#DejaVuSerif-99"/>
      <use x="983.683594" xlink:href="#DejaVuSerif-115"/>
      <use x="1035.001953" xlink:href="#DejaVuSerif-118"/>
     </g>
    </g>
    <g id="line2d_169">
     <path d="M 478.652187 84.53375 
L 494.652187 84.53375 
" style="fill:none;stroke:#9e9e9e;stroke-linecap:square;stroke-width:2;"/>
    </g>
    <g id="line2d_170"/>
    <g id="text_25">
     <!-- ./Pattern-10-to-11.csv -->
     <g transform="translate(501.052187 87.33375)scale(0.08 -0.08)">
      <use xlink:href="#DejaVuSerif-46"/>
      <use x="31.787109" xlink:href="#DejaVuSerif-47"/>
      <use x="65.478516" xlink:href="#DejaVuSerif-80"/>
      <use x="128.263672" xlink:href="#DejaVuSerif-97"/>
      <use x="187.882812" xlink:href="#DejaVuSerif-116"/>
      <use x="228.068359" xlink:href="#DejaVuSerif-116"/>
      <use x="268.253906" xlink:href="#DejaVuSerif-101"/>
      <use x="327.433594" xlink:href="#DejaVuSerif-114"/>
      <use x="375.236328" xlink:href="#DejaVuSerif-110"/>
      <use x="439.640625" xlink:href="#DejaVuSerif-45"/>
      <use x="473.429688" xlink:href="#DejaVuSerif-49"/>
      <use x="537.052734" xlink:href="#DejaVuSerif-48"/>
      <use x="600.675781" xlink:href="#DejaVuSerif-45"/>
      <use x="634.464844" xlink:href="#DejaVuSerif-116"/>
      <use x="674.650391" xlink:href="#DejaVuSerif-111"/>
      <use x="734.855469" xlink:href="#DejaVuSerif-45"/>
      <use x="768.644531" xlink:href="#DejaVuSerif-49"/>
      <use x="832.267578" xlink:href="#DejaVuSerif-49"/>
      <use x="895.890625" xlink:href="#DejaVuSerif-46"/>
      <use x="927.677734" xlink:href="#DejaVuSerif-99"/>
      <use x="983.683594" xlink:href="#DejaVuSerif-115"/>
      <use x="1035.001953" xlink:href="#DejaVuSerif-118"/>
     </g>
    </g>
    <g id="line2d_171">
     <path d="M 478.652187 96.27625 
L 494.652187 96.27625 
" style="fill:none;stroke:#0c5da5;stroke-dasharray:7.4,3.2;stroke-dashoffset:0;stroke-width:2;"/>
    </g>
    <g id="line2d_172"/>
    <g id="text_26">
     <!-- ./Pattern-11-to-01.csv -->
     <g transform="translate(501.052187 99.07625)scale(0.08 -0.08)">
      <use xlink:href="#DejaVuSerif-46"/>
      <use x="31.787109" xlink:href="#DejaVuSerif-47"/>
      <use x="65.478516" xlink:href="#DejaVuSerif-80"/>
      <use x="128.263672" xlink:href="#DejaVuSerif-97"/>
      <use x="187.882812" xlink:href="#DejaVuSerif-116"/>
      <use x="228.068359" xlink:href="#DejaVuSerif-116"/>
      <use x="268.253906" xlink:href="#DejaVuSerif-101"/>
      <use x="327.433594" xlink:href="#DejaVuSerif-114"/>
      <use x="375.236328" xlink:href="#DejaVuSerif-110"/>
      <use x="439.640625" xlink:href="#DejaVuSerif-45"/>
      <use x="473.429688" xlink:href="#DejaVuSerif-49"/>
      <use x="537.052734" xlink:href="#DejaVuSerif-49"/>
      <use x="600.675781" xlink:href="#DejaVuSerif-45"/>
      <use x="634.464844" xlink:href="#DejaVuSerif-116"/>
      <use x="674.650391" xlink:href="#DejaVuSerif-111"/>
      <use x="734.855469" xlink:href="#DejaVuSerif-45"/>
      <use x="768.644531" xlink:href="#DejaVuSerif-48"/>
      <use x="832.267578" xlink:href="#DejaVuSerif-49"/>
      <use x="895.890625" xlink:href="#DejaVuSerif-46"/>
      <use x="927.677734" xlink:href="#DejaVuSerif-99"/>
      <use x="983.683594" xlink:href="#DejaVuSerif-115"/>
      <use x="1035.001953" xlink:href="#DejaVuSerif-118"/>
     </g>
    </g>
    <g id="line2d_173">
     <path d="M 478.652187 108.01875 
L 494.652187 108.01875 
" style="fill:none;stroke:#00b945;stroke-dasharray:7.4,3.2;stroke-dashoffset:0;stroke-width:2;"/>
    </g>
    <g id="line2d_174"/>
    <g id="text_27">
     <!-- ./Pattern-00-to-10.csv -->
     <g transform="translate(501.052187 110.81875)scale(0.08 -0.08)">
      <use xlink:href="#DejaVuSerif-46"/>
      <use x="31.787109" xlink:href="#DejaVuSerif-47"/>
      <use x="65.478516" xlink:href="#DejaVuSerif-80"/>
      <use x="128.263672" xlink:href="#DejaVuSerif-97"/>
      <use x="187.882812" xlink:href="#DejaVuSerif-116"/>
      <use x="228.068359" xlink:href="#DejaVuSerif-116"/>
      <use x="268.253906" xlink:href="#DejaVuSerif-101"/>
      <use x="327.433594" xlink:href="#DejaVuSerif-114"/>
      <use x="375.236328" xlink:href="#DejaVuSerif-110"/>
      <use x="439.640625" xlink:href="#DejaVuSerif-45"/>
      <use x="473.429688" xlink:href="#DejaVuSerif-48"/>
      <use x="537.052734" xlink:href="#DejaVuSerif-48"/>
      <use x="600.675781" xlink:href="#DejaVuSerif-45"/>
      <use x="634.464844" xlink:href="#DejaVuSerif-116"/>
      <use x="674.650391" xlink:href="#DejaVuSerif-111"/>
      <use x="734.855469" xlink:href="#DejaVuSerif-45"/>
      <use x="768.644531" xlink:href="#DejaVuSerif-49"/>
      <use x="832.267578" xlink:href="#DejaVuSerif-48"/>
      <use x="895.890625" xlink:href="#DejaVuSerif-46"/>
      <use x="927.677734" xlink:href="#DejaVuSerif-99"/>
      <use x="983.683594" xlink:href="#DejaVuSerif-115"/>
      <use x="1035.001953" xlink:href="#DejaVuSerif-118"/>
     </g>
    </g>
    <g id="line2d_175">
     <path d="M 478.652187 119.76125 
L 494.652187 119.76125 
" style="fill:none;stroke:#ff9500;stroke-dasharray:7.4,3.2;stroke-dashoffset:0;stroke-width:2;"/>
    </g>
    <g id="line2d_176"/>
    <g id="text_28">
     <!-- ./Pattern-11-to-00.csv -->
     <g transform="translate(501.052187 122.56125)scale(0.08 -0.08)">
      <use xlink:href="#DejaVuSerif-46"/>
      <use x="31.787109" xlink:href="#DejaVuSerif-47"/>
      <use x="65.478516" xlink:href="#DejaVuSerif-80"/>
      <use x="128.263672" xlink:href="#DejaVuSerif-97"/>
      <use x="187.882812" xlink:href="#DejaVuSerif-116"/>
      <use x="228.068359" xlink:href="#DejaVuSerif-116"/>
      <use x="268.253906" xlink:href="#DejaVuSerif-101"/>
      <use x="327.433594" xlink:href="#DejaVuSerif-114"/>
      <use x="375.236328" xlink:href="#DejaVuSerif-110"/>
      <use x="439.640625" xlink:href="#DejaVuSerif-45"/>
      <use x="473.429688" xlink:href="#DejaVuSerif-49"/>
      <use x="537.052734" xlink:href="#DejaVuSerif-49"/>
      <use x="600.675781" xlink:href="#DejaVuSerif-45"/>
      <use x="634.464844" xlink:href="#DejaVuSerif-116"/>
      <use x="674.650391" xlink:href="#DejaVuSerif-111"/>
      <use x="734.855469" xlink:href="#DejaVuSerif-45"/>
      <use x="768.644531" xlink:href="#DejaVuSerif-48"/>
      <use x="832.267578" xlink:href="#DejaVuSerif-48"/>
      <use x="895.890625" xlink:href="#DejaVuSerif-46"/>
      <use x="927.677734" xlink:href="#DejaVuSerif-99"/>
      <use x="983.683594" xlink:href="#DejaVuSerif-115"/>
      <use x="1035.001953" xlink:href="#DejaVuSerif-118"/>
     </g>
    </g>
    <g id="line2d_177">
     <path d="M 478.652187 131.50375 
L 494.652187 131.50375 
" style="fill:none;stroke:#ff2c00;stroke-dasharray:7.4,3.2;stroke-dashoffset:0;stroke-width:2;"/>
    </g>
    <g id="line2d_178"/>
    <g id="text_29">
     <!-- ./Pattern-10-to-01.csv -->
     <g transform="translate(501.052187 134.30375)scale(0.08 -0.08)">
      <use xlink:href="#DejaVuSerif-46"/>
      <use x="31.787109" xlink:href="#DejaVuSerif-47"/>
      <use x="65.478516" xlink:href="#DejaVuSerif-80"/>
      <use x="128.263672" xlink:href="#DejaVuSerif-97"/>
      <use x="187.882812" xlink:href="#DejaVuSerif-116"/>
      <use x="228.068359" xlink:href="#DejaVuSerif-116"/>
      <use x="268.253906" xlink:href="#DejaVuSerif-101"/>
      <use x="327.433594" xlink:href="#DejaVuSerif-114"/>
      <use x="375.236328" xlink:href="#DejaVuSerif-110"/>
      <use x="439.640625" xlink:href="#DejaVuSerif-45"/>
      <use x="473.429688" xlink:href="#DejaVuSerif-49"/>
      <use x="537.052734" xlink:href="#DejaVuSerif-48"/>
      <use x="600.675781" xlink:href="#DejaVuSerif-45"/>
      <use x="634.464844" xlink:href="#DejaVuSerif-116"/>
      <use x="674.650391" xlink:href="#DejaVuSerif-111"/>
      <use x="734.855469" xlink:href="#DejaVuSerif-45"/>
      <use x="768.644531" xlink:href="#DejaVuSerif-48"/>
      <use x="832.267578" xlink:href="#DejaVuSerif-49"/>
      <use x="895.890625" xlink:href="#DejaVuSerif-46"/>
      <use x="927.677734" xlink:href="#DejaVuSerif-99"/>
      <use x="983.683594" xlink:href="#DejaVuSerif-115"/>
      <use x="1035.001953" xlink:href="#DejaVuSerif-118"/>
     </g>
    </g>
    <g id="line2d_179">
     <path d="M 478.652187 143.24625 
L 494.652187 143.24625 
" style="fill:none;stroke:#845b97;stroke-dasharray:7.4,3.2;stroke-dashoffset:0;stroke-width:2;"/>
    </g>
    <g id="line2d_180"/>
    <g id="text_30">
     <!-- ./Pattern-01-to-00.csv -->
     <g transform="translate(501.052187 146.04625)scale(0.08 -0.08)">
      <use xlink:href="#DejaVuSerif-46"/>
      <use x="31.787109" xlink:href="#DejaVuSerif-47"/>
      <use x="65.478516" xlink:href="#DejaVuSerif-80"/>
      <use x="128.263672" xlink:href="#DejaVuSerif-97"/>
      <use x="187.882812" xlink:href="#DejaVuSerif-116"/>
      <use x="228.068359" xlink:href="#DejaVuSerif-116"/>
      <use x="268.253906" xlink:href="#DejaVuSerif-101"/>
      <use x="327.433594" xlink:href="#DejaVuSerif-114"/>
      <use x="375.236328" xlink:href="#DejaVuSerif-110"/>
      <use x="439.640625" xlink:href="#DejaVuSerif-45"/>
      <use x="473.429688" xlink:href="#DejaVuSerif-48"/>
      <use x="537.052734" xlink:href="#DejaVuSerif-49"/>
      <use x="600.675781" xlink:href="#DejaVuSerif-45"/>
      <use x="634.464844" xlink:href="#DejaVuSerif-116"/>
      <use x="674.650391" xlink:href="#DejaVuSerif-111"/>
      <use x="734.855469" xlink:href="#DejaVuSerif-45"/>
      <use x="768.644531" xlink:href="#DejaVuSerif-48"/>
      <use x="832.267578" xlink:href="#DejaVuSerif-48"/>
      <use x="895.890625" xlink:href="#DejaVuSerif-46"/>
      <use x="927.677734" xlink:href="#DejaVuSerif-99"/>
      <use x="983.683594" xlink:href="#DejaVuSerif-115"/>
      <use x="1035.001953" xlink:href="#DejaVuSerif-118"/>
     </g>
    </g>
   </g>
  </g>
 </g>
 <defs>
  <clipPath id="pabd1362748">
   <rect height="554.4" width="558" x="37.573438" y="3.6"/>
  </clipPath>
 </defs>
</svg>
