<?xml version="1.0" encoding="UTF-8" standalone="no"?>
<svg
   xmlns:dc="http://purl.org/dc/elements/1.1/"
   xmlns:cc="http://creativecommons.org/ns#"
   xmlns:rdf="http://www.w3.org/1999/02/22-rdf-syntax-ns#"
   xmlns:svg="http://www.w3.org/2000/svg"
   xmlns="http://www.w3.org/2000/svg"
   xmlns:xlink="http://www.w3.org/1999/xlink"
   xmlns:sodipodi="http://sodipodi.sourceforge.net/DTD/sodipodi-0.dtd"
   xmlns:inkscape="http://www.inkscape.org/namespaces/inkscape"
   height="157.15009pt"
   version="1.1"
   viewBox="0 0 166.63698 157.15009"
   width="166.63698pt"
   id="svg324"
   sodipodi:docname="resnet18-baseline-only.svg"
   inkscape:version="1.0.2 (1.0.2+r75+1)">
  <sodipodi:namedview
     pagecolor="#ffffff"
     bordercolor="#666666"
     borderopacity="1"
     objecttolerance="10"
     gridtolerance="10"
     guidetolerance="10"
     inkscape:pageopacity="0"
     inkscape:pageshadow="2"
     inkscape:window-width="2233"
     inkscape:window-height="1389"
     id="namedview326"
     showgrid="false"
     inkscape:zoom="2.2064395"
     inkscape:cx="4.2408132"
     inkscape:cy="182.80039"
     inkscape:window-x="1"
     inkscape:window-y="19"
     inkscape:window-maximized="0"
     inkscape:current-layer="svg324" />
  <metadata
     id="metadata2">
    <rdf:RDF>
      <cc:Work>
        <dc:type
           rdf:resource="http://purl.org/dc/dcmitype/StillImage" />
        <dc:date>2021-11-17T12:21:18.190879</dc:date>
        <dc:format>image/svg+xml</dc:format>
        <dc:creator>
          <cc:Agent>
            <dc:title>Matplotlib v3.3.4, https://matplotlib.org/</dc:title>
          </cc:Agent>
        </dc:creator>
        <dc:title></dc:title>
      </cc:Work>
    </rdf:RDF>
  </metadata>
  <defs
     id="defs6">
    <style
       type="text/css"
       id="style4">*{stroke-linecap:butt;stroke-linejoin:round;}</style>
  </defs>
  <path
     d="M 6.0638992,149.90583 H 155.96973 V 0 H 6.0638992 Z"
     style="fill:#ffffff;stroke-width:0.946375"
     id="path8" />
  <path
     d="M 24.802129,133.41619 H 140.97915 V 17.9887 H 24.802129 Z"
     style="fill:#ffffff;stroke-width:0.946375"
     id="path11" />
  <g
     id="xtick_1"
     transform="matrix(0.94637521,0,0,0.94637521,6.0638992,0)">
    <g
       id="line2d_1">
      <defs
         id="defs15">
        <path
           d="M 0,0 V 3.5"
           id="m36aa9439b7"
           style="stroke:#000000;stroke-width:0.8" />
      </defs>
      <g
         id="g19">
        <use
           style="stroke:#000000;stroke-width:0.8"
           x="25.379999"
           xlink:href="#m36aa9439b7"
           y="140.976"
           id="use17"
           width="100%"
           height="100%" />
      </g>
    </g>
    <g
       id="text_1">
      <!-- $\mathregular{2^{1}}$ -->
      <g
         transform="matrix(0.08,0,0,-0.08,21.82,153.441)"
         id="g30">
        <defs
           id="defs24">
          <path
             d="M 47.46875,13.71875 42,0 H 2.984375 v 1.21875 l 17.8125,18.90625 q 6.296875,6.6875 9.640625,13.375 3.359375,6.6875 3.359375,12.59375 0,6.734375 -4.359375,10.75 -3.65625,3.359375 -9.703125,3.359375 -5.53125,0 -8.65625,-3.078125 -3.0625,-2.921875 -5.90625,-9.90625 l -2.09375,0.484375 Q 4.34375,53.03125 5.6875,55.9375 q 1.34375,2.90625 3.734375,5.4375 5.859375,6.25 14.5,6.25 8.59375,0 13.96875,-5.953125 4.5,-4.984375 4.5,-11.671875 0,-6.296875 -3.421875,-12.59375 -3.03125,-5.515625 -9.375,-12.203125 L 12.796875,7.625 h 23.875 q 2.390625,0 3.75,0.484375 1.375,0.484375 2.59375,1.75 0.9375,0.984375 3.171875,4.34375 z"
             id="NimbusRomNo9L-Regu-50" />
          <path
             d="m 29.109375,67.625 0.78125,-0.1875 V 7.421875 q 0.04687,-3.703125 1.75,-4.6875 Q 33.203125,1.8125 35.5,1.65625 37.109375,1.515625 39.40625,1.515625 V 0 H 11.765625 v 1.515625 q 5.078125,0.140625 7.1875,1.3125 2.28125,1.21875 2.34375,6.453125 v 45.3125 q 0,4.734375 -2.9375,4.734375 -1.421875,0 -7.28125,-2.203125 V 58.5 Z"
             id="NimbusRomNo9L-Regu-49" />
        </defs>
        <use
           transform="translate(0,0.151563)"
           xlink:href="#NimbusRomNo9L-Regu-50"
           id="use26"
           x="0"
           y="0"
           width="100%"
           height="100%" />
        <use
           transform="matrix(0.7,0,0,0.7,50.787773,31.6625)"
           xlink:href="#NimbusRomNo9L-Regu-49"
           id="use28"
           x="0"
           y="0"
           width="100%"
           height="100%" />
      </g>
    </g>
  </g>
  <g
     id="xtick_2"
     transform="matrix(0.94637521,0,0,0.94637521,6.0638992,0)">
    <g
       id="line2d_2">
      <g
         id="g36">
        <use
           style="stroke:#000000;stroke-width:0.8"
           x="43.98"
           xlink:href="#m36aa9439b7"
           y="140.976"
           id="use34"
           width="100%"
           height="100%" />
      </g>
    </g>
    <g
       id="text_2">
      <!-- $\mathregular{2^{5}}$ -->
      <g
         transform="matrix(0.08,0,0,-0.08,40.42,153.441)"
         id="g46">
        <defs
           id="defs40">
          <path
             d="m 18.109375,58.296875 -4.1875,-8.484375 q 9.125,-1.625 14.0625,-3.71875 7.21875,-3.078125 10.953125,-8.640625 3.734375,-5.5625 3.734375,-13.28125 0,-11.140625 -6.640625,-17.78125 -7.8125,-7.8125 -20.65625,-7.8125 -5.3125,0 -9.375,1.953125 -2.78125,1.328125 -2.78125,4.296875 0,3.671875 4.25,3.671875 3.125,0 7.671875,-3.328125 4,-2.875 6.640625,-2.875 5.46875,0 9.46875,4.390625 4.390625,4.890625 4.390625,12.75 0,8 -4.828125,13.1875 -4.203125,4.390625 -14.265625,7.171875 -5.015625,1.421875 -7.75,1.421875 L 7.46875,41.15625 q -1.078125,0 -1.078125,0.78125 0,0.296875 0.15625,0.546875 L 17.4375,66.21875 h 20.890625 q 2.15625,0.04687 3.375,1.171875 0.4375,0.390625 1.21875,1.40625 l 0.875,-0.6875 -3.75,-8.921875 q -0.25,-0.453125 -0.546875,-0.640625 -0.390625,-0.25 -1.75,-0.25 z"
             id="NimbusRomNo9L-Regu-53" />
        </defs>
        <use
           transform="translate(0,0.33125)"
           xlink:href="#NimbusRomNo9L-Regu-50"
           id="use42"
           x="0"
           y="0"
           width="100%"
           height="100%" />
        <use
           transform="matrix(0.7,0,0,0.7,50.787773,31.842188)"
           xlink:href="#NimbusRomNo9L-Regu-53"
           id="use44"
           x="0"
           y="0"
           width="100%"
           height="100%" />
      </g>
    </g>
  </g>
  <g
     id="xtick_3"
     transform="matrix(0.94637521,0,0,0.94637521,6.0638992,0)">
    <g
       id="line2d_3">
      <g
         id="g52">
        <use
           style="stroke:#000000;stroke-width:0.8"
           x="62.580002"
           xlink:href="#m36aa9439b7"
           y="140.976"
           id="use50"
           width="100%"
           height="100%" />
      </g>
    </g>
    <g
       id="text_3">
      <!-- $\mathregular{2^{9}}$ -->
      <g
         transform="matrix(0.08,0,0,-0.08,59.02,153.441)"
         id="g62">
        <defs
           id="defs56">
          <path
             d="m 5.90625,-2.203125 -0.34375,2 Q 10.453125,0.875 13.03125,1.78125 15.625,2.6875 18.265625,4.296875 q 13.578125,8.40625 17.71875,25.140625 -3.65625,-2.828125 -6.484375,-4 -4.15625,-1.703125 -8.546875,-1.703125 -8.0625,0 -12.890625,5.375 -2.34375,2.625 -3.71875,6.609375 -1.359375,3.984375 -1.359375,8.328125 0,5.421875 2,10.328125 2,4.90625 5.46875,8.125 5.609375,5.125 13.328125,5.125 9.171875,0 15.328125,-7.078125 3.125,-3.609375 4.953125,-9.28125 1.84375,-5.65625 1.84375,-11.8125 0,-13.375 -7.328125,-24.078125 Q 32.234375,6.109375 21.34375,1.3125 15.875,-1.078125 5.90625,-2.203125 Z M 36.1875,35.5 v 3.90625 q 0,25.4375 -13.1875,25.4375 -4.4375,0 -7.078125,-3.125 Q 14.3125,59.765625 13.25,55.703125 12.203125,51.65625 12.203125,47.40625 q 0,-5.359375 1.421875,-9.875 1.421875,-4.515625 3.8125,-6.671875 3.125,-2.828125 7.125,-2.828125 5.765625,0 10.15625,3.65625 1.46875,1.171875 1.46875,3.8125 z"
             id="NimbusRomNo9L-Regu-57" />
        </defs>
        <use
           transform="translate(0,0.151563)"
           xlink:href="#NimbusRomNo9L-Regu-50"
           id="use58"
           x="0"
           y="0"
           width="100%"
           height="100%" />
        <use
           transform="matrix(0.7,0,0,0.7,50.787773,31.6625)"
           xlink:href="#NimbusRomNo9L-Regu-57"
           id="use60"
           x="0"
           y="0"
           width="100%"
           height="100%" />
      </g>
    </g>
  </g>
  <g
     id="xtick_4"
     transform="matrix(0.94637521,0,0,0.94637521,6.0638992,0)">
    <g
       id="line2d_4">
      <g
         id="g68">
        <use
           style="stroke:#000000;stroke-width:0.8"
           x="81.18"
           xlink:href="#m36aa9439b7"
           y="140.976"
           id="use66"
           width="100%"
           height="100%" />
      </g>
    </g>
    <g
       id="text_4">
      <!-- $\mathregular{2^{13}}$ -->
      <g
         transform="matrix(0.08,0,0,-0.08,76.22,153.441)"
         id="g80">
        <defs
           id="defs72">
          <path
             d="m 15.234375,33.015625 v 1.3125 q 5.125,1.8125 7.703125,3.21875 2.59375,1.421875 4.84375,3.671875 4,4.046875 4,9.65625 0,5.03125 -3.265625,8.015625 Q 25.53125,61.625 20.796875,61.625 11.765625,61.625 6,51.03125 l -1.5,0.390625 q 2,5.609375 3.796875,8.09375 5.8125,8.109375 15.828125,8.109375 8.15625,0 12.203125,-4.734375 3.375,-3.90625 3.375,-8.9375 0,-5.078125 -3.71875,-9.21875 -1.65625,-1.90625 -5.609375,-4.640625 5.609375,-2.390625 8.25,-5.328125 4.4375,-4.828125 4.4375,-12.84375 0,-10.34375 -7.21875,-16.59375 -3.5625,-3.125 -9.0625,-4.9375 -5.484375,-1.8125 -11.296875,-1.8125 -4.9375,0 -8.59375,1.8125 -2.59375,1.21875 -2.59375,3.953125 0,1.609375 1.03125,2.5 1.0625,0.96875 2.78125,0.96875 2.296875,0 6.34375,-2.53125 4.78125,-3.078125 8.40625,-3.078125 5.609375,0 9.21875,4.1875 3.8125,4.453125 3.8125,10.75 0,9.125 -7.375,13.53125 Q 24.5625,33.0625 18.21875,33.0625 q -1.078125,0 -2.984375,-0.04687 z"
             id="NimbusRomNo9L-Regu-51" />
        </defs>
        <use
           transform="translate(0,0.151563)"
           xlink:href="#NimbusRomNo9L-Regu-50"
           id="use74"
           x="0"
           y="0"
           width="100%"
           height="100%" />
        <use
           transform="matrix(0.7,0,0,0.7,50.787773,31.6625)"
           xlink:href="#NimbusRomNo9L-Regu-49"
           id="use76"
           x="0"
           y="0"
           width="100%"
           height="100%" />
        <use
           transform="matrix(0.7,0,0,0.7,85.787773,31.6625)"
           xlink:href="#NimbusRomNo9L-Regu-51"
           id="use78"
           x="0"
           y="0"
           width="100%"
           height="100%" />
      </g>
    </g>
  </g>
  <g
     id="xtick_5"
     transform="matrix(0.94637521,0,0,0.94637521,6.0638992,0)">
    <g
       id="line2d_5">
      <g
         id="g86">
        <use
           style="stroke:#000000;stroke-width:0.8"
           x="99.779999"
           xlink:href="#m36aa9439b7"
           y="140.976"
           id="use84"
           width="100%"
           height="100%" />
      </g>
    </g>
    <g
       id="text_5">
      <!-- $\mathregular{2^{17}}$ -->
      <g
         transform="matrix(0.08,0,0,-0.08,94.82,153.441)"
         id="g98">
        <defs
           id="defs90">
          <path
             d="m 44.921875,66.21875 v -1.625 l -21.1875,-65.375 h -6.5 l 19.78125,59.578125 h -21.6875 q -2.921875,0 -4.78125,-0.765625 Q 8.6875,57.28125 7.03125,55.375 5.90625,54.109375 3.71875,50.6875 L 2,51.515625 7.90625,66.21875 Z"
             id="NimbusRomNo9L-Regu-55" />
        </defs>
        <use
           transform="translate(0,0.151563)"
           xlink:href="#NimbusRomNo9L-Regu-50"
           id="use92"
           x="0"
           y="0"
           width="100%"
           height="100%" />
        <use
           transform="matrix(0.7,0,0,0.7,50.787773,31.6625)"
           xlink:href="#NimbusRomNo9L-Regu-49"
           id="use94"
           x="0"
           y="0"
           width="100%"
           height="100%" />
        <use
           transform="matrix(0.7,0,0,0.7,85.787773,31.6625)"
           xlink:href="#NimbusRomNo9L-Regu-55"
           id="use96"
           x="0"
           y="0"
           width="100%"
           height="100%" />
      </g>
    </g>
  </g>
  <g
     id="xtick_6"
     transform="matrix(0.94637521,0,0,0.94637521,6.0638992,0)">
    <g
       id="line2d_6">
      <g
         id="g104">
        <use
           style="stroke:#000000;stroke-width:0.8"
           x="118.38"
           xlink:href="#m36aa9439b7"
           y="140.976"
           id="use102"
           width="100%"
           height="100%" />
      </g>
    </g>
    <g
       id="text_6">
      <!-- $\mathregular{2^{21}}$ -->
      <g
         transform="matrix(0.08,0,0,-0.08,113.42,153.441)"
         id="g113">
        <use
           transform="translate(0,0.151563)"
           xlink:href="#NimbusRomNo9L-Regu-50"
           id="use107"
           x="0"
           y="0"
           width="100%"
           height="100%" />
        <use
           transform="matrix(0.7,0,0,0.7,50.787773,31.6625)"
           xlink:href="#NimbusRomNo9L-Regu-50"
           id="use109"
           x="0"
           y="0"
           width="100%"
           height="100%" />
        <use
           transform="matrix(0.7,0,0,0.7,85.787773,31.6625)"
           xlink:href="#NimbusRomNo9L-Regu-49"
           id="use111"
           x="0"
           y="0"
           width="100%"
           height="100%" />
      </g>
    </g>
  </g>
  <g
     id="xtick_7"
     transform="matrix(0.94637521,0,0,0.94637521,6.0638992,0)">
    <g
       id="line2d_7">
      <g
         id="g119">
        <use
           style="stroke:#000000;stroke-width:0.8"
           x="136.98"
           xlink:href="#m36aa9439b7"
           y="140.976"
           id="use117"
           width="100%"
           height="100%" />
      </g>
    </g>
    <g
       id="text_7">
      <!-- $\mathregular{2^{25}}$ -->
      <g
         transform="matrix(0.08,0,0,-0.08,132.02,153.441)"
         id="g128">
        <use
           transform="translate(0,0.33125)"
           xlink:href="#NimbusRomNo9L-Regu-50"
           id="use122"
           x="0"
           y="0"
           width="100%"
           height="100%" />
        <use
           transform="matrix(0.7,0,0,0.7,50.787773,31.842188)"
           xlink:href="#NimbusRomNo9L-Regu-50"
           id="use124"
           x="0"
           y="0"
           width="100%"
           height="100%" />
        <use
           transform="matrix(0.7,0,0,0.7,85.787773,31.842188)"
           xlink:href="#NimbusRomNo9L-Regu-53"
           id="use126"
           x="0"
           y="0"
           width="100%"
           height="100%" />
      </g>
    </g>
  </g>
  <g
     id="text_8"
     transform="matrix(0.94637521,0,0,0.94637521,6.0638992,0)">
    <!-- Time (s) -->
    <g
       transform="matrix(0.08,0,0,-0.08,67.598125,164.641)"
       id="g158">
      <defs
         id="defs140">
        <path
           d="M 25.390625,62.015625 H 19.96875 Q 10.203125,61.859375 7.8125,58.84375 6.296875,57.078125 5.46875,54.640625 q -0.6875,-2.25 -1.359375,-5.421875 h -2.40625 l 0.59375,17 H 58.6875 l 0.59375,-17 H 56.890625 Q 55.8125,54.390625 55.03125,56 q -1.46875,3.1875 -3.515625,4.359375 -2.9375,1.609375 -10.5,1.65625 H 35.59375 v -51.125 q 0.09375,-6.15625 2.203125,-7.375 Q 39.3125,2.484375 41.40625,2.203125 42.96875,2 45.21875,1.90625 V 0 h -29.25 v 1.90625 q 4.046875,0.25 5.21875,0.6875 2.296875,0.625 3.125,1.90625 1.03125,1.5625 1.078125,7.515625 z"
           id="NimbusRomNo9L-Regu-84" />
        <path
           d="m 17.53125,46 0.390625,-0.296875 v -35.5 q 0.09375,-6.34375 1.8125,-7.375 1.5625,-1.015625 5.609375,-1.3125 V 0 H 1.609375 v 1.515625 q 4.296875,0.25 5.90625,1.171875 1.90625,1.03125 2,7.515625 V 33.40625 q 0,4.234375 -1.265625,5.359375 -0.6875,0.640625 -2,0.640625 -1.421875,0 -3.46875,-0.296875 L 2,39.015625 V 40.53125 Z M 12.9375,68.3125 q 2.25,0 3.765625,-1.703125 1.3125,-1.421875 1.3125,-3.421875 0,-2.296875 -1.65625,-3.765625 -1.421875,-1.3125 -3.515625,-1.3125 -2.296875,0 -3.71875,1.609375 -1.3125,1.515625 -1.3125,3.515625 0,2.140625 1.765625,3.8125 Q 10.84375,68.3125 12.9375,68.3125 Z"
           id="NimbusRomNo9L-Regu-105" />
        <path
           d="M 1.90625,39.84375 V 41.5 q 7.328125,2.0625 14.015625,4.5 l 0.6875,-0.203125 v -7.46875 q 5.21875,4 7.8125,5.46875 Q 28.375,46 32.125,46 40.046875,46 42.671875,37.59375 50.484375,46 58.984375,46 q 11.625,0 11.625,-17.78125 V 7.625 Q 70.65625,4 71.921875,2.984375 73.1875,1.859375 74.90625,1.703125 l 2.578125,-0.1875 V 0 h -21.875 v 1.515625 q 3.71875,0.4375 4.984375,1.265625 1.5625,0.875 1.609375,5.90625 v 21.140625 q 0,5.765625 -1.3125,8.0625 -1.65625,2.875 -6.15625,2.875 -4.6875,0 -8.046875,-2.734375 -1.28125,-1.0625 -2.890625,-3.3125 V 9.515625 q 0.09375,-5.796875 2.296875,-7.03125 1.515625,-0.875 4.890625,-0.96875 V 0 h -22.375 v 1.515625 q 3.5625,0.25 4.9375,1.125 1.8125,0.96875 1.859375,5.953125 v 21.734375 q 0,10.5 -6.453125,10.5 -2.734375,0 -5.640625,-1.125 -2.90625,-1.125 -4.75,-2.890625 Q 17,35.40625 17,34.90625 V 6.6875 q 0.04687,-3.21875 1.703125,-4.203125 1.609375,-0.875 5.078125,-0.96875 V 0 H 1.609375 v 1.515625 q 3.421875,0.046875 4.9375,0.96875 2,1.125 2.046875,6.015625 v 25.296875 q 0,4.625 -1.3125,5.796875 -0.6875,0.640625 -2.15625,0.640625 -1.46875,0 -3.21875,-0.390625 z"
           id="NimbusRomNo9L-Regu-109" />
        <path
           d="m 40.765625,16.40625 1.625,-0.734375 Q 39.75,8.84375 35.453125,4.828125 q -6.15625,-5.8125 -14.21875,-5.8125 -8.4375,0 -13.515625,5.71875 -2.390625,2.6875 -3.8125,7.171875 -1.421875,4.5 -1.421875,9.484375 0,6.203125 1.921875,11.28125 1.9375,5.078125 5.453125,8.203125 5.8125,5.171875 13.484375,5.171875 8.25,0 12.84375,-5.765625 2.578125,-3.265625 3.46875,-7.375 0.484375,-2.234375 0.828125,-5.21875 H 9.671875 Q 9.96875,19.53125 12.453125,14.5 q 4.25,-8.59375 12.890625,-8.59375 6.5,0 11.375,5.03125 1.765625,1.8125 4.046875,5.46875 z m -30.90625,14.5 H 30.28125 q -0.890625,5.953125 -2.796875,8.59375 -2.046875,2.9375 -6.96875,2.9375 -8.984375,0 -10.65625,-11.53125 z"
           id="NimbusRomNo9L-Regu-101" />
        <path
           id="NimbusRomNo9L-Regu-32"
           d="" />
        <path
           d="m 29.5,67.625 0.875,-1.609375 Q 25,61.671875 22.21875,58.34375 19.4375,55.03125 17.390625,50.390625 13.375,41.21875 13.375,25.484375 q 0,-14.546875 3.515625,-24.3125 2.296875,-6.25 5.625,-10.109375 Q 25,-11.859375 30.375,-16.0625 l -1.171875,-1.609375 q -3.90625,2.34375 -6.375,4.46875 -2.46875,2.125 -5.59375,5.734375 -6.546875,7.609375 -9.5,15.34375 -2.953125,7.75 -2.953125,17.265625 0,17.53125 10.546875,30.46875 3.234375,3.90625 6.40625,6.5 2.875,2.296875 7.765625,5.515625 z"
           id="NimbusRomNo9L-Regu-40" />
        <path
           d="m 31.5,31.390625 h -1.515625 q -1.265625,4.984375 -2.4375,7.09375 -3.03125,5.21875 -8.59375,5.21875 -4.015625,0 -6.0625,-2.390625 -1.609375,-1.859375 -1.609375,-4.390625 0,-4.296875 4.296875,-6.84375 L 26.375,23.6875 q 4.921875,-2.9375 7.03125,-6.25 1.359375,-2.15625 1.359375,-5.625 0,-5.46875 -4.15625,-9.03125 -4.34375,-3.765625 -9.8125,-3.765625 -3.171875,0 -7.46875,1.03125 Q 10.25,0.78125 8.734375,0.78125 7.328125,0.78125 6.5,-0.390625 H 5.171875 V 15.1875 H 6.78125 Q 8.453125,7.953125 11.078125,4.734375 14.0625,1.21875 19.484375,1.21875 q 4.484375,0 6.640625,2.5 1.65625,1.84375 1.65625,4.6875 0,4.53125 -5.21875,7.46875 l -5.765625,3.3125 q -8.15625,4.640625 -10.25,8.59375 -1.46875,2.78125 -1.46875,5.8125 0,5.375 3.859375,8.9375 Q 12.703125,46 18.75,46 22.3125,46 25.734375,44.625 27.390625,44 28.375,44 q 0.78125,0 1.609375,1.125 H 31.0625 Z"
           id="NimbusRomNo9L-Regu-115" />
        <path
           d="M 3.765625,-17.671875 2.875,-16.0625 q 5.421875,4.296875 8.171875,7.640625 2.765625,3.34375 4.828125,7.984375 4,9.125 4,24.859375 0,14.546875 -3.515625,24.3125 Q 14.0625,55.03125 10.75,58.890625 q -2.5,2.875 -7.875,7.125 L 4.109375,67.625 q 3.84375,-2.390625 6.3125,-4.5 2.46875,-2.09375 5.59375,-5.703125 Q 22.5625,49.8125 25.515625,42.0625 28.46875,34.328125 28.46875,24.75 28.46875,7.234375 17.921875,-5.671875 14.703125,-9.625 11.53125,-12.15625 8.640625,-14.453125 3.765625,-17.671875 Z"
           id="NimbusRomNo9L-Regu-41" />
      </defs>
      <use
         xlink:href="#NimbusRomNo9L-Regu-84"
         id="use142"
         x="0"
         y="0"
         width="100%"
         height="100%" />
      <use
         x="59.083984"
         xlink:href="#NimbusRomNo9L-Regu-105"
         id="use144"
         y="0"
         width="100%"
         height="100%" />
      <use
         x="86.867188"
         xlink:href="#NimbusRomNo9L-Regu-109"
         id="use146"
         y="0"
         width="100%"
         height="100%" />
      <use
         x="164.65039"
         xlink:href="#NimbusRomNo9L-Regu-101"
         id="use148"
         y="0"
         width="100%"
         height="100%" />
      <use
         x="209.03516"
         xlink:href="#NimbusRomNo9L-Regu-32"
         id="use150"
         y="0"
         width="100%"
         height="100%" />
      <use
         x="234.03516"
         xlink:href="#NimbusRomNo9L-Regu-40"
         id="use152"
         y="0"
         width="100%"
         height="100%" />
      <use
         x="267.33594"
         xlink:href="#NimbusRomNo9L-Regu-115"
         id="use154"
         y="0"
         width="100%"
         height="100%" />
      <use
         x="306.25195"
         xlink:href="#NimbusRomNo9L-Regu-41"
         id="use156"
         y="0"
         width="100%"
         height="100%" />
    </g>
  </g>
  <g
     id="ytick_1"
     transform="matrix(0.94637521,0,0,0.94637521,6.0638992,0)">
    <g
       id="line2d_8">
      <defs
         id="defs163">
        <path
           d="M 0,0 H -3.5"
           id="mcc61ede466"
           style="stroke:#000000;stroke-width:0.8" />
      </defs>
      <g
         id="g167">
        <use
           style="stroke:#000000;stroke-width:0.8"
           x="19.799999"
           xlink:href="#mcc61ede466"
           y="121.19338"
           id="use165"
           width="100%"
           height="100%" />
      </g>
    </g>
    <g
       id="text_9">
      <!-- 20 -->
      <g
         transform="matrix(0.08,0,0,-0.08,4.8,123.92589)"
         id="g177">
        <defs
           id="defs171">
          <path
             d="m 25.34375,67.625 q 10.546875,0 16.703125,-10.59375 2.578125,-4.484375 4.0625,-10.890625 1.5,-6.390625 1.5,-13.125 0,-13.28125 -5.515625,-23.890625 Q 39.40625,4 34.46875,1.03125 30.421875,-1.421875 25,-1.421875 q -8.890625,0 -14.59375,6.796875 -3.515625,4.203125 -5.765625,12.109375 -2.25,7.90625 -2.25,16.15625 0,12.9375 5.5625,23.390625 Q 13.625,67.625 25.34375,67.625 Z m -0.484375,-2.578125 q -5.125,0 -8.40625,-5.8125 -4.4375,-7.921875 -4.4375,-26.28125 0,-31.78125 12.984375,-31.78125 5.421875,0 8.40625,5.328125 4.578125,8.25 4.578125,25.96875 0,32.578125 -13.125,32.578125 z"
             id="NimbusRomNo9L-Regu-48" />
        </defs>
        <use
           xlink:href="#NimbusRomNo9L-Regu-50"
           id="use173"
           x="0"
           y="0"
           width="100%"
           height="100%" />
        <use
           x="50"
           xlink:href="#NimbusRomNo9L-Regu-48"
           id="use175"
           y="0"
           width="100%"
           height="100%" />
      </g>
    </g>
  </g>
  <g
     id="ytick_2"
     transform="matrix(0.94637521,0,0,0.94637521,6.0638992,0)">
    <g
       id="line2d_9">
      <g
         id="g183">
        <use
           style="stroke:#000000;stroke-width:0.8"
           x="19.799999"
           xlink:href="#mcc61ede466"
           y="93.884956"
           id="use181"
           width="100%"
           height="100%" />
      </g>
    </g>
    <g
       id="text_10">
      <!-- 40 -->
      <g
         transform="matrix(0.08,0,0,-0.08,4.8,96.617458)"
         id="g193">
        <defs
           id="defs187">
          <path
             d="M 47.21875,23.09375 V 16.703125 H 37.015625 V 0 h -7.71875 V 16.703125 H 1.21875 V 23.09375 L 32.625,67.578125 h 4.390625 V 23.09375 Z m -18.015625,0 V 57.375 L 5.21875,23.09375 Z"
             id="NimbusRomNo9L-Regu-52" />
        </defs>
        <use
           xlink:href="#NimbusRomNo9L-Regu-52"
           id="use189"
           x="0"
           y="0"
           width="100%"
           height="100%" />
        <use
           x="50"
           xlink:href="#NimbusRomNo9L-Regu-48"
           id="use191"
           y="0"
           width="100%"
           height="100%" />
      </g>
    </g>
  </g>
  <g
     id="ytick_3"
     transform="matrix(0.94637521,0,0,0.94637521,6.0638992,0)">
    <g
       id="line2d_10">
      <g
         id="g199">
        <use
           style="stroke:#000000;stroke-width:0.8"
           x="19.799999"
           xlink:href="#mcc61ede466"
           y="66.57653"
           id="use197"
           width="100%"
           height="100%" />
      </g>
    </g>
    <g
       id="text_11">
      <!-- 60 -->
      <g
         transform="matrix(0.08,0,0,-0.08,4.8,69.30903)"
         id="g209">
        <defs
           id="defs203">
          <path
             d="m 44.625,68.40625 0.203125,-1.609375 q -5.03125,-1.078125 -7.703125,-2 Q 34.46875,63.875 31.78125,62.25 22.46875,56.6875 18.0625,47.46875 q -1.453125,-3.1875 -2.828125,-9.1875 3.859375,2.34375 5.8125,3.21875 3.03125,1.328125 6.9375,1.328125 9.03125,0 13.953125,-5.765625 4.890625,-5.71875 4.890625,-15.140625 0,-5.46875 -1.9375,-10.359375 Q 42.96875,6.6875 39.59375,3.609375 34.125,-1.421875 25.875,-1.421875 q -9.65625,0 -15.46875,6.796875 -3.171875,3.75 -5.078125,9.859375 -1.90625,6.109375 -1.90625,12.703125 0,13.078125 7.078125,22.9375 6.828125,9.53125 18.3125,14.265625 5.703125,2.390625 15.8125,3.265625 z M 23.96875,38.234375 q -5.171875,0 -8.4375,-2.484375 Q 12.75,33.640625 12.75,26.5625 q 0,-12.015625 3.703125,-18.546875 1.8125,-3.1875 4.5625,-4.921875 2.765625,-1.71875 5.9375,-1.71875 4.390625,0 7.234375,3.171875 1.65625,1.796875 2.65625,5.625 1,3.84375 1,8.234375 0,8.640625 -2.984375,13.71875 -3.515625,6.109375 -10.890625,6.109375 z"
             id="NimbusRomNo9L-Regu-54" />
        </defs>
        <use
           xlink:href="#NimbusRomNo9L-Regu-54"
           id="use205"
           x="0"
           y="0"
           width="100%"
           height="100%" />
        <use
           x="50"
           xlink:href="#NimbusRomNo9L-Regu-48"
           id="use207"
           y="0"
           width="100%"
           height="100%" />
      </g>
    </g>
  </g>
  <g
     id="ytick_4"
     transform="matrix(0.94637521,0,0,0.94637521,6.0638992,0)">
    <g
       id="line2d_11">
      <g
         id="g215">
        <use
           style="stroke:#000000;stroke-width:0.8"
           x="19.799999"
           xlink:href="#mcc61ede466"
           y="39.268101"
           id="use213"
           width="100%"
           height="100%" />
      </g>
    </g>
    <g
       id="text_12">
      <!-- 80 -->
      <g
         transform="matrix(0.08,0,0,-0.08,4.8,42.000602)"
         id="g225">
        <defs
           id="defs219">
          <path
             d="m 29,37.109375 q 8.640625,-6.5 11.625,-10.5 3.90625,-5.171875 3.90625,-11.125 0,-7.375 -5.078125,-12.15625 -5.125,-4.75 -14.640625,-4.75 -4.6875,0 -8.71875,1.5625 -4.03125,1.5625 -6.46875,4.296875 -4.015625,4.5 -4.015625,10.65625 0,3.609375 1.140625,6.1875 1.15625,2.59375 4.09375,5.53125 2,2 7.765625,6.390625 -6.5,5.71875 -8.84375,8.59375 Q 7.8125,44.234375 7,46.53125 q -0.796875,2.296875 -0.796875,5.328125 0,6.59375 4.9375,10.890625 Q 16.75,67.625 25.25,67.625 q 4.1875,0 7.875,-1.421875 3.6875,-1.40625 5.890625,-3.890625 Q 42.4375,58.5 42.4375,53.421875 42.4375,46.625 36.078125,41.5 33.84375,39.703125 29,37.109375 Z m -7.8125,-5.90625 q -3.359375,-2.78125 -4.921875,-5.078125 -3.03125,-4.34375 -3.03125,-10.296875 0,-7.578125 4.4375,-11.484375 3.375,-2.96875 8.203125,-2.96875 5.28125,0 8.3125,3.359375 2.734375,3.03125 2.734375,7.625 0,3.859375 -1.28125,6.09375 -2.34375,4.015625 -8.390625,8.40625 z m 4.9375,7.71875 q 4.09375,2.6875 6,5.03125 3.421875,4.1875 3.421875,9.5625 0,5.609375 -3.375,8.640625 -3.015625,2.6875 -7.75,2.6875 -5.421875,0 -8.3125,-3.3125 Q 13.625,58.6875 13.625,54.984375 q 0,-5.71875 6,-11.28125 1.03125,-0.921875 3.6875,-2.90625 2.671875,-1.984375 2.8125,-1.875 z"
             id="NimbusRomNo9L-Regu-56" />
        </defs>
        <use
           xlink:href="#NimbusRomNo9L-Regu-56"
           id="use221"
           x="0"
           y="0"
           width="100%"
           height="100%" />
        <use
           x="50"
           xlink:href="#NimbusRomNo9L-Regu-48"
           id="use223"
           y="0"
           width="100%"
           height="100%" />
      </g>
    </g>
  </g>
  <g
     id="text_13"
     transform="matrix(0.94637521,0,0,0.94637521,6.0638992,0)">
    <!-- Classification Accuracy (%) -->
    <g
       transform="matrix(0,-0.08,-0.08,0,-0.9425,125.22262)"
       id="g298">
      <defs
         id="defs242">
        <path
           d="m 61.96875,45.125 h -2.296875 q -1.71875,5.953125 -3.515625,8.6875 -3.21875,4.984375 -8.25,7.5625 -4.453125,2.25 -9.71875,2.25 -8.890625,0 -15.1875,-5.8125 -8.59375,-8 -8.59375,-23.921875 0,-8.40625 2.21875,-14.921875 2.21875,-6.515625 6.375,-10.125 6.59375,-5.859375 16.15625,-5.859375 8.75,0 16.3125,5.078125 2.546875,1.703125 6,5.03125 l 1.8125,-1.765625 Q 60.25,7.28125 56.390625,4.640625 q -8.921875,-6.0625 -20.453125,-6.0625 -7.375,0 -14,2.734375 -6.609375,2.734375 -11,7.578125 -3.90625,4.296875 -6.03125,10.46875 -2.125,6.171875 -2.125,13.203125 0,17 10.84375,26.46875 9.671875,8.546875 22.90625,8.546875 7.03125,0 14.296875,-2.4375 2.59375,-0.828125 4,-0.828125 1.671875,0 3.03125,1.265625 0.734375,0.6875 1.125,2 h 2.09375 z"
           id="NimbusRomNo9L-Regu-67" />
        <path
           d="m 1.90625,62.3125 v 1.609375 q 8.984375,2.1875 15.921875,4.390625 L 18.21875,68.109375 V 8.40625 q 0.09375,-4.6875 1.75,-5.671875 1.5625,-0.96875 5.765625,-1.21875 V 0 H 2.09375 v 1.515625 q 4.109375,0.34375 5.8125,1.46875 Q 9.765625,4.15625 9.8125,8.6875 v 47.703125 q 0,4.15625 -1.171875,5.234375 -0.96875,0.875 -2.96875,0.875 -1.375,0 -3.234375,-0.140625 z"
           id="NimbusRomNo9L-Regu-108" />
        <path
           d="M 44.1875,6.59375 V 4 Q 41.65625,1.21875 39.984375,0.296875 37.84375,-0.984375 35.25,-0.984375 q -3.265625,0 -4.78125,2.015625 -1.265625,1.703125 -1.65625,5.265625 -8.453125,-7.28125 -14.546875,-7.28125 -4.890625,0 -8.015625,3.375 -2.53125,2.734375 -2.53125,7.28125 0,5.515625 3.609375,8.6875 4.53125,4.046875 12.546875,7.28125 3.859375,1.5625 8.84375,3.5625 v 6.09375 q 0,8.3125 -7.625,8.3125 -3.953125,0 -6.046875,-2.203125 -1.125,-1.21875 -1.125,-2.6875 0,-1.015625 0.28125,-2.4375 0.203125,-0.984375 0.203125,-1.5625 0,-1.703125 -1.46875,-3.03125 -1.265625,-1.171875 -3.03125,-1.171875 -1.953125,0 -3.125,1.375 -1.171875,1.3125 -1.171875,2.921875 0,3.8125 3.765625,7.1875 4.5,4 13.03125,4 9.046875,0 12.40625,-5.515625 2,-3.328125 2,-10.453125 V 10.5 q 0,-4.25 1.03125,-5.171875 0.6875,-0.59375 1.953125,-0.59375 2.046875,0 4.390625,1.859375 z M 28.71875,26.8125 Q 20.90625,23.921875 18.5625,22.265625 15.4375,20.21875 13.96875,17.9375 12.5,15.671875 12.5,12.890625 V 12.5 q 0,-3.90625 2.4375,-6.109375 1.8125,-1.5625 3.859375,-1.5625 3.421875,0 7.328125,2.25 1.5625,0.875 2.046875,1.8125 0.546875,1.015625 0.546875,3.421875 z"
           id="NimbusRomNo9L-Regu-97" />
        <path
           d="m 30.90625,45.015625 v -3.21875 H 18.703125 V 10.40625 q 0,-3.421875 0.4375,-5.03125 0.4375,-1.609375 1.515625,-2.34375 1.515625,-0.984375 3.5625,-1.265625 1.5625,-0.15625 3.765625,-0.25 V 0 H 2 v 1.515625 q 4.5,0.25 6.203125,1.265625 2,1.125 2.09375,7.625 V 41.796875 H 2.09375 v 3.21875 h 8.203125 q 0.0625,5.96875 0.78125,9.328125 0.734375,3.375 2.6875,6.734375 1.953125,3.421875 5.6875,5.328125 3.734375,1.90625 8.421875,1.90625 2.84375,0 5.359375,-0.8125 2.515625,-0.796875 3.734375,-2.171875 1.359375,-1.453125 1.359375,-3.21875 0,-1.859375 -1.359375,-3.03125 -1.21875,-1.0625 -2.78125,-1.0625 -2.34375,0 -4.59375,3.609375 -1.5625,2.53125 -3.125,3.46875 -0.734375,0.4375 -2.203125,0.4375 -5.65625,0 -5.65625,-8.9375 V 45.015625 Z"
           id="NimbusRomNo9L-Regu-102" />
        <path
           d="M 39.796875,15.625 41.21875,14.703125 Q 37.15625,6.84375 33.59375,3.71875 28.265625,-0.984375 21.484375,-0.984375 q -7.953125,0 -13.46875,6.015625 -2.59375,2.78125 -4.0625,7.09375 -1.46875,4.328125 -1.46875,9.171875 0,12.296875 7.8125,19.140625 6.40625,5.609375 14.0625,5.609375 5.921875,0 10.609375,-2.78125 Q 37.0625,42 38.421875,39.875 q 1.375,-2.125 1.375,-4.1875 0,-1.5625 -1.171875,-2.78125 Q 37.203125,31.5 35.0625,31.5 q -3.515625,0 -4.78125,4.640625 l -0.59375,2.1875 q -0.828125,3.078125 -2,3.859375 -1.46875,0.984375 -3.859375,0.984375 -5.71875,0 -9.46875,-4.25 -1.90625,-2.15625 -3.03125,-5.75 -1.125,-3.578125 -1.125,-7.4375 0,-4.890625 1.53125,-9.09375 1.546875,-4.1875 4.28125,-6.625 Q 20.171875,6.25 25.734375,6.25 q 5.515625,0 9.8125,4.046875 1.703125,1.671875 4.25,5.328125 z"
           id="NimbusRomNo9L-Regu-99" />
        <path
           d="m 25.53125,45.015625 v -3.21875 H 15.4375 V 13.1875 q 0,-6.15625 1.953125,-7.90625 1.21875,-1.078125 3.21875,-1.078125 3.078125,0 6.046875,3.515625 l 1.28125,-1.125 q -4.84375,-7.578125 -12.0625,-7.578125 -8.84375,0 -8.84375,12.703125 V 41.796875 H 1.703125 q -0.390625,0.25 -0.390625,0.734375 0,0.828125 1.71875,1.859375 Q 6.9375,46.6875 14.75,57.90625 q 0.6875,0 0.6875,-1.265625 v -11.625 z"
           id="NimbusRomNo9L-Regu-116" />
        <path
           d="m 24.953125,46 q 10.15625,0 16.40625,-6.984375 5.609375,-6.25 5.609375,-15.578125 0,-5.46875 -2.078125,-10.5 Q 42.828125,7.90625 39.109375,4.5 33.203125,-0.984375 24.75,-0.984375 15.046875,-0.984375 8.84375,6 2.875,12.75 2.875,22.5625 q 0,8.78125 4.640625,15.078125 Q 13.671875,46 24.953125,46 Z M 23.4375,43.21875 q -4.4375,0 -7.8125,-3.5625 -3.765625,-4.015625 -3.765625,-12.109375 0,-11.1875 4.359375,-19.296875 3.453125,-6.4375 9.953125,-6.4375 4.203125,0 7.125,2.96875 4.6875,4.6875 4.6875,15.234375 0,8.984375 -3.703125,16.21875 -1.71875,3.3125 -4.578125,5.140625 -2.84375,1.84375 -6.265625,1.84375 z"
           id="NimbusRomNo9L-Regu-111" />
        <path
           d="M 1.609375,39.84375 V 41.5 Q 8.890625,43.65625 15.4375,46 l 0.671875,-0.203125 v -7.90625 Q 20.453125,42 22.90625,43.5625 26.765625,46 30.609375,46 35.6875,46 38.921875,42.578125 42.4375,38.8125 42.4375,31 V 8.109375 Q 42.484375,3.8125 44.046875,2.78125 45.40625,1.8125 48.53125,1.515625 V 0 H 27.734375 v 1.515625 q 2.875,0.25 4.15625,1.125 Q 33.9375,3.90625 34.03125,9.90625 V 30.8125 q 0,4.875 -1.8125,7.265625 -1.796875,2.40625 -5.515625,2.40625 -3.015625,0 -6.1875,-2.203125 Q 19.09375,37.3125 16.40625,34.8125 V 6.6875 Q 16.453125,3.859375 17.875,2.875 19.4375,1.8125 23,1.515625 V 0 H 1.8125 v 1.515625 q 3.015625,0.25 4.34375,1.125 1.75,1.125 1.859375,6.34375 v 24.8125 q 0,4.625 -1.328125,5.796875 -0.625,0.640625 -2.34375,0.640625 -1.703125,0 -2.734375,-0.390625 z"
           id="NimbusRomNo9L-Regu-110" />
        <path
           d="M 70.609375,1.90625 V 0 H 45.125 v 1.90625 q 4.1875,0.046875 5.609375,0.875 1.359375,0.78125 1.359375,2.4375 0,2.34375 -1.890625,6.796875 l -4.109375,9.5625 H 19.921875 L 15.328125,9.90625 q -0.78125,-2 -0.78125,-3.90625 0,-4.046875 6.796875,-4.09375 V 0 H 1.515625 V 1.90625 Q 3.421875,2 4.734375,2.640625 q 1.21875,0.625 1.65625,1.21875 1.46875,1.8125 3.390625,5.484375 1.9375,3.6875 4.140625,8.96875 L 34.71875,67.390625 h 2 L 61.625,10.59375 Q 65.046875,3.078125 67.578125,2.4375 68.65625,2.046875 70.609375,1.90625 Z M 21.625,25.6875 h 23.109375 l -11.625,27.53125 z"
           id="NimbusRomNo9L-Regu-65" />
        <path
           d="m 47.90625,4.984375 v -1.375 Q 40.96875,1.765625 34.1875,-0.875 l -0.390625,0.1875 V 7.625 L 29.5,3.328125 q -4.25,-4.3125 -10.359375,-4.3125 -5.46875,0 -8.9375,3.671875 -3.125,3.265625 -3.125,9.328125 v 25.1875 Q 7.03125,41.40625 5.171875,42.53125 3.765625,43.40625 0.875,43.609375 v 1.40625 H 15.484375 V 12.40625 q 0,-3.421875 2.484375,-5.765625 1.859375,-1.8125 4.59375,-1.8125 4.640625,0 8.890625,3.375 1.84375,1.515625 1.84375,5.328125 v 23.484375 q -0.09375,4.09375 -1.5625,5.03125 Q 30.03125,43.0625 25.875,43.3125 v 1.703125 H 41.703125 V 10.6875 Q 41.75,6.84375 42.875,6.0625 44.140625,5.03125 47.40625,4.984375 Z"
           id="NimbusRomNo9L-Regu-117" />
        <path
           d="M 0.6875,39.015625 V 40.625 Q 8.453125,43.171875 15.484375,46 L 15.96875,45.796875 V 36.625 q 3.5625,5.171875 5.859375,7.03125 Q 24.75,46 27.9375,46 q 2.828125,0 4.234375,-1.609375 1.28125,-1.421875 1.28125,-3.671875 0,-4.484375 -3.859375,-4.484375 -1.90625,0 -4.0625,1.953125 -1.65625,1.515625 -2.578125,1.515625 -2.109375,0 -4.5,-2.84375 Q 15.96875,33.9375 15.96875,31.5 V 8.984375 Q 16.015625,4 18.21875,2.78125 20.0625,1.703125 24.46875,1.515625 V 0 H 0.484375 V 1.515625 Q 4.6875,2.296875 6.0625,3.171875 7.515625,4.15625 7.5625,8.40625 v 25 q 0,4.234375 -1.265625,5.359375 -0.6875,0.640625 -2.140625,0.640625 -1.46875,0 -3.46875,-0.390625 z"
           id="NimbusRomNo9L-Regu-114" />
        <path
           d="M 47.515625,45.015625 V 43.5 Q 46.296875,43.359375 45.5625,42.96875 43.953125,42.140625 42.71875,39.015625 l -15.375,-40.78125 Q 22.859375,-13.625 18.5625,-18.109375 q -3.515625,-3.671875 -8.15625,-3.671875 -3.953125,0 -5.96875,2.296875 -1.40625,1.609375 -1.40625,3.515625 0,1.953125 1.359375,3.21875 1.171875,1.171875 2.890625,1.171875 2.484375,0 5.265625,-1.171875 1.65625,-0.625 2.59375,-0.625 1.078125,0 2.46875,1.25 Q 19,-10.890625 20.125,-8.9375 22.75,-4.203125 23.96875,1.21875 24.125,1.765625 24.125,1.8125 q 0,2.390625 -4.34375,10.15625 -0.59375,1.0625 -1.859375,3.859375 L 6.5,40.4375 q -1.171875,2.578125 -5.078125,3.171875 v 1.40625 h 20.59375 V 43.5 Q 18.5,43.3125 17.1875,42.578125 16.21875,42 16.21875,40.828125 q 0,-1.5625 1.015625,-3.8125 L 28.71875,11.71875 38.421875,39.359375 Q 38.8125,40.4375 38.8125,41.015625 38.8125,43.5 34.03125,43.5 v 1.515625 z"
           id="NimbusRomNo9L-Regu-121" />
        <path
           d="m 66.9375,37.109375 q 5.078125,0 7.765625,-2.984375 2.5,-2.671875 2.5,-7.65625 0,-8.296875 -4.296875,-15.625 Q 66.609375,0 56.84375,0 51.265625,0 48.140625,3.515625 44.875,7.171875 44.875,12.890625 q 0,4.828125 2.015625,9.46875 2.03125,4.640625 5.703125,8.25 6.6875,6.5 14.34375,6.5 z m 0.5,-3.21875 q -4.453125,0 -8.5,-5.765625 Q 54.25,21.4375 52.828125,13.234375 52.4375,10.84375 52.4375,9.421875 52.4375,6.25 54.4375,4.4375 56,2.984375 58.546875,2.984375 q 5.171875,0 9.71875,5.65625 2.921875,3.609375 4.625,8.296875 1.71875,4.6875 1.71875,9.046875 0,3.75 -2.6875,6.1875 -1.859375,1.71875 -4.484375,1.71875 z M 63.421875,67.578125 24.90625,-1.3125 H 20.125 L 55.28125,61.375 q -5.375,-3.078125 -10.84375,-3.078125 -4.203125,0 -6.734375,1.03125 0.71875,-2.4375 0.71875,-4.390625 0,-9.234375 -5.75,-17.34375 -6.15625,-8.6875 -14.796875,-8.6875 -4.984375,0 -8.453125,3.90625 -3.3125,3.71875 -3.3125,8.796875 0,6.25 3.46875,12.390625 3.515625,6.359375 9.515625,9.765625 4.203125,2.453125 9.125,2.453125 3.125,0 5.234375,-1.328125 0.4375,-0.234375 1.75,-1.40625 3.21875,-2.6875 8.640625,-2.6875 6.40625,0 11.28125,3.21875 1.71875,1.125 4.390625,3.5625 z m -28.40625,-7.5625 q -3.71875,0.96875 -5.46875,2.578125 -0.78125,0.640625 -1.328125,0.640625 -2.34375,0 -4.984375,-2.375 -2.625,-2.359375 -4.875,-6.421875 -4.09375,-7.515625 -4.6875,-15.515625 0,-0.203125 0,-0.5 0,-2.921875 2,-4.78125 1.421875,-1.3125 3.90625,-1.3125 3.46875,0 6.78125,2.40625 3.328125,2.421875 5.765625,6.8125 3.8125,6.796875 3.8125,13.578125 0,0.9375 -0.375,2.890625 -0.359375,1.953125 -0.546875,2 z"
           id="NimbusRomNo9L-Regu-37" />
      </defs>
      <use
         xlink:href="#NimbusRomNo9L-Regu-67"
         id="use244"
         x="0"
         y="0"
         width="100%"
         height="100%" />
      <use
         x="66.699219"
         xlink:href="#NimbusRomNo9L-Regu-108"
         id="use246"
         y="0"
         width="100%"
         height="100%" />
      <use
         x="94.482422"
         xlink:href="#NimbusRomNo9L-Regu-97"
         id="use248"
         y="0"
         width="100%"
         height="100%" />
      <use
         x="138.86719"
         xlink:href="#NimbusRomNo9L-Regu-115"
         id="use250"
         y="0"
         width="100%"
         height="100%" />
      <use
         x="177.7832"
         xlink:href="#NimbusRomNo9L-Regu-115"
         id="use252"
         y="0"
         width="100%"
         height="100%" />
      <use
         x="216.69922"
         xlink:href="#NimbusRomNo9L-Regu-105"
         id="use254"
         y="0"
         width="100%"
         height="100%" />
      <use
         x="244.48242"
         xlink:href="#NimbusRomNo9L-Regu-102"
         id="use256"
         y="0"
         width="100%"
         height="100%" />
      <use
         x="279.2832"
         xlink:href="#NimbusRomNo9L-Regu-105"
         id="use258"
         y="0"
         width="100%"
         height="100%" />
      <use
         x="307.06641"
         xlink:href="#NimbusRomNo9L-Regu-99"
         id="use260"
         y="0"
         width="100%"
         height="100%" />
      <use
         x="351.45117"
         xlink:href="#NimbusRomNo9L-Regu-97"
         id="use262"
         y="0"
         width="100%"
         height="100%" />
      <use
         x="395.83594"
         xlink:href="#NimbusRomNo9L-Regu-116"
         id="use264"
         y="0"
         width="100%"
         height="100%" />
      <use
         x="423.61914"
         xlink:href="#NimbusRomNo9L-Regu-105"
         id="use266"
         y="0"
         width="100%"
         height="100%" />
      <use
         x="451.40234"
         xlink:href="#NimbusRomNo9L-Regu-111"
         id="use268"
         y="0"
         width="100%"
         height="100%" />
      <use
         x="501.40234"
         xlink:href="#NimbusRomNo9L-Regu-110"
         id="use270"
         y="0"
         width="100%"
         height="100%" />
      <use
         x="551.40234"
         xlink:href="#NimbusRomNo9L-Regu-32"
         id="use272"
         y="0"
         width="100%"
         height="100%" />
      <use
         x="576.40234"
         xlink:href="#NimbusRomNo9L-Regu-65"
         id="use274"
         y="0"
         width="100%"
         height="100%" />
      <use
         x="645.24414"
         xlink:href="#NimbusRomNo9L-Regu-99"
         id="use276"
         y="0"
         width="100%"
         height="100%" />
      <use
         x="689.62891"
         xlink:href="#NimbusRomNo9L-Regu-99"
         id="use278"
         y="0"
         width="100%"
         height="100%" />
      <use
         x="734.01367"
         xlink:href="#NimbusRomNo9L-Regu-117"
         id="use280"
         y="0"
         width="100%"
         height="100%" />
      <use
         x="784.01367"
         xlink:href="#NimbusRomNo9L-Regu-114"
         id="use282"
         y="0"
         width="100%"
         height="100%" />
      <use
         x="817.06445"
         xlink:href="#NimbusRomNo9L-Regu-97"
         id="use284"
         y="0"
         width="100%"
         height="100%" />
      <use
         x="861.44922"
         xlink:href="#NimbusRomNo9L-Regu-99"
         id="use286"
         y="0"
         width="100%"
         height="100%" />
      <use
         x="905.83398"
         xlink:href="#NimbusRomNo9L-Regu-121"
         id="use288"
         y="0"
         width="100%"
         height="100%" />
      <use
         x="955.83398"
         xlink:href="#NimbusRomNo9L-Regu-32"
         id="use290"
         y="0"
         width="100%"
         height="100%" />
      <use
         x="980.83398"
         xlink:href="#NimbusRomNo9L-Regu-40"
         id="use292"
         y="0"
         width="100%"
         height="100%" />
      <use
         x="1014.1348"
         xlink:href="#NimbusRomNo9L-Regu-37"
         id="use294"
         y="0"
         width="100%"
         height="100%" />
      <use
         x="1097.4355"
         xlink:href="#NimbusRomNo9L-Regu-41"
         id="use296"
         y="0"
         width="100%"
         height="100%" />
    </g>
  </g>
  <path
     clip-path="url(#pad0b79835f)"
     d="m 20.53114,24.685402 9.49886,0.007 4.65,-0.140365 4.65,1.07131 4.65,5.291963 4.65,17.414858 4.65,37.084572 4.65,30.63064 4.65,14.24353 4.65,3.10005 4.65,0.36279 4.65,0.47872 4.65,1.00659 4.65,0.19498 4.65,-1.30616 h 4.65 4.65 4.65 l 4.65,-0.36553 4.65,-0.11933 4.65,0.6386 4.65,0.31678 4.65,0.14091 4.65,0.0541 9.98347,0.0504"
     style="fill:none;stroke:#000000;stroke-width:1.26799606;stroke-linecap:square;stroke-miterlimit:4;stroke-dasharray:none"
     id="path302"
     transform="matrix(0.94637521,0,0,0.94637521,6.0638992,0)"
     sodipodi:nodetypes="ccccccccccccccccccccccccc" />
  <path
     d="M 24.802129,133.41619 V 17.9887"
     style="fill:none;stroke:#000000;stroke-width:0.7571;stroke-linecap:square;stroke-linejoin:miter"
     id="path305" />
  <path
     d="M 140.97915,133.41619 V 17.9887"
     style="fill:none;stroke:#000000;stroke-width:0.7571;stroke-linecap:square;stroke-linejoin:miter"
     id="path308" />
  <path
     d="M 24.802129,133.41619 H 140.97915"
     style="fill:none;stroke:#000000;stroke-width:0.7571;stroke-linecap:square;stroke-linejoin:miter"
     id="path311" />
  <path
     d="M 24.802129,17.9887 H 140.97915"
     style="fill:none;stroke:#000000;stroke-width:0.7571;stroke-linecap:square;stroke-linejoin:miter"
     id="path314" />
  <defs
     id="defs322">
    <clipPath
       id="pad0b79835f">
      <rect
         height="121.968"
         width="122.76"
         x="19.799999"
         y="19.007999"
         id="rect319" />
    </clipPath>
  </defs>
  <path
     style="fill:none;stroke:#000000;stroke-width:0.749999;stroke-linecap:butt;stroke-linejoin:miter;stroke-miterlimit:4;stroke-dasharray:2.25, 2.25;stroke-dashoffset:0;stroke-opacity:1"
     d="M 25.494061,23.361653 H 139.84641"
     id="path1241-3" />
  <text
     xml:space="preserve"
     style="font-style:normal;font-variant:normal;font-weight:normal;font-stretch:normal;font-size:7.99999px;line-height:1.25;font-family:'Nimbus Roman No9 L';-inkscape-font-specification:'Nimbus Roman No9 L';letter-spacing:0px;word-spacing:0px;fill:#000000;fill-opacity:1;stroke:none;stroke-width:0.749999;stroke-linecap:butt;stroke-linejoin:round"
     x="142.34102"
     y="25.937822"
     id="text1245-6"><tspan
       sodipodi:role="line"
       id="tspan1243-7"
       x="142.34102"
       y="25.937822"
       style="font-size:7.99999px;stroke-width:0.749999">90.68%</tspan></text>
  <path
     style="font-variation-settings:normal;vector-effect:none;fill:none;fill-opacity:1;stroke:#2994c6;stroke-width:0.749999;stroke-linecap:butt;stroke-linejoin:miter;stroke-miterlimit:4;stroke-dasharray:2.25, 2.25;stroke-dashoffset:0;stroke-opacity:1;stop-color:#000000"
     d="M 51.397682,132.78654 V 16.873983"
     id="path1273-53"
     sodipodi:nodetypes="cc" />
  <path
     style="font-variation-settings:normal;vector-effect:none;fill:none;fill-opacity:1;stroke:#2994c6;stroke-width:0.749999;stroke-linecap:butt;stroke-linejoin:miter;stroke-miterlimit:4;stroke-dasharray:2.25, 2.25;stroke-dashoffset:0;stroke-opacity:1;stop-color:#000000"
     d="M 76.019222,132.78654 V 16.873983"
     id="path1273-5-5"
     sodipodi:nodetypes="cc" />
  <path
     style="font-variation-settings:normal;vector-effect:none;fill:none;fill-opacity:1;stroke:#2994c6;stroke-width:0.749999;stroke-linecap:butt;stroke-linejoin:miter;stroke-miterlimit:4;stroke-dasharray:2.25, 2.25;stroke-dashoffset:0;stroke-opacity:1;stop-color:#000000"
     d="M 95.563902,132.78654 V 16.873983"
     id="path1273-5-2-6"
     sodipodi:nodetypes="cc" />
  <text
     xml:space="preserve"
     style="font-style:normal;font-variant:normal;font-weight:normal;font-stretch:normal;font-size:7.99999px;line-height:1.25;font-family:'Nimbus Roman No9 L';-inkscape-font-specification:'Nimbus Roman No9 L';letter-spacing:0px;word-spacing:0px;fill:#000000;fill-opacity:1;stroke:none;stroke-width:0.749999;stroke-linecap:butt;stroke-linejoin:round"
     x="-96.574944"
     y="48.063965"
     id="text1294-2"
     transform="rotate(-90)"><tspan
       sodipodi:role="line"
       id="tspan1292-9"
       x="-96.574944"
       y="48.063965"
       style="font-size:7.99999px;stroke-width:0.749999">1 minute</tspan></text>
  <text
     xml:space="preserve"
     style="font-style:normal;font-variant:normal;font-weight:normal;font-stretch:normal;font-size:7.99999px;line-height:1.25;font-family:'Nimbus Roman No9 L';-inkscape-font-specification:'Nimbus Roman No9 L';letter-spacing:0px;word-spacing:0px;fill:#000000;fill-opacity:1;stroke:none;stroke-width:0.749999;stroke-linecap:butt;stroke-linejoin:round"
     x="-96.574944"
     y="72.738922"
     id="text1294-5-1"
     transform="rotate(-90)"><tspan
       sodipodi:role="line"
       id="tspan1292-6-2"
       x="-96.574944"
       y="72.738922"
       style="font-size:7.99999px;stroke-width:0.749999">1 hour</tspan></text>
  <text
     xml:space="preserve"
     style="font-style:normal;font-variant:normal;font-weight:normal;font-stretch:normal;font-size:7.99999px;line-height:1.25;font-family:'Nimbus Roman No9 L';-inkscape-font-specification:'Nimbus Roman No9 L';letter-spacing:0px;word-spacing:0px;fill:#000000;fill-opacity:1;stroke:none;stroke-width:0.749999;stroke-linecap:butt;stroke-linejoin:round"
     x="-96.574944"
     y="91.111084"
     id="text1294-5-9-7"
     transform="rotate(-90)"><tspan
       sodipodi:role="line"
       id="tspan1292-6-1-0"
       x="-96.574944"
       y="91.111084"
       style="font-size:7.99999px;stroke-width:0.749999">1 day</tspan></text>
  <text
     xml:space="preserve"
     style="font-style:normal;font-variant:normal;font-weight:normal;font-stretch:normal;font-size:7.99999px;line-height:1.25;font-family:'Nimbus Roman No9 L';-inkscape-font-specification:'Nimbus Roman No9 L';letter-spacing:0px;word-spacing:0px;fill:#000000;fill-opacity:1;stroke:none;stroke-width:0.749999;stroke-linecap:butt;stroke-linejoin:round"
     x="143.61894"
     y="129.66901"
     id="text1245-3-0"><tspan
       sodipodi:role="line"
       id="tspan1243-6-6"
       x="143.61894"
       y="129.66901"
       style="font-size:7.99999px;stroke-width:0.749999">10%</tspan></text>
</svg>
