<?xml version="1.0" encoding="utf-8" standalone="no"?>
<!DOCTYPE svg PUBLIC "-//W3C//DTD SVG 1.1//EN"
  "http://www.w3.org/Graphics/SVG/1.1/DTD/svg11.dtd">
<!-- Created with matplotlib (https://matplotlib.org/) -->
<svg height="158.4pt" version="1.1" viewBox="0 0 158.4 158.4" width="158.4pt" xmlns="http://www.w3.org/2000/svg" xmlns:xlink="http://www.w3.org/1999/xlink">
 <metadata>
  <rdf:RDF xmlns:cc="http://creativecommons.org/ns#" xmlns:dc="http://purl.org/dc/elements/1.1/" xmlns:rdf="http://www.w3.org/1999/02/22-rdf-syntax-ns#">
   <cc:Work>
    <dc:type rdf:resource="http://purl.org/dc/dcmitype/StillImage"/>
    <dc:date>2022-04-28T18:42:15.969288</dc:date>
    <dc:format>image/svg+xml</dc:format>
    <dc:creator>
     <cc:Agent>
      <dc:title>Matplotlib v3.3.4, https://matplotlib.org/</dc:title>
     </cc:Agent>
    </dc:creator>
   </cc:Work>
  </rdf:RDF>
 </metadata>
 <defs>
  <style type="text/css">*{stroke-linecap:butt;stroke-linejoin:round;}</style>
 </defs>
 <g id="figure_1">
  <g id="patch_1">
   <path d="M 0 158.4 
L 158.4 158.4 
L 158.4 0 
L 0 0 
z
" style="fill:#ffffff;"/>
  </g>
  <g id="axes_1">
   <g id="patch_2">
    <path d="M 19.8 140.976 
L 142.56 140.976 
L 142.56 19.008 
L 19.8 19.008 
z
" style="fill:#ffffff;"/>
   </g>
   <g id="matplotlib.axis_1">
    <g id="xtick_1">
     <g id="line2d_1">
      <defs>
       <path d="M 0 0 
L 0 3.5 
" id="m746972cbeb" style="stroke:#000000;stroke-width:0.8;"/>
      </defs>
      <g>
       <use style="stroke:#000000;stroke-width:0.8;" x="25.38" xlink:href="#m746972cbeb" y="140.976"/>
      </g>
     </g>
     <g id="text_1">
      <!-- $\mathregular{2^{1}}$ -->
      <g transform="translate(21.82 153.441)scale(0.08 -0.08)">
       <defs>
        <path d="M 47.46875 13.71875 
L 42 0 
L 2.984375 0 
L 2.984375 1.21875 
L 20.796875 20.125 
Q 27.09375 26.8125 30.4375 33.5 
Q 33.796875 40.1875 33.796875 46.09375 
Q 33.796875 52.828125 29.4375 56.84375 
Q 25.78125 60.203125 19.734375 60.203125 
Q 14.203125 60.203125 11.078125 57.125 
Q 8.015625 54.203125 5.171875 47.21875 
L 3.078125 47.703125 
Q 4.34375 53.03125 5.6875 55.9375 
Q 7.03125 58.84375 9.421875 61.375 
Q 15.28125 67.625 23.921875 67.625 
Q 32.515625 67.625 37.890625 61.671875 
Q 42.390625 56.6875 42.390625 50 
Q 42.390625 43.703125 38.96875 37.40625 
Q 35.9375 31.890625 29.59375 25.203125 
L 12.796875 7.625 
L 36.671875 7.625 
Q 39.0625 7.625 40.421875 8.109375 
Q 41.796875 8.59375 43.015625 9.859375 
Q 43.953125 10.84375 46.1875 14.203125 
z
" id="NimbusRomNo9L-Regu-50"/>
        <path d="M 29.109375 67.625 
L 29.890625 67.4375 
L 29.890625 7.421875 
Q 29.9375 3.71875 31.640625 2.734375 
Q 33.203125 1.8125 35.5 1.65625 
Q 37.109375 1.515625 39.40625 1.515625 
L 39.40625 0 
L 11.765625 0 
L 11.765625 1.515625 
Q 16.84375 1.65625 18.953125 2.828125 
Q 21.234375 4.046875 21.296875 9.28125 
L 21.296875 54.59375 
Q 21.296875 59.328125 18.359375 59.328125 
Q 16.9375 59.328125 11.078125 57.125 
L 11.078125 58.5 
z
" id="NimbusRomNo9L-Regu-49"/>
       </defs>
       <use transform="translate(0 0.151563)" xlink:href="#NimbusRomNo9L-Regu-50"/>
       <use transform="translate(50.787773 31.6625)scale(0.7)" xlink:href="#NimbusRomNo9L-Regu-49"/>
      </g>
     </g>
    </g>
    <g id="xtick_2">
     <g id="line2d_2">
      <g>
       <use style="stroke:#000000;stroke-width:0.8;" x="43.98" xlink:href="#m746972cbeb" y="140.976"/>
      </g>
     </g>
     <g id="text_2">
      <!-- $\mathregular{2^{5}}$ -->
      <g transform="translate(40.42 153.441)scale(0.08 -0.08)">
       <defs>
        <path d="M 18.109375 58.296875 
L 13.921875 49.8125 
Q 23.046875 48.1875 27.984375 46.09375 
Q 35.203125 43.015625 38.9375 37.453125 
Q 42.671875 31.890625 42.671875 24.171875 
Q 42.671875 13.03125 36.03125 6.390625 
Q 28.21875 -1.421875 15.375 -1.421875 
Q 10.0625 -1.421875 6 0.53125 
Q 3.21875 1.859375 3.21875 4.828125 
Q 3.21875 8.5 7.46875 8.5 
Q 10.59375 8.5 15.140625 5.171875 
Q 19.140625 2.296875 21.78125 2.296875 
Q 27.25 2.296875 31.25 6.6875 
Q 35.640625 11.578125 35.640625 19.4375 
Q 35.640625 27.4375 30.8125 32.625 
Q 26.609375 37.015625 16.546875 39.796875 
Q 11.53125 41.21875 8.796875 41.21875 
L 7.46875 41.15625 
Q 6.390625 41.15625 6.390625 41.9375 
Q 6.390625 42.234375 6.546875 42.484375 
L 17.4375 66.21875 
L 38.328125 66.21875 
Q 40.484375 66.265625 41.703125 67.390625 
Q 42.140625 67.78125 42.921875 68.796875 
L 43.796875 68.109375 
L 40.046875 59.1875 
Q 39.796875 58.734375 39.5 58.546875 
Q 39.109375 58.296875 37.75 58.296875 
z
" id="NimbusRomNo9L-Regu-53"/>
       </defs>
       <use transform="translate(0 0.33125)" xlink:href="#NimbusRomNo9L-Regu-50"/>
       <use transform="translate(50.787773 31.842188)scale(0.7)" xlink:href="#NimbusRomNo9L-Regu-53"/>
      </g>
     </g>
    </g>
    <g id="xtick_3">
     <g id="line2d_3">
      <g>
       <use style="stroke:#000000;stroke-width:0.8;" x="62.58" xlink:href="#m746972cbeb" y="140.976"/>
      </g>
     </g>
     <g id="text_3">
      <!-- $\mathregular{2^{9}}$ -->
      <g transform="translate(59.02 153.441)scale(0.08 -0.08)">
       <defs>
        <path d="M 5.90625 -2.203125 
L 5.5625 -0.203125 
Q 10.453125 0.875 13.03125 1.78125 
Q 15.625 2.6875 18.265625 4.296875 
Q 31.84375 12.703125 35.984375 29.4375 
Q 32.328125 26.609375 29.5 25.4375 
Q 25.34375 23.734375 20.953125 23.734375 
Q 12.890625 23.734375 8.0625 29.109375 
Q 5.71875 31.734375 4.34375 35.71875 
Q 2.984375 39.703125 2.984375 44.046875 
Q 2.984375 49.46875 4.984375 54.375 
Q 6.984375 59.28125 10.453125 62.5 
Q 16.0625 67.625 23.78125 67.625 
Q 32.953125 67.625 39.109375 60.546875 
Q 42.234375 56.9375 44.0625 51.265625 
Q 45.90625 45.609375 45.90625 39.453125 
Q 45.90625 26.078125 38.578125 15.375 
Q 32.234375 6.109375 21.34375 1.3125 
Q 15.875 -1.078125 5.90625 -2.203125 
z
M 36.1875 35.5 
L 36.1875 39.40625 
Q 36.1875 64.84375 23 64.84375 
Q 18.5625 64.84375 15.921875 61.71875 
Q 14.3125 59.765625 13.25 55.703125 
Q 12.203125 51.65625 12.203125 47.40625 
Q 12.203125 42.046875 13.625 37.53125 
Q 15.046875 33.015625 17.4375 30.859375 
Q 20.5625 28.03125 24.5625 28.03125 
Q 30.328125 28.03125 34.71875 31.6875 
Q 36.1875 32.859375 36.1875 35.5 
z
" id="NimbusRomNo9L-Regu-57"/>
       </defs>
       <use transform="translate(0 0.151563)" xlink:href="#NimbusRomNo9L-Regu-50"/>
       <use transform="translate(50.787773 31.6625)scale(0.7)" xlink:href="#NimbusRomNo9L-Regu-57"/>
      </g>
     </g>
    </g>
    <g id="xtick_4">
     <g id="line2d_4">
      <g>
       <use style="stroke:#000000;stroke-width:0.8;" x="81.18" xlink:href="#m746972cbeb" y="140.976"/>
      </g>
     </g>
     <g id="text_4">
      <!-- $\mathregular{2^{13}}$ -->
      <g transform="translate(76.22 153.441)scale(0.08 -0.08)">
       <defs>
        <path d="M 15.234375 33.015625 
L 15.234375 34.328125 
Q 20.359375 36.140625 22.9375 37.546875 
Q 25.53125 38.96875 27.78125 41.21875 
Q 31.78125 45.265625 31.78125 50.875 
Q 31.78125 55.90625 28.515625 58.890625 
Q 25.53125 61.625 20.796875 61.625 
Q 11.765625 61.625 6 51.03125 
L 4.5 51.421875 
Q 6.5 57.03125 8.296875 59.515625 
Q 14.109375 67.625 24.125 67.625 
Q 32.28125 67.625 36.328125 62.890625 
Q 39.703125 58.984375 39.703125 53.953125 
Q 39.703125 48.875 35.984375 44.734375 
Q 34.328125 42.828125 30.375 40.09375 
Q 35.984375 37.703125 38.625 34.765625 
Q 43.0625 29.9375 43.0625 21.921875 
Q 43.0625 11.578125 35.84375 5.328125 
Q 32.28125 2.203125 26.78125 0.390625 
Q 21.296875 -1.421875 15.484375 -1.421875 
Q 10.546875 -1.421875 6.890625 0.390625 
Q 4.296875 1.609375 4.296875 4.34375 
Q 4.296875 5.953125 5.328125 6.84375 
Q 6.390625 7.8125 8.109375 7.8125 
Q 10.40625 7.8125 14.453125 5.28125 
Q 19.234375 2.203125 22.859375 2.203125 
Q 28.46875 2.203125 32.078125 6.390625 
Q 35.890625 10.84375 35.890625 17.140625 
Q 35.890625 26.265625 28.515625 30.671875 
Q 24.5625 33.0625 18.21875 33.0625 
Q 17.140625 33.0625 15.234375 33.015625 
z
" id="NimbusRomNo9L-Regu-51"/>
       </defs>
       <use transform="translate(0 0.151563)" xlink:href="#NimbusRomNo9L-Regu-50"/>
       <use transform="translate(50.787773 31.6625)scale(0.7)" xlink:href="#NimbusRomNo9L-Regu-49"/>
       <use transform="translate(85.787773 31.6625)scale(0.7)" xlink:href="#NimbusRomNo9L-Regu-51"/>
      </g>
     </g>
    </g>
    <g id="xtick_5">
     <g id="line2d_5">
      <g>
       <use style="stroke:#000000;stroke-width:0.8;" x="99.78" xlink:href="#m746972cbeb" y="140.976"/>
      </g>
     </g>
     <g id="text_5">
      <!-- $\mathregular{2^{17}}$ -->
      <g transform="translate(94.82 153.441)scale(0.08 -0.08)">
       <defs>
        <path d="M 44.921875 66.21875 
L 44.921875 64.59375 
L 23.734375 -0.78125 
L 17.234375 -0.78125 
L 37.015625 58.796875 
L 15.328125 58.796875 
Q 12.40625 58.796875 10.546875 58.03125 
Q 8.6875 57.28125 7.03125 55.375 
Q 5.90625 54.109375 3.71875 50.6875 
L 2 51.515625 
L 7.90625 66.21875 
z
" id="NimbusRomNo9L-Regu-55"/>
       </defs>
       <use transform="translate(0 0.151563)" xlink:href="#NimbusRomNo9L-Regu-50"/>
       <use transform="translate(50.787773 31.6625)scale(0.7)" xlink:href="#NimbusRomNo9L-Regu-49"/>
       <use transform="translate(85.787773 31.6625)scale(0.7)" xlink:href="#NimbusRomNo9L-Regu-55"/>
      </g>
     </g>
    </g>
    <g id="xtick_6">
     <g id="line2d_6">
      <g>
       <use style="stroke:#000000;stroke-width:0.8;" x="118.38" xlink:href="#m746972cbeb" y="140.976"/>
      </g>
     </g>
     <g id="text_6">
      <!-- $\mathregular{2^{21}}$ -->
      <g transform="translate(113.42 153.441)scale(0.08 -0.08)">
       <use transform="translate(0 0.151563)" xlink:href="#NimbusRomNo9L-Regu-50"/>
       <use transform="translate(50.787773 31.6625)scale(0.7)" xlink:href="#NimbusRomNo9L-Regu-50"/>
       <use transform="translate(85.787773 31.6625)scale(0.7)" xlink:href="#NimbusRomNo9L-Regu-49"/>
      </g>
     </g>
    </g>
    <g id="xtick_7">
     <g id="line2d_7">
      <g>
       <use style="stroke:#000000;stroke-width:0.8;" x="136.98" xlink:href="#m746972cbeb" y="140.976"/>
      </g>
     </g>
     <g id="text_7">
      <!-- $\mathregular{2^{25}}$ -->
      <g transform="translate(132.02 153.441)scale(0.08 -0.08)">
       <use transform="translate(0 0.33125)" xlink:href="#NimbusRomNo9L-Regu-50"/>
       <use transform="translate(50.787773 31.842188)scale(0.7)" xlink:href="#NimbusRomNo9L-Regu-50"/>
       <use transform="translate(85.787773 31.842188)scale(0.7)" xlink:href="#NimbusRomNo9L-Regu-53"/>
      </g>
     </g>
    </g>
    <g id="text_8">
     <!-- Time (s) -->
     <g transform="translate(67.598125 164.641)scale(0.08 -0.08)">
      <defs>
       <path d="M 25.390625 62.015625 
L 19.96875 62.015625 
Q 10.203125 61.859375 7.8125 58.84375 
Q 6.296875 57.078125 5.46875 54.640625 
Q 4.78125 52.390625 4.109375 49.21875 
L 1.703125 49.21875 
L 2.296875 66.21875 
L 58.6875 66.21875 
L 59.28125 49.21875 
L 56.890625 49.21875 
Q 55.8125 54.390625 55.03125 56 
Q 53.5625 59.1875 51.515625 60.359375 
Q 48.578125 61.96875 41.015625 62.015625 
L 35.59375 62.015625 
L 35.59375 10.890625 
Q 35.6875 4.734375 37.796875 3.515625 
Q 39.3125 2.484375 41.40625 2.203125 
Q 42.96875 2 45.21875 1.90625 
L 45.21875 0 
L 15.96875 0 
L 15.96875 1.90625 
Q 20.015625 2.15625 21.1875 2.59375 
Q 23.484375 3.21875 24.3125 4.5 
Q 25.34375 6.0625 25.390625 12.015625 
z
" id="NimbusRomNo9L-Regu-84"/>
       <path d="M 17.53125 46 
L 17.921875 45.703125 
L 17.921875 10.203125 
Q 18.015625 3.859375 19.734375 2.828125 
Q 21.296875 1.8125 25.34375 1.515625 
L 25.34375 0 
L 1.609375 0 
L 1.609375 1.515625 
Q 5.90625 1.765625 7.515625 2.6875 
Q 9.421875 3.71875 9.515625 10.203125 
L 9.515625 33.40625 
Q 9.515625 37.640625 8.25 38.765625 
Q 7.5625 39.40625 6.25 39.40625 
Q 4.828125 39.40625 2.78125 39.109375 
L 2 39.015625 
L 2 40.53125 
z
M 12.9375 68.3125 
Q 15.1875 68.3125 16.703125 66.609375 
Q 18.015625 65.1875 18.015625 63.1875 
Q 18.015625 60.890625 16.359375 59.421875 
Q 14.9375 58.109375 12.84375 58.109375 
Q 10.546875 58.109375 9.125 59.71875 
Q 7.8125 61.234375 7.8125 63.234375 
Q 7.8125 65.375 9.578125 67.046875 
Q 10.84375 68.3125 12.9375 68.3125 
z
" id="NimbusRomNo9L-Regu-105"/>
       <path d="M 1.90625 39.84375 
L 1.90625 41.5 
Q 9.234375 43.5625 15.921875 46 
L 16.609375 45.796875 
L 16.609375 38.328125 
Q 21.828125 42.328125 24.421875 43.796875 
Q 28.375 46 32.125 46 
Q 40.046875 46 42.671875 37.59375 
Q 50.484375 46 58.984375 46 
Q 70.609375 46 70.609375 28.21875 
L 70.609375 7.625 
Q 70.65625 4 71.921875 2.984375 
Q 73.1875 1.859375 74.90625 1.703125 
L 77.484375 1.515625 
L 77.484375 0 
L 55.609375 0 
L 55.609375 1.515625 
Q 59.328125 1.953125 60.59375 2.78125 
Q 62.15625 3.65625 62.203125 8.6875 
L 62.203125 29.828125 
Q 62.203125 35.59375 60.890625 37.890625 
Q 59.234375 40.765625 54.734375 40.765625 
Q 50.046875 40.765625 46.6875 38.03125 
Q 45.40625 36.96875 43.796875 34.71875 
L 43.796875 9.515625 
Q 43.890625 3.71875 46.09375 2.484375 
Q 47.609375 1.609375 50.984375 1.515625 
L 50.984375 0 
L 28.609375 0 
L 28.609375 1.515625 
Q 32.171875 1.765625 33.546875 2.640625 
Q 35.359375 3.609375 35.40625 8.59375 
L 35.40625 30.328125 
Q 35.40625 40.828125 28.953125 40.828125 
Q 26.21875 40.828125 23.3125 39.703125 
Q 20.40625 38.578125 18.5625 36.8125 
Q 17 35.40625 17 34.90625 
L 17 6.6875 
Q 17.046875 3.46875 18.703125 2.484375 
Q 20.3125 1.609375 23.78125 1.515625 
L 23.78125 0 
L 1.609375 0 
L 1.609375 1.515625 
Q 5.03125 1.5625 6.546875 2.484375 
Q 8.546875 3.609375 8.59375 8.5 
L 8.59375 33.796875 
Q 8.59375 38.421875 7.28125 39.59375 
Q 6.59375 40.234375 5.125 40.234375 
Q 3.65625 40.234375 1.90625 39.84375 
z
" id="NimbusRomNo9L-Regu-109"/>
       <path d="M 40.765625 16.40625 
L 42.390625 15.671875 
Q 39.75 8.84375 35.453125 4.828125 
Q 29.296875 -0.984375 21.234375 -0.984375 
Q 12.796875 -0.984375 7.71875 4.734375 
Q 5.328125 7.421875 3.90625 11.90625 
Q 2.484375 16.40625 2.484375 21.390625 
Q 2.484375 27.59375 4.40625 32.671875 
Q 6.34375 37.75 9.859375 40.875 
Q 15.671875 46.046875 23.34375 46.046875 
Q 31.59375 46.046875 36.1875 40.28125 
Q 38.765625 37.015625 39.65625 32.90625 
Q 40.140625 30.671875 40.484375 27.6875 
L 9.671875 27.6875 
Q 9.96875 19.53125 12.453125 14.5 
Q 16.703125 5.90625 25.34375 5.90625 
Q 31.84375 5.90625 36.71875 10.9375 
Q 38.484375 12.75 40.765625 16.40625 
z
M 9.859375 30.90625 
L 30.28125 30.90625 
Q 29.390625 36.859375 27.484375 39.5 
Q 25.4375 42.4375 20.515625 42.4375 
Q 11.53125 42.4375 9.859375 30.90625 
z
" id="NimbusRomNo9L-Regu-101"/>
       <path id="NimbusRomNo9L-Regu-32"/>
       <path d="M 29.5 67.625 
L 30.375 66.015625 
Q 25 61.671875 22.21875 58.34375 
Q 19.4375 55.03125 17.390625 50.390625 
Q 13.375 41.21875 13.375 25.484375 
Q 13.375 10.9375 16.890625 1.171875 
Q 19.1875 -5.078125 22.515625 -8.9375 
Q 25 -11.859375 30.375 -16.0625 
L 29.203125 -17.671875 
Q 25.296875 -15.328125 22.828125 -13.203125 
Q 20.359375 -11.078125 17.234375 -7.46875 
Q 10.6875 0.140625 7.734375 7.875 
Q 4.78125 15.625 4.78125 25.140625 
Q 4.78125 42.671875 15.328125 55.609375 
Q 18.5625 59.515625 21.734375 62.109375 
Q 24.609375 64.40625 29.5 67.625 
z
" id="NimbusRomNo9L-Regu-40"/>
       <path d="M 31.5 31.390625 
L 29.984375 31.390625 
Q 28.71875 36.375 27.546875 38.484375 
Q 24.515625 43.703125 18.953125 43.703125 
Q 14.9375 43.703125 12.890625 41.3125 
Q 11.28125 39.453125 11.28125 36.921875 
Q 11.28125 32.625 15.578125 30.078125 
L 26.375 23.6875 
Q 31.296875 20.75 33.40625 17.4375 
Q 34.765625 15.28125 34.765625 11.8125 
Q 34.765625 6.34375 30.609375 2.78125 
Q 26.265625 -0.984375 20.796875 -0.984375 
Q 17.625 -0.984375 13.328125 0.046875 
Q 10.25 0.78125 8.734375 0.78125 
Q 7.328125 0.78125 6.5 -0.390625 
L 5.171875 -0.390625 
L 5.171875 15.1875 
L 6.78125 15.1875 
Q 8.453125 7.953125 11.078125 4.734375 
Q 14.0625 1.21875 19.484375 1.21875 
Q 23.96875 1.21875 26.125 3.71875 
Q 27.78125 5.5625 27.78125 8.40625 
Q 27.78125 12.9375 22.5625 15.875 
L 16.796875 19.1875 
Q 8.640625 23.828125 6.546875 27.78125 
Q 5.078125 30.5625 5.078125 33.59375 
Q 5.078125 38.96875 8.9375 42.53125 
Q 12.703125 46 18.75 46 
Q 22.3125 46 25.734375 44.625 
Q 27.390625 44 28.375 44 
Q 29.15625 44 29.984375 45.125 
L 31.0625 45.125 
z
" id="NimbusRomNo9L-Regu-115"/>
       <path d="M 3.765625 -17.671875 
L 2.875 -16.0625 
Q 8.296875 -11.765625 11.046875 -8.421875 
Q 13.8125 -5.078125 15.875 -0.4375 
Q 19.875 8.6875 19.875 24.421875 
Q 19.875 38.96875 16.359375 48.734375 
Q 14.0625 55.03125 10.75 58.890625 
Q 8.25 61.765625 2.875 66.015625 
L 4.109375 67.625 
Q 7.953125 65.234375 10.421875 63.125 
Q 12.890625 61.03125 16.015625 57.421875 
Q 22.5625 49.8125 25.515625 42.0625 
Q 28.46875 34.328125 28.46875 24.75 
Q 28.46875 7.234375 17.921875 -5.671875 
Q 14.703125 -9.625 11.53125 -12.15625 
Q 8.640625 -14.453125 3.765625 -17.671875 
z
" id="NimbusRomNo9L-Regu-41"/>
      </defs>
      <use xlink:href="#NimbusRomNo9L-Regu-84"/>
      <use x="59.083984" xlink:href="#NimbusRomNo9L-Regu-105"/>
      <use x="86.867188" xlink:href="#NimbusRomNo9L-Regu-109"/>
      <use x="164.650391" xlink:href="#NimbusRomNo9L-Regu-101"/>
      <use x="209.035156" xlink:href="#NimbusRomNo9L-Regu-32"/>
      <use x="234.035156" xlink:href="#NimbusRomNo9L-Regu-40"/>
      <use x="267.335938" xlink:href="#NimbusRomNo9L-Regu-115"/>
      <use x="306.251953" xlink:href="#NimbusRomNo9L-Regu-41"/>
     </g>
    </g>
   </g>
   <g id="matplotlib.axis_2">
    <g id="ytick_1">
     <g id="line2d_8">
      <defs>
       <path d="M 0 0 
L -3.5 0 
" id="ma24abcaaa0" style="stroke:#000000;stroke-width:0.8;"/>
      </defs>
      <g>
       <use style="stroke:#000000;stroke-width:0.8;" x="19.8" xlink:href="#ma24abcaaa0" y="119.73765"/>
      </g>
     </g>
     <g id="text_9">
      <!-- 20 -->
      <g transform="translate(4.8 122.47015)scale(0.08 -0.08)">
       <defs>
        <path d="M 25.34375 67.625 
Q 35.890625 67.625 42.046875 57.03125 
Q 44.625 52.546875 46.109375 46.140625 
Q 47.609375 39.75 47.609375 33.015625 
Q 47.609375 19.734375 42.09375 9.125 
Q 39.40625 4 34.46875 1.03125 
Q 30.421875 -1.421875 25 -1.421875 
Q 16.109375 -1.421875 10.40625 5.375 
Q 6.890625 9.578125 4.640625 17.484375 
Q 2.390625 25.390625 2.390625 33.640625 
Q 2.390625 46.578125 7.953125 57.03125 
Q 13.625 67.625 25.34375 67.625 
z
M 24.859375 65.046875 
Q 19.734375 65.046875 16.453125 59.234375 
Q 12.015625 51.3125 12.015625 32.953125 
Q 12.015625 1.171875 25 1.171875 
Q 30.421875 1.171875 33.40625 6.5 
Q 37.984375 14.75 37.984375 32.46875 
Q 37.984375 65.046875 24.859375 65.046875 
z
" id="NimbusRomNo9L-Regu-48"/>
       </defs>
       <use xlink:href="#NimbusRomNo9L-Regu-50"/>
       <use x="50" xlink:href="#NimbusRomNo9L-Regu-48"/>
      </g>
     </g>
    </g>
    <g id="ytick_2">
     <g id="line2d_9">
      <g>
       <use style="stroke:#000000;stroke-width:0.8;" x="19.8" xlink:href="#ma24abcaaa0" y="89.037553"/>
      </g>
     </g>
     <g id="text_10">
      <!-- 40 -->
      <g transform="translate(4.8 91.770053)scale(0.08 -0.08)">
       <defs>
        <path d="M 47.21875 23.09375 
L 47.21875 16.703125 
L 37.015625 16.703125 
L 37.015625 0 
L 29.296875 0 
L 29.296875 16.703125 
L 1.21875 16.703125 
L 1.21875 23.09375 
L 32.625 67.578125 
L 37.015625 67.578125 
L 37.015625 23.09375 
z
M 29.203125 23.09375 
L 29.203125 57.375 
L 5.21875 23.09375 
z
" id="NimbusRomNo9L-Regu-52"/>
       </defs>
       <use xlink:href="#NimbusRomNo9L-Regu-52"/>
       <use x="50" xlink:href="#NimbusRomNo9L-Regu-48"/>
      </g>
     </g>
    </g>
    <g id="ytick_3">
     <g id="line2d_10">
      <g>
       <use style="stroke:#000000;stroke-width:0.8;" x="19.8" xlink:href="#ma24abcaaa0" y="58.337456"/>
      </g>
     </g>
     <g id="text_11">
      <!-- 60 -->
      <g transform="translate(4.8 61.069956)scale(0.08 -0.08)">
       <defs>
        <path d="M 44.625 68.40625 
L 44.828125 66.796875 
Q 39.796875 65.71875 37.125 64.796875 
Q 34.46875 63.875 31.78125 62.25 
Q 22.46875 56.6875 18.0625 47.46875 
Q 16.609375 44.28125 15.234375 38.28125 
Q 19.09375 40.625 21.046875 41.5 
Q 24.078125 42.828125 27.984375 42.828125 
Q 37.015625 42.828125 41.9375 37.0625 
Q 46.828125 31.34375 46.828125 21.921875 
Q 46.828125 16.453125 44.890625 11.5625 
Q 42.96875 6.6875 39.59375 3.609375 
Q 34.125 -1.421875 25.875 -1.421875 
Q 16.21875 -1.421875 10.40625 5.375 
Q 7.234375 9.125 5.328125 15.234375 
Q 3.421875 21.34375 3.421875 27.9375 
Q 3.421875 41.015625 10.5 50.875 
Q 17.328125 60.40625 28.8125 65.140625 
Q 34.515625 67.53125 44.625 68.40625 
z
M 23.96875 38.234375 
Q 18.796875 38.234375 15.53125 35.75 
Q 12.75 33.640625 12.75 26.5625 
Q 12.75 14.546875 16.453125 8.015625 
Q 18.265625 4.828125 21.015625 3.09375 
Q 23.78125 1.375 26.953125 1.375 
Q 31.34375 1.375 34.1875 4.546875 
Q 35.84375 6.34375 36.84375 10.171875 
Q 37.84375 14.015625 37.84375 18.40625 
Q 37.84375 27.046875 34.859375 32.125 
Q 31.34375 38.234375 23.96875 38.234375 
z
" id="NimbusRomNo9L-Regu-54"/>
       </defs>
       <use xlink:href="#NimbusRomNo9L-Regu-54"/>
       <use x="50" xlink:href="#NimbusRomNo9L-Regu-48"/>
      </g>
     </g>
    </g>
    <g id="ytick_4">
     <g id="line2d_11">
      <g>
       <use style="stroke:#000000;stroke-width:0.8;" x="19.8" xlink:href="#ma24abcaaa0" y="27.63736"/>
      </g>
     </g>
     <g id="text_12">
      <!-- 80 -->
      <g transform="translate(4.8 30.36986)scale(0.08 -0.08)">
       <defs>
        <path d="M 29 37.109375 
Q 37.640625 30.609375 40.625 26.609375 
Q 44.53125 21.4375 44.53125 15.484375 
Q 44.53125 8.109375 39.453125 3.328125 
Q 34.328125 -1.421875 24.8125 -1.421875 
Q 20.125 -1.421875 16.09375 0.140625 
Q 12.0625 1.703125 9.625 4.4375 
Q 5.609375 8.9375 5.609375 15.09375 
Q 5.609375 18.703125 6.75 21.28125 
Q 7.90625 23.875 10.84375 26.8125 
Q 12.84375 28.8125 18.609375 33.203125 
Q 12.109375 38.921875 9.765625 41.796875 
Q 7.8125 44.234375 7 46.53125 
Q 6.203125 48.828125 6.203125 51.859375 
Q 6.203125 58.453125 11.140625 62.75 
Q 16.75 67.625 25.25 67.625 
Q 29.4375 67.625 33.125 66.203125 
Q 36.8125 64.796875 39.015625 62.3125 
Q 42.4375 58.5 42.4375 53.421875 
Q 42.4375 46.625 36.078125 41.5 
Q 33.84375 39.703125 29 37.109375 
z
M 21.1875 31.203125 
Q 17.828125 28.421875 16.265625 26.125 
Q 13.234375 21.78125 13.234375 15.828125 
Q 13.234375 8.25 17.671875 4.34375 
Q 21.046875 1.375 25.875 1.375 
Q 31.15625 1.375 34.1875 4.734375 
Q 36.921875 7.765625 36.921875 12.359375 
Q 36.921875 16.21875 35.640625 18.453125 
Q 33.296875 22.46875 27.25 26.859375 
z
M 26.125 38.921875 
Q 30.21875 41.609375 32.125 43.953125 
Q 35.546875 48.140625 35.546875 53.515625 
Q 35.546875 59.125 32.171875 62.15625 
Q 29.15625 64.84375 24.421875 64.84375 
Q 19 64.84375 16.109375 61.53125 
Q 13.625 58.6875 13.625 54.984375 
Q 13.625 49.265625 19.625 43.703125 
Q 20.65625 42.78125 23.3125 40.796875 
Q 25.984375 38.8125 26.125 38.921875 
z
" id="NimbusRomNo9L-Regu-56"/>
       </defs>
       <use xlink:href="#NimbusRomNo9L-Regu-56"/>
       <use x="50" xlink:href="#NimbusRomNo9L-Regu-48"/>
      </g>
     </g>
    </g>
    <g id="text_13">
     <!-- Classification Accuracy (%) -->
     <g transform="translate(-0.9425 125.222625)rotate(-90)scale(0.08 -0.08)">
      <defs>
       <path d="M 61.96875 45.125 
L 59.671875 45.125 
Q 57.953125 51.078125 56.15625 53.8125 
Q 52.9375 58.796875 47.90625 61.375 
Q 43.453125 63.625 38.1875 63.625 
Q 29.296875 63.625 23 57.8125 
Q 14.40625 49.8125 14.40625 33.890625 
Q 14.40625 25.484375 16.625 18.96875 
Q 18.84375 12.453125 23 8.84375 
Q 29.59375 2.984375 39.15625 2.984375 
Q 47.90625 2.984375 55.46875 8.0625 
Q 58.015625 9.765625 61.46875 13.09375 
L 63.28125 11.328125 
Q 60.25 7.28125 56.390625 4.640625 
Q 47.46875 -1.421875 35.9375 -1.421875 
Q 28.5625 -1.421875 21.9375 1.3125 
Q 15.328125 4.046875 10.9375 8.890625 
Q 7.03125 13.1875 4.90625 19.359375 
Q 2.78125 25.53125 2.78125 32.5625 
Q 2.78125 49.5625 13.625 59.03125 
Q 23.296875 67.578125 36.53125 67.578125 
Q 43.5625 67.578125 50.828125 65.140625 
Q 53.421875 64.3125 54.828125 64.3125 
Q 56.5 64.3125 57.859375 65.578125 
Q 58.59375 66.265625 58.984375 67.578125 
L 61.078125 67.578125 
z
" id="NimbusRomNo9L-Regu-67"/>
       <path d="M 1.90625 62.3125 
L 1.90625 63.921875 
Q 10.890625 66.109375 17.828125 68.3125 
L 18.21875 68.109375 
L 18.21875 8.40625 
Q 18.3125 3.71875 19.96875 2.734375 
Q 21.53125 1.765625 25.734375 1.515625 
L 25.734375 0 
L 2.09375 0 
L 2.09375 1.515625 
Q 6.203125 1.859375 7.90625 2.984375 
Q 9.765625 4.15625 9.8125 8.6875 
L 9.8125 56.390625 
Q 9.8125 60.546875 8.640625 61.625 
Q 7.671875 62.5 5.671875 62.5 
Q 4.296875 62.5 2.4375 62.359375 
z
" id="NimbusRomNo9L-Regu-108"/>
       <path d="M 44.1875 6.59375 
L 44.1875 4 
Q 41.65625 1.21875 39.984375 0.296875 
Q 37.84375 -0.984375 35.25 -0.984375 
Q 31.984375 -0.984375 30.46875 1.03125 
Q 29.203125 2.734375 28.8125 6.296875 
Q 20.359375 -0.984375 14.265625 -0.984375 
Q 9.375 -0.984375 6.25 2.390625 
Q 3.71875 5.125 3.71875 9.671875 
Q 3.71875 15.1875 7.328125 18.359375 
Q 11.859375 22.40625 19.875 25.640625 
Q 23.734375 27.203125 28.71875 29.203125 
L 28.71875 35.296875 
Q 28.71875 43.609375 21.09375 43.609375 
Q 17.140625 43.609375 15.046875 41.40625 
Q 13.921875 40.1875 13.921875 38.71875 
Q 13.921875 37.703125 14.203125 36.28125 
Q 14.40625 35.296875 14.40625 34.71875 
Q 14.40625 33.015625 12.9375 31.6875 
Q 11.671875 30.515625 9.90625 30.515625 
Q 7.953125 30.515625 6.78125 31.890625 
Q 5.609375 33.203125 5.609375 34.8125 
Q 5.609375 38.625 9.375 42 
Q 13.875 46 22.40625 46 
Q 31.453125 46 34.8125 40.484375 
Q 36.8125 37.15625 36.8125 30.03125 
L 36.8125 10.5 
Q 36.8125 6.25 37.84375 5.328125 
Q 38.53125 4.734375 39.796875 4.734375 
Q 41.84375 4.734375 44.1875 6.59375 
z
M 28.71875 26.8125 
Q 20.90625 23.921875 18.5625 22.265625 
Q 15.4375 20.21875 13.96875 17.9375 
Q 12.5 15.671875 12.5 12.890625 
L 12.5 12.5 
Q 12.5 8.59375 14.9375 6.390625 
Q 16.75 4.828125 18.796875 4.828125 
Q 22.21875 4.828125 26.125 7.078125 
Q 27.6875 7.953125 28.171875 8.890625 
Q 28.71875 9.90625 28.71875 12.3125 
z
" id="NimbusRomNo9L-Regu-97"/>
       <path d="M 30.90625 45.015625 
L 30.90625 41.796875 
L 18.703125 41.796875 
L 18.703125 10.40625 
Q 18.703125 6.984375 19.140625 5.375 
Q 19.578125 3.765625 20.65625 3.03125 
Q 22.171875 2.046875 24.21875 1.765625 
Q 25.78125 1.609375 27.984375 1.515625 
L 27.984375 0 
L 2 0 
L 2 1.515625 
Q 6.5 1.765625 8.203125 2.78125 
Q 10.203125 3.90625 10.296875 10.40625 
L 10.296875 41.796875 
L 2.09375 41.796875 
L 2.09375 45.015625 
L 10.296875 45.015625 
Q 10.359375 50.984375 11.078125 54.34375 
Q 11.8125 57.71875 13.765625 61.078125 
Q 15.71875 64.5 19.453125 66.40625 
Q 23.1875 68.3125 27.875 68.3125 
Q 30.71875 68.3125 33.234375 67.5 
Q 35.75 66.703125 36.96875 65.328125 
Q 38.328125 63.875 38.328125 62.109375 
Q 38.328125 60.25 36.96875 59.078125 
Q 35.75 58.015625 34.1875 58.015625 
Q 31.84375 58.015625 29.59375 61.625 
Q 28.03125 64.15625 26.46875 65.09375 
Q 25.734375 65.53125 24.265625 65.53125 
Q 18.609375 65.53125 18.609375 56.59375 
L 18.609375 45.015625 
z
" id="NimbusRomNo9L-Regu-102"/>
       <path d="M 39.796875 15.625 
L 41.21875 14.703125 
Q 37.15625 6.84375 33.59375 3.71875 
Q 28.265625 -0.984375 21.484375 -0.984375 
Q 13.53125 -0.984375 8.015625 5.03125 
Q 5.421875 7.8125 3.953125 12.125 
Q 2.484375 16.453125 2.484375 21.296875 
Q 2.484375 33.59375 10.296875 40.4375 
Q 16.703125 46.046875 24.359375 46.046875 
Q 30.28125 46.046875 34.96875 43.265625 
Q 37.0625 42 38.421875 39.875 
Q 39.796875 37.75 39.796875 35.6875 
Q 39.796875 34.125 38.625 32.90625 
Q 37.203125 31.5 35.0625 31.5 
Q 31.546875 31.5 30.28125 36.140625 
L 29.6875 38.328125 
Q 28.859375 41.40625 27.6875 42.1875 
Q 26.21875 43.171875 23.828125 43.171875 
Q 18.109375 43.171875 14.359375 38.921875 
Q 12.453125 36.765625 11.328125 33.171875 
Q 10.203125 29.59375 10.203125 25.734375 
Q 10.203125 20.84375 11.734375 16.640625 
Q 13.28125 12.453125 16.015625 10.015625 
Q 20.171875 6.25 25.734375 6.25 
Q 31.25 6.25 35.546875 10.296875 
Q 37.25 11.96875 39.796875 15.625 
z
" id="NimbusRomNo9L-Regu-99"/>
       <path d="M 25.53125 45.015625 
L 25.53125 41.796875 
L 15.4375 41.796875 
L 15.4375 13.1875 
Q 15.4375 7.03125 17.390625 5.28125 
Q 18.609375 4.203125 20.609375 4.203125 
Q 23.6875 4.203125 26.65625 7.71875 
L 27.9375 6.59375 
Q 23.09375 -0.984375 15.875 -0.984375 
Q 7.03125 -0.984375 7.03125 11.71875 
L 7.03125 41.796875 
L 1.703125 41.796875 
Q 1.3125 42.046875 1.3125 42.53125 
Q 1.3125 43.359375 3.03125 44.390625 
Q 6.9375 46.6875 14.75 57.90625 
Q 15.4375 57.90625 15.4375 56.640625 
L 15.4375 45.015625 
z
" id="NimbusRomNo9L-Regu-116"/>
       <path d="M 24.953125 46 
Q 35.109375 46 41.359375 39.015625 
Q 46.96875 32.765625 46.96875 23.4375 
Q 46.96875 17.96875 44.890625 12.9375 
Q 42.828125 7.90625 39.109375 4.5 
Q 33.203125 -0.984375 24.75 -0.984375 
Q 15.046875 -0.984375 8.84375 6 
Q 2.875 12.75 2.875 22.5625 
Q 2.875 31.34375 7.515625 37.640625 
Q 13.671875 46 24.953125 46 
z
M 23.4375 43.21875 
Q 19 43.21875 15.625 39.65625 
Q 11.859375 35.640625 11.859375 27.546875 
Q 11.859375 16.359375 16.21875 8.25 
Q 19.671875 1.8125 26.171875 1.8125 
Q 30.375 1.8125 33.296875 4.78125 
Q 37.984375 9.46875 37.984375 20.015625 
Q 37.984375 29 34.28125 36.234375 
Q 32.5625 39.546875 29.703125 41.375 
Q 26.859375 43.21875 23.4375 43.21875 
z
" id="NimbusRomNo9L-Regu-111"/>
       <path d="M 1.609375 39.84375 
L 1.609375 41.5 
Q 8.890625 43.65625 15.4375 46 
L 16.109375 45.796875 
L 16.109375 37.890625 
Q 20.453125 42 22.90625 43.5625 
Q 26.765625 46 30.609375 46 
Q 35.6875 46 38.921875 42.578125 
Q 42.4375 38.8125 42.4375 31 
L 42.4375 8.109375 
Q 42.484375 3.8125 44.046875 2.78125 
Q 45.40625 1.8125 48.53125 1.515625 
L 48.53125 0 
L 27.734375 0 
L 27.734375 1.515625 
Q 30.609375 1.765625 31.890625 2.640625 
Q 33.9375 3.90625 34.03125 9.90625 
L 34.03125 30.8125 
Q 34.03125 35.6875 32.21875 38.078125 
Q 30.421875 40.484375 26.703125 40.484375 
Q 23.6875 40.484375 20.515625 38.28125 
Q 19.09375 37.3125 16.40625 34.8125 
L 16.40625 6.6875 
Q 16.453125 3.859375 17.875 2.875 
Q 19.4375 1.8125 23 1.515625 
L 23 0 
L 1.8125 0 
L 1.8125 1.515625 
Q 4.828125 1.765625 6.15625 2.640625 
Q 7.90625 3.765625 8.015625 8.984375 
L 8.015625 33.796875 
Q 8.015625 38.421875 6.6875 39.59375 
Q 6.0625 40.234375 4.34375 40.234375 
Q 2.640625 40.234375 1.609375 39.84375 
z
" id="NimbusRomNo9L-Regu-110"/>
       <path d="M 70.609375 1.90625 
L 70.609375 0 
L 45.125 0 
L 45.125 1.90625 
Q 49.3125 1.953125 50.734375 2.78125 
Q 52.09375 3.5625 52.09375 5.21875 
Q 52.09375 7.5625 50.203125 12.015625 
L 46.09375 21.578125 
L 19.921875 21.578125 
L 15.328125 9.90625 
Q 14.546875 7.90625 14.546875 6 
Q 14.546875 1.953125 21.34375 1.90625 
L 21.34375 0 
L 1.515625 0 
L 1.515625 1.90625 
Q 3.421875 2 4.734375 2.640625 
Q 5.953125 3.265625 6.390625 3.859375 
Q 7.859375 5.671875 9.78125 9.34375 
Q 11.71875 13.03125 13.921875 18.3125 
L 34.71875 67.390625 
L 36.71875 67.390625 
L 61.625 10.59375 
Q 65.046875 3.078125 67.578125 2.4375 
Q 68.65625 2.046875 70.609375 1.90625 
z
M 21.625 25.6875 
L 44.734375 25.6875 
L 33.109375 53.21875 
z
" id="NimbusRomNo9L-Regu-65"/>
       <path d="M 47.90625 4.984375 
L 47.90625 3.609375 
Q 40.96875 1.765625 34.1875 -0.875 
L 33.796875 -0.6875 
L 33.796875 7.625 
L 29.5 3.328125 
Q 25.25 -0.984375 19.140625 -0.984375 
Q 13.671875 -0.984375 10.203125 2.6875 
Q 7.078125 5.953125 7.078125 12.015625 
L 7.078125 37.203125 
Q 7.03125 41.40625 5.171875 42.53125 
Q 3.765625 43.40625 0.875 43.609375 
L 0.875 45.015625 
L 15.484375 45.015625 
L 15.484375 12.40625 
Q 15.484375 8.984375 17.96875 6.640625 
Q 19.828125 4.828125 22.5625 4.828125 
Q 27.203125 4.828125 31.453125 8.203125 
Q 33.296875 9.71875 33.296875 13.53125 
L 33.296875 37.015625 
Q 33.203125 41.109375 31.734375 42.046875 
Q 30.03125 43.0625 25.875 43.3125 
L 25.875 45.015625 
L 41.703125 45.015625 
L 41.703125 10.6875 
Q 41.75 6.84375 42.875 6.0625 
Q 44.140625 5.03125 47.40625 4.984375 
z
" id="NimbusRomNo9L-Regu-117"/>
       <path d="M 0.6875 39.015625 
L 0.6875 40.625 
Q 8.453125 43.171875 15.484375 46 
L 15.96875 45.796875 
L 15.96875 36.625 
Q 19.53125 41.796875 21.828125 43.65625 
Q 24.75 46 27.9375 46 
Q 30.765625 46 32.171875 44.390625 
Q 33.453125 42.96875 33.453125 40.71875 
Q 33.453125 36.234375 29.59375 36.234375 
Q 27.6875 36.234375 25.53125 38.1875 
Q 23.875 39.703125 22.953125 39.703125 
Q 20.84375 39.703125 18.453125 36.859375 
Q 15.96875 33.9375 15.96875 31.5 
L 15.96875 8.984375 
Q 16.015625 4 18.21875 2.78125 
Q 20.0625 1.703125 24.46875 1.515625 
L 24.46875 0 
L 0.484375 0 
L 0.484375 1.515625 
Q 4.6875 2.296875 6.0625 3.171875 
Q 7.515625 4.15625 7.5625 8.40625 
L 7.5625 33.40625 
Q 7.5625 37.640625 6.296875 38.765625 
Q 5.609375 39.40625 4.15625 39.40625 
Q 2.6875 39.40625 0.6875 39.015625 
z
" id="NimbusRomNo9L-Regu-114"/>
       <path d="M 47.515625 45.015625 
L 47.515625 43.5 
Q 46.296875 43.359375 45.5625 42.96875 
Q 43.953125 42.140625 42.71875 39.015625 
L 27.34375 -1.765625 
Q 22.859375 -13.625 18.5625 -18.109375 
Q 15.046875 -21.78125 10.40625 -21.78125 
Q 6.453125 -21.78125 4.4375 -19.484375 
Q 3.03125 -17.875 3.03125 -15.96875 
Q 3.03125 -14.015625 4.390625 -12.75 
Q 5.5625 -11.578125 7.28125 -11.578125 
Q 9.765625 -11.578125 12.546875 -12.75 
Q 14.203125 -13.375 15.140625 -13.375 
Q 16.21875 -13.375 17.609375 -12.125 
Q 19 -10.890625 20.125 -8.9375 
Q 22.75 -4.203125 23.96875 1.21875 
Q 24.125 1.765625 24.125 1.8125 
Q 24.125 4.203125 19.78125 11.96875 
Q 19.1875 13.03125 17.921875 15.828125 
L 6.5 40.4375 
Q 5.328125 43.015625 1.421875 43.609375 
L 1.421875 45.015625 
L 22.015625 45.015625 
L 22.015625 43.5 
Q 18.5 43.3125 17.1875 42.578125 
Q 16.21875 42 16.21875 40.828125 
Q 16.21875 39.265625 17.234375 37.015625 
L 28.71875 11.71875 
L 38.421875 39.359375 
Q 38.8125 40.4375 38.8125 41.015625 
Q 38.8125 43.5 34.03125 43.5 
L 34.03125 45.015625 
z
" id="NimbusRomNo9L-Regu-121"/>
       <path d="M 66.9375 37.109375 
Q 72.015625 37.109375 74.703125 34.125 
Q 77.203125 31.453125 77.203125 26.46875 
Q 77.203125 18.171875 72.90625 10.84375 
Q 66.609375 0 56.84375 0 
Q 51.265625 0 48.140625 3.515625 
Q 44.875 7.171875 44.875 12.890625 
Q 44.875 17.71875 46.890625 22.359375 
Q 48.921875 27 52.59375 30.609375 
Q 59.28125 37.109375 66.9375 37.109375 
z
M 67.4375 33.890625 
Q 62.984375 33.890625 58.9375 28.125 
Q 54.25 21.4375 52.828125 13.234375 
Q 52.4375 10.84375 52.4375 9.421875 
Q 52.4375 6.25 54.4375 4.4375 
Q 56 2.984375 58.546875 2.984375 
Q 63.71875 2.984375 68.265625 8.640625 
Q 71.1875 12.25 72.890625 16.9375 
Q 74.609375 21.625 74.609375 25.984375 
Q 74.609375 29.734375 71.921875 32.171875 
Q 70.0625 33.890625 67.4375 33.890625 
z
M 63.421875 67.578125 
L 24.90625 -1.3125 
L 20.125 -1.3125 
L 55.28125 61.375 
Q 49.90625 58.296875 44.4375 58.296875 
Q 40.234375 58.296875 37.703125 59.328125 
Q 38.421875 56.890625 38.421875 54.9375 
Q 38.421875 45.703125 32.671875 37.59375 
Q 26.515625 28.90625 17.875 28.90625 
Q 12.890625 28.90625 9.421875 32.8125 
Q 6.109375 36.53125 6.109375 41.609375 
Q 6.109375 47.859375 9.578125 54 
Q 13.09375 60.359375 19.09375 63.765625 
Q 23.296875 66.21875 28.21875 66.21875 
Q 31.34375 66.21875 33.453125 64.890625 
Q 33.890625 64.65625 35.203125 63.484375 
Q 38.421875 60.796875 43.84375 60.796875 
Q 50.25 60.796875 55.125 64.015625 
Q 56.84375 65.140625 59.515625 67.578125 
z
M 35.015625 60.015625 
Q 31.296875 60.984375 29.546875 62.59375 
Q 28.765625 63.234375 28.21875 63.234375 
Q 25.875 63.234375 23.234375 60.859375 
Q 20.609375 58.5 18.359375 54.4375 
Q 14.265625 46.921875 13.671875 38.921875 
Q 13.671875 38.71875 13.671875 38.421875 
Q 13.671875 35.5 15.671875 33.640625 
Q 17.09375 32.328125 19.578125 32.328125 
Q 23.046875 32.328125 26.359375 34.734375 
Q 29.6875 37.15625 32.125 41.546875 
Q 35.9375 48.34375 35.9375 55.125 
Q 35.9375 56.0625 35.5625 58.015625 
Q 35.203125 59.96875 35.015625 60.015625 
z
" id="NimbusRomNo9L-Regu-37"/>
      </defs>
      <use xlink:href="#NimbusRomNo9L-Regu-67"/>
      <use x="66.699219" xlink:href="#NimbusRomNo9L-Regu-108"/>
      <use x="94.482422" xlink:href="#NimbusRomNo9L-Regu-97"/>
      <use x="138.867188" xlink:href="#NimbusRomNo9L-Regu-115"/>
      <use x="177.783203" xlink:href="#NimbusRomNo9L-Regu-115"/>
      <use x="216.699219" xlink:href="#NimbusRomNo9L-Regu-105"/>
      <use x="244.482422" xlink:href="#NimbusRomNo9L-Regu-102"/>
      <use x="279.283203" xlink:href="#NimbusRomNo9L-Regu-105"/>
      <use x="307.066406" xlink:href="#NimbusRomNo9L-Regu-99"/>
      <use x="351.451172" xlink:href="#NimbusRomNo9L-Regu-97"/>
      <use x="395.835938" xlink:href="#NimbusRomNo9L-Regu-116"/>
      <use x="423.619141" xlink:href="#NimbusRomNo9L-Regu-105"/>
      <use x="451.402344" xlink:href="#NimbusRomNo9L-Regu-111"/>
      <use x="501.402344" xlink:href="#NimbusRomNo9L-Regu-110"/>
      <use x="551.402344" xlink:href="#NimbusRomNo9L-Regu-32"/>
      <use x="576.402344" xlink:href="#NimbusRomNo9L-Regu-65"/>
      <use x="645.244141" xlink:href="#NimbusRomNo9L-Regu-99"/>
      <use x="689.628906" xlink:href="#NimbusRomNo9L-Regu-99"/>
      <use x="734.013672" xlink:href="#NimbusRomNo9L-Regu-117"/>
      <use x="784.013672" xlink:href="#NimbusRomNo9L-Regu-114"/>
      <use x="817.064453" xlink:href="#NimbusRomNo9L-Regu-97"/>
      <use x="861.449219" xlink:href="#NimbusRomNo9L-Regu-99"/>
      <use x="905.833984" xlink:href="#NimbusRomNo9L-Regu-121"/>
      <use x="955.833984" xlink:href="#NimbusRomNo9L-Regu-32"/>
      <use x="980.833984" xlink:href="#NimbusRomNo9L-Regu-40"/>
      <use x="1014.134766" xlink:href="#NimbusRomNo9L-Regu-37"/>
      <use x="1097.435547" xlink:href="#NimbusRomNo9L-Regu-41"/>
     </g>
    </g>
   </g>
   <g id="line2d_12">
    <path clip-path="url(#p74fbe71331)" d="M 25.38 24.552 
L 30.03 25.385968 
L 34.68 44.038119 
L 39.33 104.500732 
L 43.98 132.212634 
L 48.63 134.87157 
L 53.28 134.980248 
L 57.93 134.934965 
L 62.58 135.261 
L 67.23 135.233524 
L 71.88 135.252097 
L 76.53 135.432 
L 81.18 135.332839 
L 85.83 135.229072 
L 90.48 135.306897 
L 95.13 135.306897 
L 99.78 135.306897 
L 104.43 135.306897 
L 109.08 135.306897 
L 113.73 135.306897 
L 118.38 135.306897 
L 123.03 135.306897 
L 127.68 135.306897 
L 132.33 135.306897 
L 136.98 135.306897 
" style="fill:none;stroke:#000000;stroke-linecap:square;stroke-width:1.7;"/>
   </g>
   <g id="patch_3">
    <path d="M 19.8 140.976 
L 19.8 19.008 
" style="fill:none;stroke:#000000;stroke-linecap:square;stroke-linejoin:miter;stroke-width:0.8;"/>
   </g>
   <g id="patch_4">
    <path d="M 142.56 140.976 
L 142.56 19.008 
" style="fill:none;stroke:#000000;stroke-linecap:square;stroke-linejoin:miter;stroke-width:0.8;"/>
   </g>
   <g id="patch_5">
    <path d="M 19.8 140.976 
L 142.56 140.976 
" style="fill:none;stroke:#000000;stroke-linecap:square;stroke-linejoin:miter;stroke-width:0.8;"/>
   </g>
   <g id="patch_6">
    <path d="M 19.8 19.008 
L 142.56 19.008 
" style="fill:none;stroke:#000000;stroke-linecap:square;stroke-linejoin:miter;stroke-width:0.8;"/>
   </g>
  </g>
 </g>
 <defs>
  <clipPath id="p74fbe71331">
   <rect height="121.968" width="122.76" x="19.8" y="19.008"/>
  </clipPath>
 </defs>
</svg>
